<svg width="29" height="29" viewBox="0 0 29 29" fill="none" xmlns="http://www.w3.org/2000/svg">
<path d="M1.56387 20.6053C1.25342 20.6053 1.00146 20.3534 1.00146 20.0429V3.81201C1.00146 2.26091 2.2635 1 3.81348 1H20.6855C20.9386 1 21.2007 1.03712 21.465 1.11136C21.7642 1.19347 21.9397 1.50391 21.8576 1.80199C21.7755 2.10231 21.4617 2.28003 21.1658 2.19454C20.9982 2.14843 20.8363 2.1248 20.6855 2.1248H3.81348C2.88326 2.1248 2.12627 2.8818 2.12627 3.81201V20.0429C2.12627 20.3534 1.87431 20.6053 1.56387 20.6053Z" fill="black" stroke="black" stroke-width="0.5"/>
<path d="M20.6852 27.9953H8.95352C8.64307 27.9953 8.39111 27.7434 8.39111 27.4329C8.39111 27.1225 8.64194 26.8705 8.95352 26.8705H20.6852C21.6154 26.8705 22.3724 26.1135 22.3724 25.1833V14.3515C22.3724 14.041 22.6244 13.7891 22.9348 13.7891C23.2453 13.7891 23.4972 14.041 23.4972 14.3515V25.1833C23.4972 26.7344 22.2352 27.9953 20.6852 27.9953Z" fill="black" stroke="black" stroke-width="0.5"/>
<path d="M8.95448 27.9954C8.80826 27.9954 8.66428 27.938 8.5563 27.8312L1.16521 20.4401C1.00436 20.2792 0.955997 20.0374 1.04373 19.8271C1.13034 19.6167 1.33618 19.4795 1.56339 19.4795H7.82968C8.75989 19.4795 9.51688 20.2365 9.51688 21.1667V27.433C9.51688 27.6602 9.37966 27.866 9.16932 27.9526C9.10071 27.9808 9.02759 27.9954 8.95448 27.9954ZM2.92103 20.6043L8.39208 26.0753V21.1667C8.39208 20.8574 8.14012 20.6043 7.82968 20.6043H2.92103Z" fill="black" stroke="black" stroke-width="0.5"/>
<path d="M11.9927 17.5658C11.8453 17.5658 11.7025 17.5073 11.5945 17.4016C11.4517 17.2587 11.3965 17.0506 11.4494 16.856L12.6428 12.4817C12.7238 12.1825 13.0365 12.0092 13.3335 12.0869C13.6338 12.1678 13.8104 12.4783 13.7283 12.7775L12.7935 16.2014L16.2186 15.2678C16.5167 15.1902 16.8282 15.3623 16.9092 15.6626C16.9913 15.9629 16.8147 16.2723 16.5144 16.3532L12.14 17.5455C12.0917 17.559 12.0422 17.5658 11.9927 17.5658Z" fill="black" stroke="black" stroke-width="0.5"/>
<path d="M16.367 16.3723C16.2231 16.3723 16.0791 16.3171 15.9689 16.208L12.7868 13.0271C12.681 12.9214 12.6226 12.7785 12.6226 12.6289C12.6226 12.4793 12.6822 12.3365 12.7868 12.2307L23.5242 1.49335C24.1597 0.857834 25.2721 0.855585 25.9099 1.49335L27.5003 3.08382C28.1584 3.74183 28.1584 4.81152 27.5003 5.46953L16.763 16.2069C16.655 16.3171 16.511 16.3723 16.367 16.3723ZM13.9813 12.6289L16.3682 15.0146L26.7074 4.67542C26.9267 4.45608 26.9267 4.09952 26.7074 3.88018L25.1169 2.28971C24.9032 2.07712 24.5331 2.07712 24.3217 2.28971L13.9813 12.6289Z" fill="black" stroke="black" stroke-width="0.5"/>
</svg>
