<svg width="243" height="116" viewBox="0 0 243 116" fill="none" xmlns="http://www.w3.org/2000/svg">
<path d="M197.93 21.9476C154.796 18.9496 109.07 31.6532 65.4729 33.5762C59.2887 34.5657 52.4037 33.2382 48.012 36.8485C44.7001 39.571 41.3969 40.1131 37.0471 40.9948C29.2722 42.5709 28.6842 48.6533 20.3616 50.3614C16.8131 51.0897 13.3515 57.8847 10.7382 60.033C-1.06361 69.7347 4.72237 82.9088 19.8563 92.1106C34.2027 100.833 52.4434 100.788 71.5453 99.1462C102.269 96.5063 137.766 94.2193 168.007 85.6241L168.593 85.4576C186.322 80.4198 214.441 72.4293 227.334 61.2493C239.549 50.6578 241.929 39.3399 231.343 28.081C225.696 22.0746 206.855 22.5679 197.93 21.9476Z" stroke="#15A6FF" stroke-opacity="0.2" stroke-width="2" stroke-linecap="round" stroke-linejoin="round"/>
<path d="M197.728 19.766C154.44 16.2574 108.655 29.2616 64.9355 30.9311C58.7386 31.9227 51.8236 30.4687 47.4417 34.2345C44.1372 37.0744 40.8272 37.6183 36.4696 38.5113C28.6808 40.1075 28.1305 46.5076 19.7932 48.2384C16.2383 48.9764 12.8101 56.1034 10.2026 58.3443C-1.5729 68.4641 4.31642 82.3839 19.557 92.1969C34.0044 101.499 52.3014 101.6 71.4518 100.027C102.254 97.4976 137.846 95.3788 168.125 86.5745L168.712 86.4039C186.463 81.2435 214.617 73.0587 227.478 61.3911C239.663 50.3377 241.976 38.4391 231.285 26.497C225.581 20.1261 206.684 20.492 197.728 19.766Z" stroke="#15A6FF" stroke-opacity="0.2" stroke-width="2" stroke-linecap="round" stroke-linejoin="round"/>
<path d="M196.465 17.628C153.307 15.6966 108.061 29.9899 64.5976 33.1341C58.4551 34.3176 51.5393 33.1358 47.2697 36.9678C44.05 39.8575 40.7694 40.5036 36.4549 41.5272C28.743 43.3566 28.3495 49.6305 20.0951 51.6105C16.5756 52.4547 13.3359 59.5386 10.7952 61.8188C-0.678316 72.1164 5.51715 85.5165 20.9187 94.5795C35.5188 103.171 53.7278 102.636 72.7458 100.436C103.335 96.8987 138.7 93.5966 168.618 83.9445L169.197 83.7574C186.736 78.1 214.554 69.1269 227.071 57.2791C238.929 46.055 240.944 34.3464 230.018 23.0452C224.189 17.0162 205.394 18.0276 196.465 17.628Z" stroke="#15A6FF" stroke-opacity="0.2" stroke-width="2" stroke-linecap="round" stroke-linejoin="round"/>
</svg>
