<svg width="95" height="82" viewBox="0 0 95 82" fill="none" xmlns="http://www.w3.org/2000/svg">
<path d="M5.93798 33.9878C6.32571 33.9249 6.7181 33.8958 7.11069 33.9009L73.9602 33.9009L72.5025 33.2229C71.0777 32.5485 69.7815 31.6307 68.6719 30.511L49.9256 11.7647C47.4567 9.40787 47.0419 5.61645 48.9425 2.78142C51.1547 -0.239639 55.397 -0.895589 58.4182 1.31655C58.6623 1.49537 58.8943 1.69029 59.1123 1.90004L93.0115 35.7993C95.6608 38.4455 95.6631 42.7382 93.0168 45.3875C93.0152 45.3891 93.0132 45.3911 93.0115 45.3928L59.1123 79.292C56.461 81.9359 52.1683 81.93 49.5241 79.2786C49.3161 79.07 49.1218 78.8479 48.9425 78.614C47.0419 75.779 47.4567 71.9876 49.9256 69.6307L68.638 50.8505C69.6327 49.8547 70.7764 49.0198 72.0279 48.3759L74.0619 47.4606L7.48379 47.4606C4.02035 47.5892 0.981701 45.1699 0.331051 41.7655C-0.26833 38.0695 2.24191 34.5874 5.93798 33.9878Z" fill="#B1E1FF"/>
</svg>
