<svg width="239" height="239" viewBox="0 0 239 239" fill="none" xmlns="http://www.w3.org/2000/svg">
<path d="M239 119.5C239 146.205 230.055 172.14 213.593 193.167C197.13 214.194 174.099 229.101 148.175 235.509C122.25 241.917 94.9266 239.456 70.5638 228.521C46.2009 217.585 26.2031 198.804 13.7615 175.174C1.31998 151.545 -2.84826 124.429 1.92198 98.1538C6.69222 71.8786 20.126 47.9584 40.0796 30.2103C60.0332 12.4622 85.3566 1.9091 112.009 0.235035C138.661 -1.43903 165.106 5.86244 187.123 20.9743L154.45 68.579C143.07 60.7687 129.403 56.9951 115.628 57.8603C101.854 58.7255 88.7658 64.1797 78.4532 73.3524C68.1406 82.5252 61.1976 94.8878 58.7322 108.468C56.2668 122.047 58.421 136.062 64.8512 148.274C71.2814 160.487 81.6168 170.193 94.2083 175.845C106.8 181.497 120.922 182.769 134.32 179.457C147.719 176.145 159.622 168.441 168.13 157.573C176.638 146.706 181.261 133.302 181.261 119.5H239Z" fill="url(#paint0_linear)" fill-opacity="0.2"/>
<defs>
<linearGradient id="paint0_linear" x1="119.5" y1="0" x2="119.5" y2="239" gradientUnits="userSpaceOnUse">
<stop stop-color="#24ACFF"/>
<stop offset="1" stop-color="#196EEE"/>
</linearGradient>
</defs>
</svg>
