<svg width="712" height="531" viewBox="0 0 712 531" fill="none" xmlns="http://www.w3.org/2000/svg">
<path d="M712 466.643H0V467H712V466.643Z" fill="#EBEBEB"/>
<path d="M640.658 489.573H593.495V489.929H640.658V489.573Z" fill="#EBEBEB"/>
<path d="M471.657 493.449H459.283V493.805H471.657V493.449Z" fill="#EBEBEB"/>
<path d="M592.071 476.348H564.744V476.704H592.071V476.348Z" fill="#EBEBEB"/>
<path d="M136.206 478.742H74.7031V479.098H136.206V478.742Z" fill="#EBEBEB"/>
<path d="M157.907 478.742H148.894V479.098H157.907V478.742Z" fill="#EBEBEB"/>
<path d="M320.614 484.756H187.213V485.112H320.614V484.756Z" fill="#EBEBEB"/>
<path d="M337.502 403.085H62.5422C58.0566 403.085 54.4111 399.436 54.4111 394.947V8.13722C54.4111 3.64821 58.0566 0 62.5422 0H337.517C342.002 0 345.648 3.64821 345.648 8.13722V394.947C345.633 399.436 341.988 403.085 337.502 403.085ZM62.5422 0.356271C58.2559 0.356271 54.7671 3.84772 54.7671 8.13722V394.947C54.7671 399.237 58.2559 402.728 62.5422 402.728H337.517C341.803 402.728 345.292 399.237 345.292 394.947V8.13722C345.292 3.84772 341.803 0.356271 337.517 0.356271H62.5422Z" fill="#EBEBEB"/>
<path d="M645.514 403.085H370.539C366.054 403.085 362.408 399.436 362.408 394.947V8.13722C362.408 3.64821 366.054 0 370.539 0H645.514C649.999 0 653.645 3.64821 653.645 8.13722V394.947C653.645 399.436 649.999 403.085 645.514 403.085ZM370.539 0.356271C366.253 0.356271 362.764 3.84772 362.764 8.13722V394.947C362.764 399.237 366.253 402.728 370.539 402.728H645.514C649.8 402.728 653.289 399.237 653.289 394.947V8.13722C653.289 3.84772 649.8 0.356271 645.514 0.356271H370.539Z" fill="#EBEBEB"/>
<path d="M634.278 88.6687H289.271V421.482H634.278V88.6687Z" fill="#E0E0E0"/>
<path d="M634.278 94.7109H294.811V415.668H634.278V94.7109Z" fill="#F5F5F5"/>
<path d="M297.317 337.944V241.409H307.328V228.655L329.884 218.095V205.055H333.644V241.409H337.403V337.944H342.415V287.796H353.693V261.474H357.453V337.944H366.21V309.115H372.476V301.59H386.26V275.255H393.779V257.712H402.551V231.377H406.31V257.712H415.082V275.255H422.587V301.59H436.371V309.115H442.636V337.944H450.155V301.59H463.94V221.344H467.699V212.565H497.76V221.344H504.025V279.017H529.088V285.287H537.845V289.05H529.088V311.623H555.389V236.393H560.401V221.344H572.932V163.671H576.692V221.344H585.464V236.393H634.278V415.683H294.811V337.944H297.317Z" fill="#E6E6E6"/>
<path d="M608.191 240.326H604.645V243.875H608.191V240.326Z" fill="#F0F0F0"/>
<path d="M608.191 246.283H604.645V249.831H608.191V246.283Z" fill="#F0F0F0"/>
<path d="M608.191 270.096H604.645V273.645H608.191V270.096Z" fill="#F0F0F0"/>
<path d="M608.191 276.053H604.645V279.601H608.191V276.053Z" fill="#F0F0F0"/>
<path d="M608.191 282.01H604.645V285.558H608.191V282.01Z" fill="#F0F0F0"/>
<path d="M608.191 299.88H604.645V303.429H608.191V299.88Z" fill="#F0F0F0"/>
<path d="M608.191 305.837H604.645V309.386H608.191V305.837Z" fill="#F0F0F0"/>
<path d="M602.552 264.139H599.006V267.688H602.552V264.139Z" fill="#F0F0F0"/>
<path d="M602.552 270.096H599.006V273.645H602.552V270.096Z" fill="#F0F0F0"/>
<path d="M602.552 276.053H599.006V279.601H602.552V276.053Z" fill="#F0F0F0"/>
<path d="M602.552 282.01H599.006V285.558H602.552V282.01Z" fill="#F0F0F0"/>
<path d="M602.552 287.967H599.006V291.515H602.552V287.967Z" fill="#F0F0F0"/>
<path d="M602.552 299.88H599.006V303.429H602.552V299.88Z" fill="#F0F0F0"/>
<path d="M602.552 305.837H599.006V309.386H602.552V305.837Z" fill="#F0F0F0"/>
<path d="M596.913 240.326H593.367V243.875H596.913V240.326Z" fill="#F0F0F0"/>
<path d="M596.913 246.283H593.367V249.831H596.913V246.283Z" fill="#F0F0F0"/>
<path d="M596.913 252.24H593.367V255.788H596.913V252.24Z" fill="#F0F0F0"/>
<path d="M596.913 258.197H593.367V261.745H596.913V258.197Z" fill="#F0F0F0"/>
<path d="M596.913 264.139H593.367V267.688H596.913V264.139Z" fill="#F0F0F0"/>
<path d="M596.913 270.096H593.367V273.645H596.913V270.096Z" fill="#F0F0F0"/>
<path d="M596.913 276.053H593.367V279.601H596.913V276.053Z" fill="#F0F0F0"/>
<path d="M596.913 282.01H593.367V285.558H596.913V282.01Z" fill="#F0F0F0"/>
<path d="M596.913 287.967H593.367V291.515H596.913V287.967Z" fill="#F0F0F0"/>
<path d="M596.913 293.924H593.367V297.472H596.913V293.924Z" fill="#F0F0F0"/>
<path d="M596.913 305.837H593.367V309.386H596.913V305.837Z" fill="#F0F0F0"/>
<path d="M591.274 240.326H587.728V243.875H591.274V240.326Z" fill="#F0F0F0"/>
<path d="M591.274 246.283H587.728V249.831H591.274V246.283Z" fill="#F0F0F0"/>
<path d="M591.274 252.24H587.728V255.788H591.274V252.24Z" fill="#F0F0F0"/>
<path d="M591.274 258.197H587.728V261.745H591.274V258.197Z" fill="#F0F0F0"/>
<path d="M591.274 264.139H587.728V267.688H591.274V264.139Z" fill="#F0F0F0"/>
<path d="M591.274 270.096H587.728V273.645H591.274V270.096Z" fill="#F0F0F0"/>
<path d="M591.274 276.053H587.728V279.601H591.274V276.053Z" fill="#F0F0F0"/>
<path d="M591.274 329.65H587.728V333.199H591.274V329.65Z" fill="#F0F0F0"/>
<path d="M585.635 240.326H582.089V243.875H585.635V240.326Z" fill="#F0F0F0"/>
<path d="M585.635 246.283H582.089V249.831H585.635V246.283Z" fill="#F0F0F0"/>
<path d="M585.635 252.24H582.089V255.788H585.635V252.24Z" fill="#F0F0F0"/>
<path d="M585.635 258.197H582.089V261.745H585.635V258.197Z" fill="#F0F0F0"/>
<path d="M585.635 264.139H582.089V267.688H585.635V264.139Z" fill="#F0F0F0"/>
<path d="M585.635 270.096H582.089V273.645H585.635V270.096Z" fill="#F0F0F0"/>
<path d="M585.635 276.053H582.089V279.601H585.635V276.053Z" fill="#F0F0F0"/>
<path d="M585.635 282.01H582.089V285.558H585.635V282.01Z" fill="#F0F0F0"/>
<path d="M585.635 317.751H582.089V321.299H585.635V317.751Z" fill="#F0F0F0"/>
<path d="M585.635 323.694H582.089V327.242H585.635V323.694Z" fill="#F0F0F0"/>
<path d="M585.635 329.65H582.089V333.199H585.635V329.65Z" fill="#F0F0F0"/>
<path d="M585.635 335.607H582.089V339.156H585.635V335.607Z" fill="#F0F0F0"/>
<path d="M585.635 359.435H582.089V362.983H585.635V359.435Z" fill="#F0F0F0"/>
<path d="M579.995 240.326H576.45V243.875H579.995V240.326Z" fill="#F0F0F0"/>
<path d="M579.995 246.283H576.45V249.831H579.995V246.283Z" fill="#F0F0F0"/>
<path d="M579.995 252.24H576.45V255.788H579.995V252.24Z" fill="#F0F0F0"/>
<path d="M579.995 258.197H576.45V261.745H579.995V258.197Z" fill="#F0F0F0"/>
<path d="M579.995 264.139H576.45V267.688H579.995V264.139Z" fill="#F0F0F0"/>
<path d="M579.995 270.096H576.45V273.645H579.995V270.096Z" fill="#F0F0F0"/>
<path d="M579.995 276.053H576.45V279.601H579.995V276.053Z" fill="#F0F0F0"/>
<path d="M579.995 282.01H576.45V285.558H579.995V282.01Z" fill="#F0F0F0"/>
<path d="M579.995 287.967H576.45V291.515H579.995V287.967Z" fill="#F0F0F0"/>
<path d="M579.995 293.924H576.45V297.472H579.995V293.924Z" fill="#F0F0F0"/>
<path d="M579.995 311.794H576.45V315.342H579.995V311.794Z" fill="#F0F0F0"/>
<path d="M579.995 317.751H576.45V321.299H579.995V317.751Z" fill="#F0F0F0"/>
<path d="M579.995 323.694H576.45V327.242H579.995V323.694Z" fill="#F0F0F0"/>
<path d="M579.995 329.65H576.45V333.199H579.995V329.65Z" fill="#F0F0F0"/>
<path d="M579.995 335.607H576.45V339.156H579.995V335.607Z" fill="#F0F0F0"/>
<path d="M579.995 359.435H576.45V362.983H579.995V359.435Z" fill="#F0F0F0"/>
<path d="M574.356 240.326H570.811V243.875H574.356V240.326Z" fill="#F0F0F0"/>
<path d="M574.356 246.283H570.811V249.831H574.356V246.283Z" fill="#F0F0F0"/>
<path d="M574.356 252.24H570.811V255.788H574.356V252.24Z" fill="#F0F0F0"/>
<path d="M574.356 258.197H570.811V261.745H574.356V258.197Z" fill="#F0F0F0"/>
<path d="M574.356 264.139H570.811V267.688H574.356V264.139Z" fill="#F0F0F0"/>
<path d="M574.356 270.096H570.811V273.645H574.356V270.096Z" fill="#F0F0F0"/>
<path d="M574.356 276.053H570.811V279.601H574.356V276.053Z" fill="#F0F0F0"/>
<path d="M574.356 282.01H570.811V285.558H574.356V282.01Z" fill="#F0F0F0"/>
<path d="M574.356 287.967H570.811V291.515H574.356V287.967Z" fill="#F0F0F0"/>
<path d="M574.356 293.924H570.811V297.472H574.356V293.924Z" fill="#F0F0F0"/>
<path d="M574.356 299.88H570.811V303.429H574.356V299.88Z" fill="#F0F0F0"/>
<path d="M574.356 305.837H570.811V309.386H574.356V305.837Z" fill="#F0F0F0"/>
<path d="M574.356 311.794H570.811V315.342H574.356V311.794Z" fill="#F0F0F0"/>
<path d="M574.356 317.751H570.811V321.299H574.356V317.751Z" fill="#F0F0F0"/>
<path d="M574.356 323.694H570.811V327.242H574.356V323.694Z" fill="#F0F0F0"/>
<path d="M574.356 329.65H570.811V333.199H574.356V329.65Z" fill="#F0F0F0"/>
<path d="M574.356 335.607H570.811V339.156H574.356V335.607Z" fill="#F0F0F0"/>
<path d="M574.356 341.564H570.811V345.112H574.356V341.564Z" fill="#F0F0F0"/>
<path d="M568.718 240.326H565.172V243.875H568.718V240.326Z" fill="#F0F0F0"/>
<path d="M568.718 246.283H565.172V249.831H568.718V246.283Z" fill="#F0F0F0"/>
<path d="M568.718 252.24H565.172V255.788H568.718V252.24Z" fill="#F0F0F0"/>
<path d="M568.718 258.197H565.172V261.745H568.718V258.197Z" fill="#F0F0F0"/>
<path d="M568.718 264.139H565.172V267.688H568.718V264.139Z" fill="#F0F0F0"/>
<path d="M568.718 270.096H565.172V273.645H568.718V270.096Z" fill="#F0F0F0"/>
<path d="M568.718 276.053H565.172V279.601H568.718V276.053Z" fill="#F0F0F0"/>
<path d="M568.718 282.01H565.172V285.558H568.718V282.01Z" fill="#F0F0F0"/>
<path d="M568.718 287.967H565.172V291.515H568.718V287.967Z" fill="#F0F0F0"/>
<path d="M568.718 293.924H565.172V297.472H568.718V293.924Z" fill="#F0F0F0"/>
<path d="M568.718 311.794H565.172V315.342H568.718V311.794Z" fill="#F0F0F0"/>
<path d="M568.718 317.751H565.172V321.299H568.718V317.751Z" fill="#F0F0F0"/>
<path d="M568.718 323.694H565.172V327.242H568.718V323.694Z" fill="#F0F0F0"/>
<path d="M568.718 329.65H565.172V333.199H568.718V329.65Z" fill="#F0F0F0"/>
<path d="M563.093 240.326H559.547V243.875H563.093V240.326Z" fill="#F0F0F0"/>
<path d="M563.093 246.283H559.547V249.831H563.093V246.283Z" fill="#F0F0F0"/>
<path d="M563.093 252.24H559.547V255.788H563.093V252.24Z" fill="#F0F0F0"/>
<path d="M563.093 258.197H559.547V261.745H563.093V258.197Z" fill="#F0F0F0"/>
<path d="M563.093 264.139H559.547V267.688H563.093V264.139Z" fill="#F0F0F0"/>
<path d="M563.093 270.096H559.547V273.645H563.093V270.096Z" fill="#F0F0F0"/>
<path d="M563.093 276.053H559.547V279.601H563.093V276.053Z" fill="#F0F0F0"/>
<path d="M563.093 282.01H559.547V285.558H563.093V282.01Z" fill="#F0F0F0"/>
<path d="M563.093 287.967H559.547V291.515H563.093V287.967Z" fill="#F0F0F0"/>
<path d="M563.093 293.924H559.547V297.472H563.093V293.924Z" fill="#F0F0F0"/>
<path d="M563.093 311.794H559.547V315.342H563.093V311.794Z" fill="#F0F0F0"/>
<path d="M563.093 317.751H559.547V321.299H563.093V317.751Z" fill="#F0F0F0"/>
<path d="M563.093 323.694H559.547V327.242H563.093V323.694Z" fill="#F0F0F0"/>
<path d="M499.611 224.864H496.065V228.412H499.611V224.864Z" fill="#F0F0F0"/>
<path d="M499.611 230.821H496.065V234.369H499.611V230.821Z" fill="#F0F0F0"/>
<path d="M499.611 236.778H496.065V240.326H499.611V236.778Z" fill="#F0F0F0"/>
<path d="M499.611 242.72H496.065V246.269H499.611V242.72Z" fill="#F0F0F0"/>
<path d="M499.611 248.677H496.065V252.226H499.611V248.677Z" fill="#F0F0F0"/>
<path d="M499.611 254.634H496.065V258.182H499.611V254.634Z" fill="#F0F0F0"/>
<path d="M499.611 260.591H496.065V264.139H499.611V260.591Z" fill="#F0F0F0"/>
<path d="M499.611 266.548H496.065V270.096H499.611V266.548Z" fill="#F0F0F0"/>
<path d="M499.611 284.418H496.065V287.967H499.611V284.418Z" fill="#F0F0F0"/>
<path d="M499.611 290.375H496.065V293.923H499.611V290.375Z" fill="#F0F0F0"/>
<path d="M493.972 224.864H490.426V228.412H493.972V224.864Z" fill="#F0F0F0"/>
<path d="M493.972 230.821H490.426V234.369H493.972V230.821Z" fill="#F0F0F0"/>
<path d="M493.972 236.778H490.426V240.326H493.972V236.778Z" fill="#F0F0F0"/>
<path d="M493.972 242.72H490.426V246.269H493.972V242.72Z" fill="#F0F0F0"/>
<path d="M493.972 248.677H490.426V252.226H493.972V248.677Z" fill="#F0F0F0"/>
<path d="M493.972 254.634H490.426V258.182H493.972V254.634Z" fill="#F0F0F0"/>
<path d="M493.972 260.591H490.426V264.139H493.972V260.591Z" fill="#F0F0F0"/>
<path d="M493.972 266.548H490.426V270.096H493.972V266.548Z" fill="#F0F0F0"/>
<path d="M493.972 290.375H490.426V293.923H493.972V290.375Z" fill="#F0F0F0"/>
<path d="M488.333 224.864H484.787V228.412H488.333V224.864Z" fill="#F0F0F0"/>
<path d="M488.333 230.821H484.787V234.369H488.333V230.821Z" fill="#F0F0F0"/>
<path d="M488.333 236.778H484.787V240.326H488.333V236.778Z" fill="#F0F0F0"/>
<path d="M488.333 242.72H484.787V246.269H488.333V242.72Z" fill="#F0F0F0"/>
<path d="M488.333 248.677H484.787V252.226H488.333V248.677Z" fill="#F0F0F0"/>
<path d="M488.333 254.634H484.787V258.182H488.333V254.634Z" fill="#F0F0F0"/>
<path d="M488.333 260.591H484.787V264.139H488.333V260.591Z" fill="#F0F0F0"/>
<path d="M488.333 266.548H484.787V270.096H488.333V266.548Z" fill="#F0F0F0"/>
<path d="M482.694 224.864H479.148V228.412H482.694V224.864Z" fill="#F0F0F0"/>
<path d="M482.694 230.821H479.148V234.369H482.694V230.821Z" fill="#F0F0F0"/>
<path d="M482.694 236.778H479.148V240.326H482.694V236.778Z" fill="#F0F0F0"/>
<path d="M482.694 242.72H479.148V246.269H482.694V242.72Z" fill="#F0F0F0"/>
<path d="M482.694 248.677H479.148V252.226H482.694V248.677Z" fill="#F0F0F0"/>
<path d="M482.694 254.634H479.148V258.182H482.694V254.634Z" fill="#F0F0F0"/>
<path d="M482.694 266.548H479.148V270.096H482.694V266.548Z" fill="#F0F0F0"/>
<path d="M482.694 272.505H479.148V276.053H482.694V272.505Z" fill="#F0F0F0"/>
<path d="M482.694 290.375H479.148V293.923H482.694V290.375Z" fill="#F0F0F0"/>
<path d="M482.694 296.332H479.148V299.88H482.694V296.332Z" fill="#F0F0F0"/>
<path d="M482.694 302.274H479.148V305.823H482.694V302.274Z" fill="#F0F0F0"/>
<path d="M482.694 308.231H479.148V311.78H482.694V308.231Z" fill="#F0F0F0"/>
<path d="M482.694 314.188H479.148V317.737H482.694V314.188Z" fill="#F0F0F0"/>
<path d="M482.694 320.145H479.148V323.694H482.694V320.145Z" fill="#F0F0F0"/>
<path d="M482.694 326.102H479.148V329.65H482.694V326.102Z" fill="#F0F0F0"/>
<path d="M477.055 224.864H473.509V228.412H477.055V224.864Z" fill="#F0F0F0"/>
<path d="M477.055 230.821H473.509V234.369H477.055V230.821Z" fill="#F0F0F0"/>
<path d="M477.055 236.778H473.509V240.326H477.055V236.778Z" fill="#F0F0F0"/>
<path d="M477.055 242.72H473.509V246.269H477.055V242.72Z" fill="#F0F0F0"/>
<path d="M477.055 248.677H473.509V252.226H477.055V248.677Z" fill="#F0F0F0"/>
<path d="M477.055 254.634H473.509V258.182H477.055V254.634Z" fill="#F0F0F0"/>
<path d="M477.055 272.505H473.509V276.053H477.055V272.505Z" fill="#F0F0F0"/>
<path d="M477.055 278.461H473.509V282.01H477.055V278.461Z" fill="#F0F0F0"/>
<path d="M477.055 284.418H473.509V287.967H477.055V284.418Z" fill="#F0F0F0"/>
<path d="M477.055 290.375H473.509V293.923H477.055V290.375Z" fill="#F0F0F0"/>
<path d="M477.055 296.332H473.509V299.88H477.055V296.332Z" fill="#F0F0F0"/>
<path d="M477.055 302.274H473.509V305.823H477.055V302.274Z" fill="#F0F0F0"/>
<path d="M477.055 308.231H473.509V311.78H477.055V308.231Z" fill="#F0F0F0"/>
<path d="M477.055 314.188H473.509V317.737H477.055V314.188Z" fill="#F0F0F0"/>
<path d="M477.055 320.145H473.509V323.694H477.055V320.145Z" fill="#F0F0F0"/>
<path d="M477.055 326.102H473.509V329.65H477.055V326.102Z" fill="#F0F0F0"/>
<path d="M477.055 332.059H473.509V335.607H477.055V332.059Z" fill="#F0F0F0"/>
<path d="M477.055 343.972H473.509V347.521H477.055V343.972Z" fill="#F0F0F0"/>
<path d="M471.415 224.864H467.87V228.412H471.415V224.864Z" fill="#F0F0F0"/>
<path d="M471.415 230.821H467.87V234.369H471.415V230.821Z" fill="#F0F0F0"/>
<path d="M471.415 236.778H467.87V240.326H471.415V236.778Z" fill="#F0F0F0"/>
<path d="M471.415 242.72H467.87V246.269H471.415V242.72Z" fill="#F0F0F0"/>
<path d="M471.415 248.677H467.87V252.226H471.415V248.677Z" fill="#F0F0F0"/>
<path d="M471.415 254.634H467.87V258.182H471.415V254.634Z" fill="#F0F0F0"/>
<path d="M471.415 272.505H467.87V276.053H471.415V272.505Z" fill="#F0F0F0"/>
<path d="M471.415 278.461H467.87V282.01H471.415V278.461Z" fill="#F0F0F0"/>
<path d="M471.415 284.418H467.87V287.967H471.415V284.418Z" fill="#F0F0F0"/>
<path d="M471.415 290.375H467.87V293.923H471.415V290.375Z" fill="#F0F0F0"/>
<path d="M471.415 308.231H467.87V311.78H471.415V308.231Z" fill="#F0F0F0"/>
<path d="M471.415 314.188H467.87V317.737H471.415V314.188Z" fill="#F0F0F0"/>
<path d="M471.415 320.145H467.87V323.694H471.415V320.145Z" fill="#F0F0F0"/>
<path d="M471.415 326.102H467.87V329.65H471.415V326.102Z" fill="#F0F0F0"/>
<path d="M471.415 332.059H467.87V335.607H471.415V332.059Z" fill="#F0F0F0"/>
<path d="M471.415 343.972H467.87V347.521H471.415V343.972Z" fill="#F0F0F0"/>
<path d="M471.415 349.929H467.87V353.478H471.415V349.929Z" fill="#F0F0F0"/>
<path d="M420.266 280.243H416.72V283.791H420.266V280.243Z" fill="#F0F0F0"/>
<path d="M420.266 286.185H416.72V289.734H420.266V286.185Z" fill="#F0F0F0"/>
<path d="M420.266 292.142H416.72V295.691H420.266V292.142Z" fill="#F0F0F0"/>
<path d="M420.266 298.099H416.72V301.648H420.266V298.099Z" fill="#F0F0F0"/>
<path d="M420.266 304.056H416.72V307.604H420.266V304.056Z" fill="#F0F0F0"/>
<path d="M420.266 310.013H416.72V313.561H420.266V310.013Z" fill="#F0F0F0"/>
<path d="M420.266 315.969H416.72V319.518H420.266V315.969Z" fill="#F0F0F0"/>
<path d="M420.266 333.84H416.72V337.388H420.266V333.84Z" fill="#F0F0F0"/>
<path d="M420.266 339.783H416.72V343.331H420.266V339.783Z" fill="#F0F0F0"/>
<path d="M420.266 345.74H416.72V349.288H420.266V345.74Z" fill="#F0F0F0"/>
<path d="M414.626 280.243H411.081V283.791H414.626V280.243Z" fill="#F0F0F0"/>
<path d="M414.626 286.185H411.081V289.734H414.626V286.185Z" fill="#F0F0F0"/>
<path d="M414.626 292.142H411.081V295.691H414.626V292.142Z" fill="#F0F0F0"/>
<path d="M414.626 298.099H411.081V301.648H414.626V298.099Z" fill="#F0F0F0"/>
<path d="M414.626 304.056H411.081V307.604H414.626V304.056Z" fill="#F0F0F0"/>
<path d="M414.626 310.013H411.081V313.561H414.626V310.013Z" fill="#F0F0F0"/>
<path d="M414.626 315.969H411.081V319.518H414.626V315.969Z" fill="#F0F0F0"/>
<path d="M408.987 280.243H405.441V283.791H408.987V280.243Z" fill="#F0F0F0"/>
<path d="M408.987 286.185H405.441V289.734H408.987V286.185Z" fill="#F0F0F0"/>
<path d="M408.987 292.142H405.441V295.691H408.987V292.142Z" fill="#F0F0F0"/>
<path d="M408.987 298.099H405.441V301.648H408.987V298.099Z" fill="#F0F0F0"/>
<path d="M408.987 304.056H405.441V307.604H408.987V304.056Z" fill="#F0F0F0"/>
<path d="M408.987 310.013H405.441V313.561H408.987V310.013Z" fill="#F0F0F0"/>
<path d="M408.987 315.969H405.441V319.518H408.987V315.969Z" fill="#F0F0F0"/>
<path d="M403.348 280.243H399.803V283.791H403.348V280.243Z" fill="#F0F0F0"/>
<path d="M403.348 286.185H399.803V289.734H403.348V286.185Z" fill="#F0F0F0"/>
<path d="M403.348 292.142H399.803V295.691H403.348V292.142Z" fill="#F0F0F0"/>
<path d="M403.348 298.099H399.803V301.648H403.348V298.099Z" fill="#F0F0F0"/>
<path d="M403.348 304.056H399.803V307.604H403.348V304.056Z" fill="#F0F0F0"/>
<path d="M403.348 310.013H399.803V313.561H403.348V310.013Z" fill="#F0F0F0"/>
<path d="M403.348 315.969H399.803V319.518H403.348V315.969Z" fill="#F0F0F0"/>
<path d="M403.348 321.926H399.803V325.475H403.348V321.926Z" fill="#F0F0F0"/>
<path d="M403.348 327.883H399.803V331.432H403.348V327.883Z" fill="#F0F0F0"/>
<path d="M403.348 333.84H399.803V337.388H403.348V333.84Z" fill="#F0F0F0"/>
<path d="M403.348 339.783H399.803V343.331H403.348V339.783Z" fill="#F0F0F0"/>
<path d="M397.709 280.243H394.164V283.791H397.709V280.243Z" fill="#F0F0F0"/>
<path d="M397.709 286.185H394.164V289.734H397.709V286.185Z" fill="#F0F0F0"/>
<path d="M397.709 292.142H394.164V295.691H397.709V292.142Z" fill="#F0F0F0"/>
<path d="M397.709 298.099H394.164V301.648H397.709V298.099Z" fill="#F0F0F0"/>
<path d="M397.709 304.056H394.164V307.604H397.709V304.056Z" fill="#F0F0F0"/>
<path d="M397.709 310.013H394.164V313.561H397.709V310.013Z" fill="#F0F0F0"/>
<path d="M397.709 315.969H394.164V319.518H397.709V315.969Z" fill="#F0F0F0"/>
<path d="M397.709 321.926H394.164V325.475H397.709V321.926Z" fill="#F0F0F0"/>
<path d="M397.709 327.883H394.164V331.432H397.709V327.883Z" fill="#F0F0F0"/>
<path d="M397.709 333.84H394.164V337.388H397.709V333.84Z" fill="#F0F0F0"/>
<path d="M397.709 339.783H394.164V343.331H397.709V339.783Z" fill="#F0F0F0"/>
<path d="M397.709 345.74H394.164V349.288H397.709V345.74Z" fill="#F0F0F0"/>
<path d="M397.709 363.61H394.164V367.159H397.709V363.61Z" fill="#F0F0F0"/>
<path d="M397.709 369.567H394.164V373.115H397.709V369.567Z" fill="#F0F0F0"/>
<path d="M392.07 280.243H388.524V283.791H392.07V280.243Z" fill="#F0F0F0"/>
<path d="M392.07 286.185H388.524V289.734H392.07V286.185Z" fill="#F0F0F0"/>
<path d="M392.07 292.142H388.524V295.691H392.07V292.142Z" fill="#F0F0F0"/>
<path d="M392.07 310.013H388.524V313.561H392.07V310.013Z" fill="#F0F0F0"/>
<path d="M392.07 315.969H388.524V319.518H392.07V315.969Z" fill="#F0F0F0"/>
<path d="M392.07 321.926H388.524V325.475H392.07V321.926Z" fill="#F0F0F0"/>
<path d="M392.07 327.883H388.524V331.432H392.07V327.883Z" fill="#F0F0F0"/>
<path d="M392.07 333.84H388.524V337.388H392.07V333.84Z" fill="#F0F0F0"/>
<path d="M392.07 339.783H388.524V343.331H392.07V339.783Z" fill="#F0F0F0"/>
<path d="M392.07 345.74H388.524V349.288H392.07V345.74Z" fill="#F0F0F0"/>
<path d="M392.07 363.61H388.524V367.159H392.07V363.61Z" fill="#F0F0F0"/>
<path d="M392.07 369.567H388.524V373.115H392.07V369.567Z" fill="#F0F0F0"/>
<path d="M392.07 375.524H388.524V379.072H392.07V375.524Z" fill="#F0F0F0"/>
<path d="M332.989 244.502H329.443V248.05H332.989V244.502Z" fill="#F0F0F0"/>
<path d="M332.989 250.458H329.443V254.007H332.989V250.458Z" fill="#F0F0F0"/>
<path d="M332.989 256.415H329.443V259.964H332.989V256.415Z" fill="#F0F0F0"/>
<path d="M332.989 262.372H329.443V265.921H332.989V262.372Z" fill="#F0F0F0"/>
<path d="M332.989 268.329H329.443V271.878H332.989V268.329Z" fill="#F0F0F0"/>
<path d="M332.989 274.286H329.443V277.834H332.989V274.286Z" fill="#F0F0F0"/>
<path d="M332.989 280.243H329.443V283.791H332.989V280.243Z" fill="#F0F0F0"/>
<path d="M332.989 286.185H329.443V289.734H332.989V286.185Z" fill="#F0F0F0"/>
<path d="M332.989 292.142H329.443V295.691H332.989V292.142Z" fill="#F0F0F0"/>
<path d="M332.989 298.099H329.443V301.648H332.989V298.099Z" fill="#F0F0F0"/>
<path d="M332.989 304.056H329.443V307.604H332.989V304.056Z" fill="#F0F0F0"/>
<path d="M332.989 310.013H329.443V313.561H332.989V310.013Z" fill="#F0F0F0"/>
<path d="M332.989 315.969H329.443V319.518H332.989V315.969Z" fill="#F0F0F0"/>
<path d="M332.989 321.926H329.443V325.475H332.989V321.926Z" fill="#F0F0F0"/>
<path d="M332.989 327.883H329.443V331.432H332.989V327.883Z" fill="#F0F0F0"/>
<path d="M332.989 333.84H329.443V337.388H332.989V333.84Z" fill="#F0F0F0"/>
<path d="M332.989 339.783H329.443V343.331H332.989V339.783Z" fill="#F0F0F0"/>
<path d="M332.989 345.74H329.443V349.288H332.989V345.74Z" fill="#F0F0F0"/>
<path d="M332.989 351.696H329.443V355.245H332.989V351.696Z" fill="#F0F0F0"/>
<path d="M332.989 357.653H329.443V361.202H332.989V357.653Z" fill="#F0F0F0"/>
<path d="M332.989 363.61H329.443V367.159H332.989V363.61Z" fill="#F0F0F0"/>
<path d="M332.989 369.567H329.443V373.115H332.989V369.567Z" fill="#F0F0F0"/>
<path d="M332.989 375.524H329.443V379.072H332.989V375.524Z" fill="#F0F0F0"/>
<path d="M327.349 244.502H323.804V248.05H327.349V244.502Z" fill="#F0F0F0"/>
<path d="M327.349 250.458H323.804V254.007H327.349V250.458Z" fill="#F0F0F0"/>
<path d="M327.349 256.415H323.804V259.964H327.349V256.415Z" fill="#F0F0F0"/>
<path d="M327.349 262.372H323.804V265.921H327.349V262.372Z" fill="#F0F0F0"/>
<path d="M327.349 268.329H323.804V271.878H327.349V268.329Z" fill="#F0F0F0"/>
<path d="M327.349 274.286H323.804V277.834H327.349V274.286Z" fill="#F0F0F0"/>
<path d="M327.349 280.243H323.804V283.791H327.349V280.243Z" fill="#F0F0F0"/>
<path d="M327.349 286.185H323.804V289.734H327.349V286.185Z" fill="#F0F0F0"/>
<path d="M327.349 292.142H323.804V295.691H327.349V292.142Z" fill="#F0F0F0"/>
<path d="M327.349 298.099H323.804V301.648H327.349V298.099Z" fill="#F0F0F0"/>
<path d="M327.349 304.056H323.804V307.604H327.349V304.056Z" fill="#F0F0F0"/>
<path d="M327.349 310.013H323.804V313.561H327.349V310.013Z" fill="#F0F0F0"/>
<path d="M327.349 315.969H323.804V319.518H327.349V315.969Z" fill="#F0F0F0"/>
<path d="M327.349 321.926H323.804V325.475H327.349V321.926Z" fill="#F0F0F0"/>
<path d="M327.349 327.883H323.804V331.432H327.349V327.883Z" fill="#F0F0F0"/>
<path d="M327.349 333.84H323.804V337.388H327.349V333.84Z" fill="#F0F0F0"/>
<path d="M327.349 339.783H323.804V343.331H327.349V339.783Z" fill="#F0F0F0"/>
<path d="M327.349 345.74H323.804V349.288H327.349V345.74Z" fill="#F0F0F0"/>
<path d="M327.349 351.696H323.804V355.245H327.349V351.696Z" fill="#F0F0F0"/>
<path d="M321.71 244.502H318.165V248.05H321.71V244.502Z" fill="#F0F0F0"/>
<path d="M321.71 250.458H318.165V254.007H321.71V250.458Z" fill="#F0F0F0"/>
<path d="M321.71 256.415H318.165V259.964H321.71V256.415Z" fill="#F0F0F0"/>
<path d="M321.71 262.372H318.165V265.921H321.71V262.372Z" fill="#F0F0F0"/>
<path d="M321.71 268.329H318.165V271.878H321.71V268.329Z" fill="#F0F0F0"/>
<path d="M321.71 274.286H318.165V277.834H321.71V274.286Z" fill="#F0F0F0"/>
<path d="M321.71 280.243H318.165V283.791H321.71V280.243Z" fill="#F0F0F0"/>
<path d="M321.71 286.185H318.165V289.734H321.71V286.185Z" fill="#F0F0F0"/>
<path d="M321.71 292.142H318.165V295.691H321.71V292.142Z" fill="#F0F0F0"/>
<path d="M321.71 298.099H318.165V301.648H321.71V298.099Z" fill="#F0F0F0"/>
<path d="M321.71 304.056H318.165V307.604H321.71V304.056Z" fill="#F0F0F0"/>
<path d="M321.71 310.013H318.165V313.561H321.71V310.013Z" fill="#F0F0F0"/>
<path d="M321.71 315.969H318.165V319.518H321.71V315.969Z" fill="#F0F0F0"/>
<path d="M321.71 321.926H318.165V325.475H321.71V321.926Z" fill="#F0F0F0"/>
<path d="M321.71 327.883H318.165V331.432H321.71V327.883Z" fill="#F0F0F0"/>
<path d="M321.71 333.84H318.165V337.388H321.71V333.84Z" fill="#F0F0F0"/>
<path d="M321.71 339.783H318.165V343.331H321.71V339.783Z" fill="#F0F0F0"/>
<path d="M321.71 345.74H318.165V349.288H321.71V345.74Z" fill="#F0F0F0"/>
<path d="M321.71 351.696H318.165V355.245H321.71V351.696Z" fill="#F0F0F0"/>
<path d="M316.071 244.502H312.525V248.05H316.071V244.502Z" fill="#F0F0F0"/>
<path d="M316.071 250.458H312.525V254.007H316.071V250.458Z" fill="#F0F0F0"/>
<path d="M316.071 256.415H312.525V259.964H316.071V256.415Z" fill="#F0F0F0"/>
<path d="M316.071 262.372H312.525V265.921H316.071V262.372Z" fill="#F0F0F0"/>
<path d="M316.071 268.329H312.525V271.878H316.071V268.329Z" fill="#F0F0F0"/>
<path d="M316.071 274.286H312.525V277.834H316.071V274.286Z" fill="#F0F0F0"/>
<path d="M316.071 280.243H312.525V283.791H316.071V280.243Z" fill="#F0F0F0"/>
<path d="M316.071 286.185H312.525V289.734H316.071V286.185Z" fill="#F0F0F0"/>
<path d="M316.071 292.142H312.525V295.691H316.071V292.142Z" fill="#F0F0F0"/>
<path d="M316.071 298.099H312.525V301.648H316.071V298.099Z" fill="#F0F0F0"/>
<path d="M316.071 304.056H312.525V307.604H316.071V304.056Z" fill="#F0F0F0"/>
<path d="M316.071 310.013H312.525V313.561H316.071V310.013Z" fill="#F0F0F0"/>
<path d="M316.071 315.969H312.525V319.518H316.071V315.969Z" fill="#F0F0F0"/>
<path d="M316.071 321.926H312.525V325.475H316.071V321.926Z" fill="#F0F0F0"/>
<path d="M316.071 327.883H312.525V331.432H316.071V327.883Z" fill="#F0F0F0"/>
<path d="M310.432 244.502H306.887V248.05H310.432V244.502Z" fill="#F0F0F0"/>
<path d="M310.432 250.458H306.887V254.007H310.432V250.458Z" fill="#F0F0F0"/>
<path d="M310.432 256.415H306.887V259.964H310.432V256.415Z" fill="#F0F0F0"/>
<path d="M310.432 262.372H306.887V265.921H310.432V262.372Z" fill="#F0F0F0"/>
<path d="M310.432 268.329H306.887V271.878H310.432V268.329Z" fill="#F0F0F0"/>
<path d="M310.432 274.286H306.887V277.834H310.432V274.286Z" fill="#F0F0F0"/>
<path d="M310.432 280.243H306.887V283.791H310.432V280.243Z" fill="#F0F0F0"/>
<path d="M310.432 286.185H306.887V289.734H310.432V286.185Z" fill="#F0F0F0"/>
<path d="M310.432 292.142H306.887V295.691H310.432V292.142Z" fill="#F0F0F0"/>
<path d="M310.432 298.099H306.887V301.648H310.432V298.099Z" fill="#F0F0F0"/>
<path d="M310.432 304.056H306.887V307.604H310.432V304.056Z" fill="#F0F0F0"/>
<path d="M310.432 310.013H306.887V313.561H310.432V310.013Z" fill="#F0F0F0"/>
<path d="M310.432 315.969H306.887V319.518H310.432V315.969Z" fill="#F0F0F0"/>
<path d="M304.793 244.502H301.248V248.05H304.793V244.502Z" fill="#F0F0F0"/>
<path d="M304.793 250.458H301.248V254.007H304.793V250.458Z" fill="#F0F0F0"/>
<path d="M304.793 256.415H301.248V259.964H304.793V256.415Z" fill="#F0F0F0"/>
<path d="M304.793 262.372H301.248V265.921H304.793V262.372Z" fill="#F0F0F0"/>
<path d="M304.793 268.329H301.248V271.878H304.793V268.329Z" fill="#F0F0F0"/>
<path d="M304.793 274.286H301.248V277.834H304.793V274.286Z" fill="#F0F0F0"/>
<path d="M304.793 280.243H301.248V283.791H304.793V280.243Z" fill="#F0F0F0"/>
<path d="M304.793 286.185H301.248V289.734H304.793V286.185Z" fill="#F0F0F0"/>
<path d="M304.793 292.142H301.248V295.691H304.793V292.142Z" fill="#F0F0F0"/>
<path d="M304.793 298.099H301.248V301.648H304.793V298.099Z" fill="#F0F0F0"/>
<path d="M304.793 304.056H301.248V307.604H304.793V304.056Z" fill="#F0F0F0"/>
<path d="M304.793 310.013H301.248V313.561H304.793V310.013Z" fill="#F0F0F0"/>
<path d="M633.866 242.72H630.32V246.269H633.866V242.72Z" fill="#F0F0F0"/>
<path d="M633.866 248.677H630.32V252.226H633.866V248.677Z" fill="#F0F0F0"/>
<path d="M633.866 254.634H630.32V258.182H633.866V254.634Z" fill="#F0F0F0"/>
<path d="M633.866 260.591H630.32V264.139H633.866V260.591Z" fill="#F0F0F0"/>
<path d="M633.866 266.548H630.32V270.096H633.866V266.548Z" fill="#F0F0F0"/>
<path d="M633.866 272.505H630.32V276.053H633.866V272.505Z" fill="#F0F0F0"/>
<path d="M633.866 278.461H630.32V282.01H633.866V278.461Z" fill="#F0F0F0"/>
<path d="M633.866 284.418H630.32V287.967H633.866V284.418Z" fill="#F0F0F0"/>
<path d="M633.866 290.375H630.32V293.923H633.866V290.375Z" fill="#F0F0F0"/>
<path d="M633.866 296.332H630.32V299.88H633.866V296.332Z" fill="#F0F0F0"/>
<path d="M633.866 302.274H630.32V305.823H633.866V302.274Z" fill="#F0F0F0"/>
<path d="M633.866 308.231H630.32V311.78H633.866V308.231Z" fill="#F0F0F0"/>
<path d="M633.866 314.188H630.32V317.737H633.866V314.188Z" fill="#F0F0F0"/>
<path d="M633.866 320.145H630.32V323.694H633.866V320.145Z" fill="#F0F0F0"/>
<path d="M633.866 326.102H630.32V329.65H633.866V326.102Z" fill="#F0F0F0"/>
<path d="M633.866 332.059H630.32V335.607H633.866V332.059Z" fill="#F0F0F0"/>
<path d="M633.866 338.016H630.32V341.564H633.866V338.016Z" fill="#F0F0F0"/>
<path d="M633.866 349.929H630.32V353.478H633.866V349.929Z" fill="#F0F0F0"/>
<path d="M633.866 355.886H630.32V359.434H633.866V355.886Z" fill="#F0F0F0"/>
<path d="M633.866 361.829H630.32V365.377H633.866V361.829Z" fill="#F0F0F0"/>
<path d="M633.866 367.786H630.32V371.334H633.866V367.786Z" fill="#F0F0F0"/>
<path d="M633.866 373.742H630.32V377.291H633.866V373.742Z" fill="#F0F0F0"/>
<path d="M628.226 242.72H624.681V246.269H628.226V242.72Z" fill="#F0F0F0"/>
<path d="M628.226 248.677H624.681V252.226H628.226V248.677Z" fill="#F0F0F0"/>
<path d="M628.226 254.634H624.681V258.182H628.226V254.634Z" fill="#F0F0F0"/>
<path d="M628.226 260.591H624.681V264.139H628.226V260.591Z" fill="#F0F0F0"/>
<path d="M628.226 266.548H624.681V270.096H628.226V266.548Z" fill="#F0F0F0"/>
<path d="M628.226 272.505H624.681V276.053H628.226V272.505Z" fill="#F0F0F0"/>
<path d="M628.226 278.461H624.681V282.01H628.226V278.461Z" fill="#F0F0F0"/>
<path d="M628.226 284.418H624.681V287.967H628.226V284.418Z" fill="#F0F0F0"/>
<path d="M628.226 290.375H624.681V293.923H628.226V290.375Z" fill="#F0F0F0"/>
<path d="M628.226 296.332H624.681V299.88H628.226V296.332Z" fill="#F0F0F0"/>
<path d="M628.226 302.274H624.681V305.823H628.226V302.274Z" fill="#F0F0F0"/>
<path d="M628.226 308.231H624.681V311.78H628.226V308.231Z" fill="#F0F0F0"/>
<path d="M628.226 314.188H624.681V317.737H628.226V314.188Z" fill="#F0F0F0"/>
<path d="M628.226 320.145H624.681V323.694H628.226V320.145Z" fill="#F0F0F0"/>
<path d="M628.226 326.102H624.681V329.65H628.226V326.102Z" fill="#F0F0F0"/>
<path d="M628.226 332.059H624.681V335.607H628.226V332.059Z" fill="#F0F0F0"/>
<path d="M628.226 367.786H624.681V371.334H628.226V367.786Z" fill="#F0F0F0"/>
<path d="M628.226 373.742H624.681V377.291H628.226V373.742Z" fill="#F0F0F0"/>
<path d="M622.602 242.72H619.056V246.269H622.602V242.72Z" fill="#F0F0F0"/>
<path d="M622.602 248.677H619.056V252.226H622.602V248.677Z" fill="#F0F0F0"/>
<path d="M622.602 254.634H619.056V258.182H622.602V254.634Z" fill="#F0F0F0"/>
<path d="M622.602 260.591H619.056V264.139H622.602V260.591Z" fill="#F0F0F0"/>
<path d="M622.602 266.548H619.056V270.096H622.602V266.548Z" fill="#F0F0F0"/>
<path d="M622.602 272.505H619.056V276.053H622.602V272.505Z" fill="#F0F0F0"/>
<path d="M622.602 278.461H619.056V282.01H622.602V278.461Z" fill="#F0F0F0"/>
<path d="M622.602 284.418H619.056V287.967H622.602V284.418Z" fill="#F0F0F0"/>
<path d="M622.602 290.375H619.056V293.923H622.602V290.375Z" fill="#F0F0F0"/>
<path d="M622.602 296.332H619.056V299.88H622.602V296.332Z" fill="#F0F0F0"/>
<path d="M622.602 302.274H619.056V305.823H622.602V302.274Z" fill="#F0F0F0"/>
<path d="M622.602 308.231H619.056V311.78H622.602V308.231Z" fill="#F0F0F0"/>
<path d="M622.602 314.188H619.056V317.737H622.602V314.188Z" fill="#F0F0F0"/>
<path d="M622.602 320.145H619.056V323.694H622.602V320.145Z" fill="#F0F0F0"/>
<path d="M622.602 326.102H619.056V329.65H622.602V326.102Z" fill="#F0F0F0"/>
<path d="M622.602 332.059H619.056V335.607H622.602V332.059Z" fill="#F0F0F0"/>
<path d="M622.602 343.972H619.056V347.521H622.602V343.972Z" fill="#F0F0F0"/>
<path d="M622.602 349.929H619.056V353.478H622.602V349.929Z" fill="#F0F0F0"/>
<path d="M622.602 355.886H619.056V359.434H622.602V355.886Z" fill="#F0F0F0"/>
<path d="M622.602 361.829H619.056V365.377H622.602V361.829Z" fill="#F0F0F0"/>
<path d="M622.602 373.742H619.056V377.291H622.602V373.742Z" fill="#F0F0F0"/>
<path d="M524.246 284.418H520.7V287.967H524.246V284.418Z" fill="#F0F0F0"/>
<path d="M524.246 290.375H520.7V293.923H524.246V290.375Z" fill="#F0F0F0"/>
<path d="M524.246 296.332H520.7V299.88H524.246V296.332Z" fill="#F0F0F0"/>
<path d="M524.246 302.274H520.7V305.823H524.246V302.274Z" fill="#F0F0F0"/>
<path d="M524.246 308.231H520.7V311.78H524.246V308.231Z" fill="#F0F0F0"/>
<path d="M524.246 314.188H520.7V317.737H524.246V314.188Z" fill="#F0F0F0"/>
<path d="M524.246 320.145H520.7V323.694H524.246V320.145Z" fill="#F0F0F0"/>
<path d="M524.246 326.102H520.7V329.65H524.246V326.102Z" fill="#F0F0F0"/>
<path d="M524.246 332.059H520.7V335.607H524.246V332.059Z" fill="#F0F0F0"/>
<path d="M524.246 338.016H520.7V341.564H524.246V338.016Z" fill="#F0F0F0"/>
<path d="M524.246 343.972H520.7V347.521H524.246V343.972Z" fill="#F0F0F0"/>
<path d="M524.246 349.929H520.7V353.478H524.246V349.929Z" fill="#F0F0F0"/>
<path d="M524.246 355.886H520.7V359.434H524.246V355.886Z" fill="#F0F0F0"/>
<path d="M524.246 367.786H520.7V371.334H524.246V367.786Z" fill="#F0F0F0"/>
<path d="M524.246 373.742H520.7V377.291H524.246V373.742Z" fill="#F0F0F0"/>
<path d="M524.246 379.699H520.7V383.248H524.246V379.699Z" fill="#F0F0F0"/>
<path d="M524.246 385.656H520.7V389.204H524.246V385.656Z" fill="#F0F0F0"/>
<path d="M524.246 397.57H520.7V401.118H524.246V397.57Z" fill="#F0F0F0"/>
<path d="M524.246 403.527H520.7V407.075H524.246V403.527Z" fill="#F0F0F0"/>
<path d="M524.246 409.483H520.7V413.032H524.246V409.483Z" fill="#F0F0F0"/>
<path d="M518.607 284.418H515.061V287.967H518.607V284.418Z" fill="#F0F0F0"/>
<path d="M518.607 290.375H515.061V293.923H518.607V290.375Z" fill="#F0F0F0"/>
<path d="M518.607 296.332H515.061V299.88H518.607V296.332Z" fill="#F0F0F0"/>
<path d="M518.607 302.274H515.061V305.823H518.607V302.274Z" fill="#F0F0F0"/>
<path d="M518.607 308.231H515.061V311.78H518.607V308.231Z" fill="#F0F0F0"/>
<path d="M518.607 314.188H515.061V317.737H518.607V314.188Z" fill="#F0F0F0"/>
<path d="M518.607 320.145H515.061V323.694H518.607V320.145Z" fill="#F0F0F0"/>
<path d="M518.607 326.102H515.061V329.65H518.607V326.102Z" fill="#F0F0F0"/>
<path d="M518.607 332.059H515.061V335.607H518.607V332.059Z" fill="#F0F0F0"/>
<path d="M518.607 338.016H515.061V341.564H518.607V338.016Z" fill="#F0F0F0"/>
<path d="M518.607 343.972H515.061V347.521H518.607V343.972Z" fill="#F0F0F0"/>
<path d="M518.607 349.929H515.061V353.478H518.607V349.929Z" fill="#F0F0F0"/>
<path d="M518.607 355.886H515.061V359.434H518.607V355.886Z" fill="#F0F0F0"/>
<path d="M518.607 373.742H515.061V377.291H518.607V373.742Z" fill="#F0F0F0"/>
<path d="M518.607 379.699H515.061V383.248H518.607V379.699Z" fill="#F0F0F0"/>
<path d="M518.607 391.613H515.061V395.162H518.607V391.613Z" fill="#F0F0F0"/>
<path d="M518.607 397.57H515.061V401.118H518.607V397.57Z" fill="#F0F0F0"/>
<path d="M518.607 403.527H515.061V407.075H518.607V403.527Z" fill="#F0F0F0"/>
<path d="M518.607 409.483H515.061V413.032H518.607V409.483Z" fill="#F0F0F0"/>
<path d="M512.968 284.418H509.422V287.967H512.968V284.418Z" fill="#F0F0F0"/>
<path d="M512.968 290.375H509.422V293.923H512.968V290.375Z" fill="#F0F0F0"/>
<path d="M512.968 296.332H509.422V299.88H512.968V296.332Z" fill="#F0F0F0"/>
<path d="M512.968 302.274H509.422V305.823H512.968V302.274Z" fill="#F0F0F0"/>
<path d="M512.968 308.231H509.422V311.78H512.968V308.231Z" fill="#F0F0F0"/>
<path d="M512.968 314.188H509.422V317.737H512.968V314.188Z" fill="#F0F0F0"/>
<path d="M512.968 320.145H509.422V323.694H512.968V320.145Z" fill="#F0F0F0"/>
<path d="M512.968 326.102H509.422V329.65H512.968V326.102Z" fill="#F0F0F0"/>
<path d="M512.968 332.059H509.422V335.607H512.968V332.059Z" fill="#F0F0F0"/>
<path d="M512.968 338.016H509.422V341.564H512.968V338.016Z" fill="#F0F0F0"/>
<path d="M512.968 343.972H509.422V347.521H512.968V343.972Z" fill="#F0F0F0"/>
<path d="M512.968 349.929H509.422V353.478H512.968V349.929Z" fill="#F0F0F0"/>
<path d="M512.968 355.886H509.422V359.434H512.968V355.886Z" fill="#F0F0F0"/>
<path d="M512.968 361.829H509.422V365.377H512.968V361.829Z" fill="#F0F0F0"/>
<path d="M512.968 373.742H509.422V377.291H512.968V373.742Z" fill="#F0F0F0"/>
<path d="M512.968 385.656H509.422V389.204H512.968V385.656Z" fill="#F0F0F0"/>
<path d="M512.968 391.613H509.422V395.162H512.968V391.613Z" fill="#F0F0F0"/>
<path d="M512.968 397.57H509.422V401.118H512.968V397.57Z" fill="#F0F0F0"/>
<path d="M512.968 403.527H509.422V407.075H512.968V403.527Z" fill="#F0F0F0"/>
<path d="M512.968 409.483H509.422V413.032H512.968V409.483Z" fill="#F0F0F0"/>
<path d="M547.215 318.378H543.669V321.926H547.215V318.378Z" fill="#F0F0F0"/>
<path d="M547.215 324.321H543.669V327.869H547.215V324.321Z" fill="#F0F0F0"/>
<path d="M547.215 330.277H543.669V333.826H547.215V330.277Z" fill="#F0F0F0"/>
<path d="M547.215 336.234H543.669V339.783H547.215V336.234Z" fill="#F0F0F0"/>
<path d="M547.215 342.191H543.669V345.74H547.215V342.191Z" fill="#F0F0F0"/>
<path d="M547.215 348.148H543.669V351.696H547.215V348.148Z" fill="#F0F0F0"/>
<path d="M547.215 366.019H543.669V369.567H547.215V366.019Z" fill="#F0F0F0"/>
<path d="M547.215 371.975H543.669V375.524H547.215V371.975Z" fill="#F0F0F0"/>
<path d="M547.215 377.918H543.669V381.466H547.215V377.918Z" fill="#F0F0F0"/>
<path d="M547.215 383.875H543.669V387.423H547.215V383.875Z" fill="#F0F0F0"/>
<path d="M547.215 389.832H543.669V393.38H547.215V389.832Z" fill="#F0F0F0"/>
<path d="M547.215 395.788H543.669V399.337H547.215V395.788Z" fill="#F0F0F0"/>
<path d="M547.215 401.745H543.669V405.294H547.215V401.745Z" fill="#F0F0F0"/>
<path d="M541.576 318.378H538.03V321.926H541.576V318.378Z" fill="#F0F0F0"/>
<path d="M541.576 324.321H538.03V327.869H541.576V324.321Z" fill="#F0F0F0"/>
<path d="M541.576 330.277H538.03V333.826H541.576V330.277Z" fill="#F0F0F0"/>
<path d="M541.576 336.234H538.03V339.783H541.576V336.234Z" fill="#F0F0F0"/>
<path d="M541.576 342.191H538.03V345.74H541.576V342.191Z" fill="#F0F0F0"/>
<path d="M541.576 348.148H538.03V351.696H541.576V348.148Z" fill="#F0F0F0"/>
<path d="M541.576 366.019H538.03V369.567H541.576V366.019Z" fill="#F0F0F0"/>
<path d="M541.576 371.975H538.03V375.524H541.576V371.975Z" fill="#F0F0F0"/>
<path d="M541.576 377.918H538.03V381.466H541.576V377.918Z" fill="#F0F0F0"/>
<path d="M541.576 383.875H538.03V387.423H541.576V383.875Z" fill="#F0F0F0"/>
<path d="M541.576 389.832H538.03V393.38H541.576V389.832Z" fill="#F0F0F0"/>
<path d="M541.576 395.788H538.03V399.337H541.576V395.788Z" fill="#F0F0F0"/>
<path d="M541.576 407.702H538.03V411.251H541.576V407.702Z" fill="#F0F0F0"/>
<path d="M354.277 292.142H350.731V295.691H354.277V292.142Z" fill="#F0F0F0"/>
<path d="M354.277 298.099H350.731V301.648H354.277V298.099Z" fill="#F0F0F0"/>
<path d="M354.277 304.056H350.731V307.604H354.277V304.056Z" fill="#F0F0F0"/>
<path d="M354.277 310.013H350.731V313.561H354.277V310.013Z" fill="#F0F0F0"/>
<path d="M354.277 315.969H350.731V319.518H354.277V315.969Z" fill="#F0F0F0"/>
<path d="M354.277 321.926H350.731V325.475H354.277V321.926Z" fill="#F0F0F0"/>
<path d="M354.277 327.883H350.731V331.432H354.277V327.883Z" fill="#F0F0F0"/>
<path d="M354.277 333.84H350.731V337.388H354.277V333.84Z" fill="#F0F0F0"/>
<path d="M354.277 339.783H350.731V343.331H354.277V339.783Z" fill="#F0F0F0"/>
<path d="M354.277 345.74H350.731V349.288H354.277V345.74Z" fill="#F0F0F0"/>
<path d="M354.277 351.696H350.731V355.245H354.277V351.696Z" fill="#F0F0F0"/>
<path d="M354.277 363.61H350.731V367.159H354.277V363.61Z" fill="#F0F0F0"/>
<path d="M354.277 369.567H350.731V373.115H354.277V369.567Z" fill="#F0F0F0"/>
<path d="M354.277 375.524H350.731V379.072H354.277V375.524Z" fill="#F0F0F0"/>
<path d="M354.277 381.48H350.731V385.029H354.277V381.48Z" fill="#F0F0F0"/>
<path d="M354.277 387.438H350.731V390.986H354.277V387.438Z" fill="#F0F0F0"/>
<path d="M354.277 393.394H350.731V396.943H354.277V393.394Z" fill="#F0F0F0"/>
<path d="M354.277 399.337H350.731V402.885H354.277V399.337Z" fill="#F0F0F0"/>
<path d="M354.277 405.294H350.731V408.842H354.277V405.294Z" fill="#F0F0F0"/>
<path d="M348.653 292.142H345.107V295.691H348.653V292.142Z" fill="#F0F0F0"/>
<path d="M348.653 298.099H345.107V301.648H348.653V298.099Z" fill="#F0F0F0"/>
<path d="M348.653 304.056H345.107V307.604H348.653V304.056Z" fill="#F0F0F0"/>
<path d="M348.653 310.013H345.107V313.561H348.653V310.013Z" fill="#F0F0F0"/>
<path d="M348.653 315.969H345.107V319.518H348.653V315.969Z" fill="#F0F0F0"/>
<path d="M348.653 321.926H345.107V325.475H348.653V321.926Z" fill="#F0F0F0"/>
<path d="M348.653 327.883H345.107V331.432H348.653V327.883Z" fill="#F0F0F0"/>
<path d="M348.653 333.84H345.107V337.388H348.653V333.84Z" fill="#F0F0F0"/>
<path d="M348.653 339.783H345.107V343.331H348.653V339.783Z" fill="#F0F0F0"/>
<path d="M348.653 345.74H345.107V349.288H348.653V345.74Z" fill="#F0F0F0"/>
<path d="M348.653 351.696H345.107V355.245H348.653V351.696Z" fill="#F0F0F0"/>
<path d="M348.653 357.653H345.107V361.202H348.653V357.653Z" fill="#F0F0F0"/>
<path d="M348.653 363.61H345.107V367.159H348.653V363.61Z" fill="#F0F0F0"/>
<path d="M348.653 369.567H345.107V373.115H348.653V369.567Z" fill="#F0F0F0"/>
<path d="M348.653 375.524H345.107V379.072H348.653V375.524Z" fill="#F0F0F0"/>
<path d="M348.653 381.48H345.107V385.029H348.653V381.48Z" fill="#F0F0F0"/>
<path d="M348.653 387.438H345.107V390.986H348.653V387.438Z" fill="#F0F0F0"/>
<path d="M348.653 393.394H345.107V396.943H348.653V393.394Z" fill="#F0F0F0"/>
<path d="M348.653 399.337H345.107V402.885H348.653V399.337Z" fill="#F0F0F0"/>
<path d="M348.653 405.294H345.107V408.842H348.653V405.294Z" fill="#F0F0F0"/>
<path d="M382.059 315.343H378.514V318.891H382.059V315.343Z" fill="#F0F0F0"/>
<path d="M382.059 321.3H378.514V324.848H382.059V321.3Z" fill="#F0F0F0"/>
<path d="M382.059 327.256H378.514V330.805H382.059V327.256Z" fill="#F0F0F0"/>
<path d="M382.059 333.213H378.514V336.761H382.059V333.213Z" fill="#F0F0F0"/>
<path d="M382.059 339.156H378.514V342.704H382.059V339.156Z" fill="#F0F0F0"/>
<path d="M382.059 345.113H378.514V348.661H382.059V345.113Z" fill="#F0F0F0"/>
<path d="M382.059 351.069H378.514V354.618H382.059V351.069Z" fill="#F0F0F0"/>
<path d="M382.059 357.026H378.514V360.575H382.059V357.026Z" fill="#F0F0F0"/>
<path d="M382.059 362.983H378.514V366.531H382.059V362.983Z" fill="#F0F0F0"/>
<path d="M382.059 368.94H378.514V372.488H382.059V368.94Z" fill="#F0F0F0"/>
<path d="M376.421 315.343H372.875V318.891H376.421V315.343Z" fill="#F0F0F0"/>
<path d="M376.421 321.3H372.875V324.848H376.421V321.3Z" fill="#F0F0F0"/>
<path d="M376.421 327.256H372.875V330.805H376.421V327.256Z" fill="#F0F0F0"/>
<path d="M376.421 333.213H372.875V336.761H376.421V333.213Z" fill="#F0F0F0"/>
<path d="M376.421 339.156H372.875V342.704H376.421V339.156Z" fill="#F0F0F0"/>
<path d="M376.421 345.113H372.875V348.661H376.421V345.113Z" fill="#F0F0F0"/>
<path d="M376.421 351.069H372.875V354.618H376.421V351.069Z" fill="#F0F0F0"/>
<path d="M376.421 357.026H372.875V360.575H376.421V357.026Z" fill="#F0F0F0"/>
<path d="M376.421 362.983H372.875V366.531H376.421V362.983Z" fill="#F0F0F0"/>
<path d="M409.956 89.3386H404.003V421.497H409.956V89.3386Z" fill="#E0E0E0"/>
<path d="M522.039 89.3386H516.086V421.497H522.039V89.3386Z" fill="#E0E0E0"/>
<path d="M634.108 89.3386H628.155V421.497H634.108V89.3386Z" fill="#E0E0E0"/>
<path d="M253.487 466.472H204.23V395.46C204.23 391.997 207.036 389.176 210.51 389.176H247.221C250.681 389.176 253.501 391.983 253.501 395.46V466.472H253.487Z" fill="#F0F0F0"/>
<path d="M253.487 399.622H204.23V405.165H253.487V399.622Z" fill="#E6E6E6"/>
<path d="M244.501 457.11H232.226C230.361 457.11 228.852 458.62 228.852 460.487V466.472H247.876V460.487C247.89 458.62 246.367 457.11 244.501 457.11Z" fill="#E0E0E0"/>
<path d="M247.947 466.472H234.291C233.081 466.472 232.098 465.489 232.098 464.278C232.098 463.066 233.081 462.083 234.291 462.083H247.947C249.158 462.083 250.14 463.066 250.14 464.278C250.14 465.489 249.158 466.472 247.947 466.472Z" fill="#E6E6E6"/>
<path d="M466.64 73.6948C484.665 69.4354 495.826 51.3596 491.57 33.3212C487.314 15.2829 469.252 4.11287 451.227 8.37223C433.203 12.6316 422.041 30.7074 426.297 48.7457C430.553 66.784 448.615 77.9541 466.64 73.6948Z" fill="#E0E0E0"/>
<path d="M463.53 69.2254C479.08 66.6999 489.639 52.0376 487.116 36.4764C484.592 20.9151 469.941 10.3475 454.392 12.873C438.842 15.3985 428.283 30.0607 430.806 45.622C433.33 61.1833 447.981 71.7508 463.53 69.2254Z" fill="#F0F0F0"/>
<path d="M460.294 21.4902V41.4414L473.509 33.9597" fill="#F0F0F0"/>
<path d="M460.294 21.4902V41.4414L473.509 33.9597" stroke="#E0E0E0" stroke-width="2" stroke-miterlimit="10" stroke-linecap="round" stroke-linejoin="round"/>
<path d="M138.028 368.655C135.465 364.436 131.25 368.099 131.25 368.099C131.848 360.004 124.415 354.475 124.415 354.475C124.415 354.475 133.059 354.475 134.269 346.224C135.479 337.973 131.25 341.806 127.291 341.749C123.333 341.692 119.189 353.278 124.415 359.776C129.641 366.289 128.231 377.405 116.184 388.093C113.237 390.701 111.243 394.178 109.89 397.926C110.802 388.107 111.314 374.269 108.423 365.035C103.525 349.345 112.866 345.127 115.572 337.274C118.292 329.422 108.423 322.795 108.423 322.795C108.423 322.795 117.694 318.577 113.165 313.746C108.637 308.915 99.2957 309.571 99.2957 315.884C99.2957 322.197 105.632 324.605 105.632 324.605C105.632 324.605 112.866 332.144 112.866 336.077C112.866 339.996 105.632 348.447 105.632 348.447C105.632 348.447 108.95 341.222 102.315 340.908C95.6787 340.595 93.5712 349.345 96.291 353.278C99.0108 357.197 103.525 353.877 103.525 353.877C103.525 353.877 104.052 362.327 105.604 367.458C106.287 369.709 105.96 378.559 105.39 387.765C104.052 384.445 102.172 381.395 99.5235 379.044C87.4622 368.355 86.0667 357.24 91.2928 350.727C96.5188 344.214 92.375 332.643 88.4163 332.7C84.4576 332.757 80.2283 328.909 81.4387 337.175C82.6491 345.44 91.2928 345.426 91.2928 345.426C91.2928 345.426 83.8453 350.969 84.4576 359.05C84.4576 359.05 80.2425 355.373 77.6793 359.605C73.1083 367.144 83.7029 371.818 85.4971 368.113C85.4971 368.113 107.982 384.046 102.557 406.975L103.824 408.842C103.667 410.695 103.553 411.806 103.553 411.806L105.319 411.051L107.327 414.001C107.227 419.73 107.84 423.962 107.84 423.962L113.222 416.024C107.797 393.095 130.282 377.162 130.282 377.162C132.005 380.868 142.599 376.193 138.028 368.655Z" fill="#E0E0E0"/>
<path opacity="0.2" d="M138.028 368.655C135.465 364.436 131.25 368.099 131.25 368.099C131.848 360.004 124.415 354.475 124.415 354.475C124.415 354.475 133.059 354.475 134.269 346.224C135.479 337.973 131.25 341.806 127.291 341.749C123.333 341.692 119.189 353.278 124.415 359.776C129.641 366.289 128.231 377.405 116.184 388.093C113.237 390.701 111.243 394.178 109.89 397.926C110.802 388.107 111.314 374.269 108.423 365.035C103.525 349.345 112.866 345.127 115.572 337.274C118.292 329.422 108.423 322.795 108.423 322.795C108.423 322.795 117.694 318.577 113.165 313.746C108.637 308.915 99.2957 309.571 99.2957 315.884C99.2957 322.197 105.632 324.605 105.632 324.605C105.632 324.605 112.866 332.144 112.866 336.077C112.866 339.996 105.632 348.447 105.632 348.447C105.632 348.447 108.95 341.222 102.315 340.908C95.6787 340.595 93.5712 349.345 96.291 353.278C99.0108 357.197 103.525 353.877 103.525 353.877C103.525 353.877 104.052 362.327 105.604 367.458C106.287 369.709 105.96 378.559 105.39 387.765C104.052 384.445 102.172 381.395 99.5235 379.044C87.4622 368.355 86.0667 357.24 91.2928 350.727C96.5188 344.214 92.375 332.643 88.4163 332.7C84.4576 332.757 80.2283 328.909 81.4387 337.175C82.6491 345.44 91.2928 345.426 91.2928 345.426C91.2928 345.426 83.8453 350.969 84.4576 359.05C84.4576 359.05 80.2425 355.373 77.6793 359.605C73.1083 367.144 83.7029 371.818 85.4971 368.113C85.4971 368.113 107.982 384.046 102.557 406.975L103.824 408.842C103.667 410.695 103.553 411.806 103.553 411.806L105.319 411.051L107.327 414.001C107.227 419.73 107.84 423.962 107.84 423.962L113.222 416.024C107.797 393.095 130.282 377.162 130.282 377.162C132.005 380.868 142.599 376.193 138.028 368.655Z" fill="#E0E0E0"/>
<path d="M133.629 466.472H82.1225L76.5547 410.025H139.182L133.629 466.472Z" fill="#E6E6E6"/>
<path d="M141.93 403.797H73.8062V416.252H141.93V403.797Z" fill="#F0F0F0"/>
<path d="M356 531C508.486 531 632.099 523.777 632.099 514.868C632.099 505.959 508.486 498.736 356 498.736C203.515 498.736 79.9009 505.959 79.9009 514.868C79.9009 523.777 203.515 531 356 531Z" fill="#F5F5F5" fill-opacity="0.6"/>
<path d="M584.481 469.935C584.694 468.482 589.678 434.066 579.696 422.181C577.489 419.544 574.698 418.176 571.408 418.091C551.259 417.621 548.496 433.824 548.468 433.98L550.846 434.351C550.931 433.767 553.324 420.057 571.351 420.499C573.957 420.556 576.093 421.625 577.859 423.734C587.158 434.793 582.16 469.237 582.103 469.579L584.481 469.935Z" fill="#407BFF"/>
<path d="M585.691 468.368L588.097 468.296C588.083 467.983 587.3 436.588 602.75 430.104C617.902 423.748 624.708 436.816 624.993 437.372L627.143 436.289C627.058 436.132 619.069 420.642 601.825 427.881C584.851 435.006 585.648 467.014 585.691 468.368Z" fill="#407BFF"/>
<path d="M585.62 470.833C585.62 470.334 585.762 420.684 595.431 406.163C604.716 392.226 619.696 398.781 620.337 399.066L621.334 396.871C621.163 396.786 603.876 389.162 593.438 404.823C583.37 419.943 583.213 468.752 583.213 470.833H585.62Z" fill="#407BFF"/>
<path d="M568.517 419.302C568.517 419.302 577.318 422.551 574.698 430.218C572.077 437.885 544.253 450.497 544.253 450.497C544.253 450.497 532.604 439.809 543.298 422.423C554.007 405.023 568.275 413.815 568.517 419.302Z" fill="#407BFF"/>
<path d="M595.873 403.555C595.873 403.555 589.621 402.885 590.134 399.08C590.632 395.275 614.413 385.471 628.454 401.317C628.454 401.317 619.468 416.765 606.481 416.965C593.495 417.164 595.873 403.555 595.873 403.555Z" fill="#407BFF"/>
<path d="M602.295 428.992C602.295 428.992 597.98 425.515 602.636 423.805C607.293 422.109 630.12 422.594 630.362 445.224C630.362 445.224 603.776 449.642 600.486 441.02C597.183 432.413 602.295 428.992 602.295 428.992Z" fill="#407BFF"/>
<path opacity="0.2" d="M568.517 419.302C568.517 419.302 577.318 422.551 574.698 430.218C572.077 437.885 544.253 450.497 544.253 450.497C544.253 450.497 532.604 439.809 543.298 422.423C554.007 405.023 568.275 413.815 568.517 419.302Z" fill="black"/>
<path opacity="0.2" d="M595.873 403.555C595.873 403.555 589.621 402.885 590.134 399.08C590.632 395.275 614.413 385.471 628.454 401.317C628.454 401.317 619.468 416.765 606.481 416.965C593.495 417.164 595.873 403.555 595.873 403.555Z" fill="black"/>
<path opacity="0.2" d="M602.295 428.992C602.295 428.992 597.98 425.515 602.636 423.805C607.293 422.109 630.12 422.594 630.362 445.224C630.362 445.224 603.776 449.642 600.486 441.02C597.183 432.413 602.295 428.992 602.295 428.992Z" fill="black"/>
<path d="M563.79 516.051H605.057L609.5 470.833H559.347L563.79 516.051Z" fill="#407BFF"/>
<path opacity="0.5" d="M563.79 516.051H605.057L609.5 470.833H559.347L563.79 516.051Z" fill="white"/>
<path d="M557.14 475.829H611.708V465.854H557.14V475.829Z" fill="#407BFF"/>
<path opacity="0.2" d="M557.14 475.829H611.708V465.854H557.14V475.829Z" fill="white"/>
<path d="M517.083 483.645L476.057 479.612V421.91H459.795V479.597L418.599 483.645C414.512 484.044 411.394 487.492 411.394 491.596V497.767H466.331H469.35H524.288V491.596C524.288 487.478 521.184 484.044 517.083 483.645Z" fill="#263238"/>
<path opacity="0.2" d="M517.083 483.645L476.057 479.612V421.91H459.795V479.597L418.599 483.645C414.512 484.044 411.394 487.492 411.394 491.596V497.767H466.331H469.35H524.288V491.596C524.288 487.478 521.184 484.044 517.083 483.645Z" fill="white"/>
<path d="M415.737 516.051C421.612 516.051 426.374 511.285 426.374 505.405C426.374 499.526 421.612 494.76 415.737 494.76C409.862 494.76 405.1 499.526 405.1 505.405C405.1 511.285 409.862 516.051 415.737 516.051Z" fill="#263238"/>
<path d="M519.96 516.051C525.834 516.051 530.597 511.285 530.597 505.405C530.597 499.526 525.834 494.76 519.96 494.76C514.085 494.76 509.322 499.526 509.322 505.405C509.322 511.285 514.085 516.051 519.96 516.051Z" fill="#263238"/>
<path d="M472.968 434.308H462.871C459.625 434.308 456.99 431.672 456.99 428.423V382.92H478.849V428.423C478.863 431.672 476.229 434.308 472.968 434.308Z" fill="#263238"/>
<path opacity="0.3" d="M472.968 434.308H462.871C459.625 434.308 456.99 431.672 456.99 428.423V382.92H478.849V428.423C478.863 431.672 476.229 434.308 472.968 434.308Z" fill="white"/>
<path d="M506.802 292.712C506.802 292.712 509.906 369.666 488.489 382.905H512.925C512.925 382.905 531.864 356.684 526.51 292.712H506.802Z" fill="#263238"/>
<path opacity="0.3" d="M506.802 292.712C506.802 292.712 509.906 369.666 488.489 382.905H512.925C512.925 382.905 531.864 356.684 526.51 292.712H506.802Z" fill="white"/>
<path d="M418.841 372.146H514.135C518.065 372.146 521.255 375.338 521.255 379.271V388.805H411.721V379.271C411.721 375.338 414.911 372.146 418.841 372.146Z" fill="#263238"/>
<path d="M410.027 380.469H522.964C524.545 380.469 525.827 381.751 525.827 383.333V385.927C525.827 387.508 524.545 388.791 522.964 388.791H410.027C408.446 388.791 407.165 387.508 407.165 385.927V383.347C407.165 381.751 408.446 380.469 410.027 380.469Z" fill="#263238"/>
<path opacity="0.6" d="M410.027 380.469H522.964C524.545 380.469 525.827 381.751 525.827 383.333V385.927C525.827 387.508 524.545 388.791 522.964 388.791H410.027C408.446 388.791 407.165 387.508 407.165 385.927V383.347C407.165 381.751 408.446 380.469 410.027 380.469Z" fill="white"/>
<path d="M532.505 308.345H493.359C481.896 308.345 472.597 299.039 472.597 287.567V272.248C472.597 260.776 481.896 251.47 493.359 251.47H532.505C543.968 251.47 553.267 260.776 553.267 272.248V287.567C553.281 299.039 543.982 308.345 532.505 308.345Z" fill="#263238"/>
<path d="M374.583 188.581L366.765 167.96C366.765 167.96 370.112 164.853 367.819 161.704C365.526 158.555 351.101 149.691 348.467 151.258C345.832 152.812 340.008 158.683 343.155 161.946C346.317 165.21 360.286 170.639 360.286 170.639L367.192 197.702L374.583 188.581Z" fill="#E4897B"/>
<path d="M429.165 227.785C429.165 227.785 393.608 220.474 389.749 218.722C385.89 216.969 371.579 175.029 371.579 175.029L360.614 180.159C360.614 180.159 369.443 222.256 378.471 232.274C387.499 242.278 426.018 250.757 426.018 250.757L429.165 227.785Z" fill="#407BFF"/>
<path opacity="0.2" d="M426.018 250.729C426.018 250.729 425.79 250.686 425.363 250.572C423.412 250.13 417.346 248.705 410.126 246.582C398.407 243.176 383.626 237.96 378.471 232.246C369.457 222.227 360.614 180.13 360.614 180.13L371.579 175C371.579 175 385.89 216.954 389.763 218.693C393.622 220.432 429.165 227.742 429.165 227.742L426.018 250.729Z" fill="black"/>
<path d="M371.764 174.202L374.028 178.577L359.93 183.436L360.471 178.092L371.764 174.202Z" fill="#407BFF"/>
<path opacity="0.2" d="M426.289 250.159C424.309 249.874 418.143 248.919 410.781 247.366C414.982 240.112 427.285 236.378 427.285 236.378L426.289 250.159Z" fill="black"/>
<path d="M479.29 198.742C479.29 198.742 481.383 218.451 474.078 223.296C466.787 228.141 430.888 222.47 426.815 214.532C422.742 206.608 438.065 185.075 438.065 185.075L479.29 198.742Z" fill="#263238"/>
<path d="M334.056 458.078L343.426 460.344L348.168 447.405L352.469 435.633L341.803 431.087L337.702 445.367L334.056 458.078Z" fill="#E4897B"/>
<path opacity="0.2" d="M337.701 445.367L348.168 447.405L352.468 435.633L341.802 431.087L337.701 445.367Z" fill="black"/>
<path d="M338.641 438.541L351.628 443.372C351.628 443.372 386.274 356.684 393.394 356.385C400.514 356.085 473.01 389.432 491.18 370.935C509.35 352.451 483.077 307.889 483.077 307.889C483.077 307.889 439.375 301.647 436.085 311.523C435.445 313.433 434.747 317.181 434.234 320.387C433.736 323.408 433.394 325.945 433.394 325.945C433.394 325.945 433.38 325.945 433.366 325.931C432.013 325.589 388.139 314.259 370.852 325.945C353.294 337.83 338.641 438.541 338.641 438.541Z" fill="#407BFF"/>
<path opacity="0.6" d="M338.641 438.541L351.628 443.372C351.628 443.372 386.274 356.684 393.394 356.385C400.514 356.085 473.01 389.432 491.18 370.935C509.35 352.451 483.077 307.889 483.077 307.889C483.077 307.889 439.375 301.647 436.085 311.523C435.445 313.433 434.747 317.181 434.234 320.387C433.736 323.408 433.394 325.945 433.394 325.945C433.394 325.945 433.38 325.945 433.366 325.931C432.013 325.589 388.139 314.259 370.852 325.945C353.294 337.83 338.641 438.541 338.641 438.541Z" fill="white"/>
<path d="M413.344 495.059L422.672 492.665L420.877 479.269L419.211 466.985L407.677 468.025L410.667 482.333L413.344 495.059Z" fill="#E4897B"/>
<path opacity="0.2" d="M410.738 482.633L420.934 479.526L419.24 467.114L407.691 468.083L410.738 482.633Z" fill="black"/>
<path d="M356.997 438.555L338.072 432.128L337.274 439.88L351.614 444.953L356.997 438.555Z" fill="#407BFF"/>
<path d="M459.795 375.381C459.795 375.381 456.833 375.452 410.994 373.314C410.994 373.314 417.844 430.674 421.589 473.598L407.876 475.935C407.876 475.935 375.124 384.003 375.48 369.396C375.836 354.788 392.568 350.513 392.568 350.513C392.568 350.513 425.22 369.396 459.795 375.381Z" fill="#407BFF"/>
<path opacity="0.6" d="M459.795 375.381C459.795 375.381 456.833 375.452 410.994 373.314C410.994 373.314 417.844 430.674 421.589 473.598L407.876 475.935C407.876 475.935 375.124 384.003 375.48 369.396C375.836 354.788 392.568 350.513 392.568 350.513C392.568 350.513 425.22 369.396 459.795 375.381Z" fill="white"/>
<path opacity="0.1" d="M459.795 375.381C459.795 375.381 456.833 375.452 410.994 373.314C410.994 373.314 417.844 430.674 421.589 473.598L407.876 475.935C407.876 475.935 375.124 384.003 375.48 369.396C375.836 354.788 392.568 350.513 392.568 350.513C392.568 350.513 425.22 369.396 459.795 375.381Z" fill="black"/>
<path d="M423.583 469.436L404.743 471.574L408.389 478.97L423.64 477.018L423.583 469.436Z" fill="#407BFF"/>
<path opacity="0.1" d="M433.394 325.945L458.955 331.275C458.955 331.275 444.829 323.465 434.234 320.387C433.736 323.408 433.394 325.945 433.394 325.945Z" fill="black"/>
<path d="M482.024 301.077L483.078 307.889L436.086 311.509L434.833 303.471L482.024 301.077Z" fill="#263238"/>
<path opacity="0.2" d="M482.024 301.077L483.078 307.889L436.086 311.509L434.833 303.471L482.024 301.077Z" fill="black"/>
<path d="M467.179 312.481L469.502 312.241L468.286 300.404L465.962 300.643L467.179 312.481Z" fill="#407BFF"/>
<path d="M446.374 311.27L456.663 310.608L456.161 302.801L445.873 303.462L446.374 311.27Z" fill="white"/>
<path d="M438.386 313.743L440.709 313.504L439.493 301.667L437.17 301.907L438.386 313.743Z" fill="#407BFF"/>
<path opacity="0.6" d="M467.179 312.481L469.502 312.241L468.286 300.404L465.962 300.643L467.179 312.481Z" fill="white"/>
<path opacity="0.6" d="M438.386 313.743L440.709 313.504L439.493 301.667L437.17 301.907L438.386 313.743Z" fill="white"/>
<path d="M428.31 227.13C428.31 227.13 440.3 230.892 455.381 230.122C470.461 229.353 488.489 236.678 488.489 236.678L482.009 301.077L434.832 303.457C434.832 303.471 418.983 249.689 428.31 227.13Z" fill="#407BFF"/>
<path d="M435.9 190.761C435.9 190.761 438.549 159.481 464.679 170.853C497.474 185.118 471.401 223.211 455.381 215.387C439.346 207.563 435.9 190.761 435.9 190.761Z" fill="#263238"/>
<path opacity="0.2" d="M443.22 231.875L443.974 249.546L449.827 241.238C449.827 241.238 447.734 260.79 448.958 271.421C448.958 271.421 450.083 252.339 452.732 241.238L458.955 249.546L467.883 231.989C467.898 231.975 453.43 226.788 443.22 231.875Z" fill="black"/>
<path d="M451.308 235.153L464.822 231.334C456.491 225.605 460.692 212.779 460.692 212.779L447.307 217.482C448.019 219.705 448.474 221.586 448.745 223.211C450.14 231.562 446.367 232.231 446.367 232.231L451.308 235.153Z" fill="#E4897B"/>
<path opacity="0.2" d="M447.307 217.496C448.019 219.719 448.474 221.6 448.745 223.225C455.153 220.66 460.692 212.793 460.692 212.793L447.307 217.496Z" fill="black"/>
<path d="M456.05 177.423C444.202 174.801 438.976 180.301 435.402 192.329C430.945 207.364 431.928 218.964 447.463 218.978C468.567 219.007 475.73 181.783 456.05 177.423Z" fill="#E4897B"/>
<path d="M443.206 193.369C443.206 193.369 440.884 196.106 438.663 197.531C438.663 197.531 439.318 199.369 441.497 199.568L443.206 193.369Z" fill="#DE5753"/>
<path d="M450.681 193.996C450.439 194.965 450.767 195.878 451.422 196.034C452.063 196.191 452.789 195.535 453.017 194.566C453.259 193.597 452.931 192.685 452.276 192.529C451.635 192.372 450.923 193.027 450.681 193.996Z" fill="#263238"/>
<path d="M452.533 192.643L450.625 191.303C450.639 191.303 451.252 193.327 452.533 192.643Z" fill="#263238"/>
<path d="M438.691 190.833C438.449 191.802 438.777 192.714 439.432 192.871C440.073 193.027 440.799 192.372 441.027 191.403C441.269 190.434 440.941 189.522 440.286 189.365C439.646 189.208 438.934 189.864 438.691 190.833Z" fill="#263238"/>
<path d="M440.543 189.479L438.635 188.139C438.649 188.139 439.262 190.163 440.543 189.479Z" fill="#263238"/>
<path d="M452.604 185.831C452.604 185.831 456.036 186.13 457.346 188.766" stroke="#263238" stroke-width="0.7247" stroke-miterlimit="10" stroke-linecap="round" stroke-linejoin="round"/>
<path d="M444.102 183.422C444.102 183.422 442.18 182.183 439.161 183.351" stroke="#263238" stroke-width="0.7247" stroke-miterlimit="10" stroke-linecap="round" stroke-linejoin="round"/>
<path d="M464.58 200.281C464.58 200.281 461.191 189.308 463.697 181.969C463.697 181.969 442.337 167.162 435.9 190.761C435.9 190.761 438.293 169.072 458.77 173.105C479.219 177.138 472.568 206.95 460.08 213.506C460.066 213.52 466.659 207.136 464.58 200.281Z" fill="#263238"/>
<path d="M462.088 202.347C462.586 200.452 465.278 197.659 468.738 198.827C472.326 200.039 472.398 207.977 462.871 207.763C461.49 207.749 461.034 206.295 462.088 202.347Z" fill="#E4897B"/>
<path d="M439.375 204.058C439.788 205.625 439.987 208.461 439.987 208.461C440.244 208.49 440.514 208.518 440.771 208.532C444.302 208.832 446.053 207.806 446.908 206.566C447.378 205.896 447.563 205.141 447.648 204.528C447.748 203.815 447.648 203.288 447.648 203.288C445.683 204.243 442.351 204.229 440.585 204.129C439.845 204.115 439.375 204.058 439.375 204.058Z" fill="#263238"/>
<path d="M440.585 204.143L440.799 205.44C444.131 205.711 446.523 205.468 447.648 204.542C447.748 203.83 447.648 203.302 447.648 203.302C445.683 204.257 442.365 204.229 440.585 204.143Z" fill="white"/>
<path d="M440.771 208.532C444.302 208.832 446.054 207.806 446.908 206.566C445.698 206.509 444.231 206.58 442.907 207.008C441.91 207.35 441.24 207.934 440.771 208.532Z" fill="#DE5753"/>
<path d="M456.093 178.363C456.093 178.363 456.548 198.941 468.88 201.407C481.212 203.872 467.727 174.972 467.727 174.972C467.727 174.972 449.357 162.972 437.125 171.423C424.879 179.888 435.886 190.762 435.886 190.762C435.886 190.762 438.478 175.485 456.093 178.363Z" fill="#263238"/>
<path d="M456.52 177.01C456.52 177.01 452.12 190.021 460.806 196.847" stroke="#263238" stroke-width="0.5" stroke-miterlimit="10" stroke-linecap="round" stroke-linejoin="round"/>
<path d="M472.483 205.639C470.917 209.829 466.887 212.18 463.483 210.898C460.08 209.615 458.599 205.198 460.165 201.008C461.732 196.818 465.762 194.467 469.165 195.749C472.569 197.032 474.05 201.464 472.483 205.639Z" fill="#407BFF"/>
<path opacity="0.4" d="M472.483 205.639C470.917 209.829 466.887 212.18 463.483 210.898C460.08 209.615 458.599 205.198 460.165 201.008C461.732 196.818 465.762 194.467 469.165 195.749C472.569 197.032 474.05 201.464 472.483 205.639Z" fill="black"/>
<path d="M468.553 198.785C468.553 198.785 473.665 175.884 462.202 169.884C462.202 169.884 464.594 170.212 466.075 170.639C467.556 171.067 476.712 180.358 472.084 200.937L468.553 198.785Z" fill="#407BFF"/>
<path opacity="0.2" d="M468.553 198.785C468.553 198.785 473.665 175.884 462.202 169.884C462.202 169.884 464.594 170.212 466.075 170.639C467.556 171.067 476.712 180.358 472.084 200.937L468.553 198.785Z" fill="black"/>
<path d="M447.065 211.895C446.78 211.853 446.495 211.81 446.21 211.767L446.438 210.356C456.762 212.038 464.438 206.58 464.509 206.523L465.349 207.677C465.036 207.905 457.56 213.278 447.065 211.895Z" fill="#407BFF"/>
<g opacity="0.2">
<path opacity="0.2" d="M447.065 211.895C446.78 211.853 446.495 211.81 446.21 211.767L446.438 210.356C456.762 212.038 464.438 206.58 464.509 206.523L465.349 207.677C465.036 207.905 457.56 213.278 447.065 211.895Z" fill="black"/>
</g>
<path d="M471.999 205.069C470.959 207.834 468.296 209.387 466.047 208.546C463.797 207.706 462.814 204.77 463.854 202.005C464.893 199.241 467.556 197.687 469.806 198.528C472.056 199.383 473.038 202.305 471.999 205.069Z" fill="#407BFF"/>
<path d="M445.797 212.351L444.658 212.195C443.804 212.081 443.206 211.311 443.32 210.456C443.433 209.601 444.202 209.002 445.057 209.116L446.196 209.273C447.05 209.387 447.649 210.157 447.535 211.012C447.421 211.867 446.638 212.465 445.797 212.351Z" fill="#407BFF"/>
<path opacity="0.4" d="M445.797 212.351L444.658 212.195C443.804 212.081 443.206 211.311 443.32 210.456C443.433 209.601 444.202 209.002 445.057 209.116L446.196 209.273C447.05 209.387 447.649 210.157 447.535 211.012C447.421 211.867 446.638 212.465 445.797 212.351Z" fill="black"/>
<path d="M461.191 226.446L452.732 234.754L456.121 244.943L467.898 231.975L461.191 226.446Z" fill="#407BFF"/>
<path d="M448.958 228.184L450.325 234.583L445.954 243.632L443.22 231.875L448.958 228.184Z" fill="#407BFF"/>
<path d="M459.382 233.656L464.295 215.658C464.295 215.658 461.917 211.169 462.43 210.242C462.942 209.302 465.506 197.217 467.328 195.906C469.151 194.595 476.641 196.832 477.41 198.058C478.165 199.283 470.233 215.658 470.233 215.658L467.342 235.153L459.382 233.656Z" fill="#E4897B"/>
<path d="M488.489 236.678C502.002 250.529 474.904 281.91 459.382 280.57C443.861 279.231 459.767 222.341 459.767 222.341L469.706 223.98C469.706 223.98 466.217 248.606 467.314 250.529C468.425 252.453 483.946 232.018 488.489 236.678Z" fill="#407BFF"/>
<path opacity="0.2" d="M488.489 236.678C502.002 250.529 474.904 281.91 459.382 280.57C443.861 279.231 459.767 222.341 459.767 222.341L469.706 223.98C469.706 223.98 466.217 248.606 467.314 250.529C468.425 252.453 483.946 232.018 488.489 236.678Z" fill="black"/>
<path d="M458.955 220.517L457.488 225.22L471.344 226.445V222.341L458.955 220.517Z" fill="#407BFF"/>
<path opacity="0.6" d="M437.965 270.58H432.354C431.728 270.58 431.229 270.082 431.229 269.455V258.852C431.229 258.225 431.728 257.726 432.354 257.726H437.965C438.592 257.726 439.09 258.225 439.09 258.852V269.455C439.09 270.082 438.577 270.58 437.965 270.58Z" fill="white"/>
<path opacity="0.2" d="M438.065 258.567H431.685V267.303H438.065V258.567Z" fill="black"/>
<path d="M435.729 254.619H434.319V259.764H435.729V254.619Z" fill="#263238"/>
<path d="M318.563 476.291C319.987 475.636 321.525 475.251 323.077 475.137C323.077 475.137 328.488 471.945 333.842 459.575L339.866 459.546C341.959 459.575 343.796 460.9 344.494 462.867C344.594 463.138 344.65 463.423 344.665 463.708C344.608 465.161 344.451 466.615 344.195 468.054C343.654 472.572 340.678 482.248 340.678 482.248L339.652 481.991L341.503 472.985C342.116 469.921 338.912 472.885 337.417 475.963C335.921 479.042 333.643 482.148 326.979 480.623C319.246 478.799 316.128 477.688 318.563 476.291Z" fill="#407BFF"/>
<path d="M334.939 456.326C334.939 456.326 327.406 472.087 323.077 475.137C323.077 475.137 328.887 478.6 334.939 470.89C342.757 460.914 344.679 463.693 344.679 463.693C344.679 463.693 344.352 460.273 343.739 458.606C342.557 455.385 334.939 456.326 334.939 456.326Z" fill="#E4897B"/>
<path d="M401.468 513.842C402.693 512.873 404.088 512.132 405.583 511.647C405.583 511.647 410.083 507.272 412.361 493.976L418.214 492.508C420.25 492.038 422.358 492.879 423.497 494.632C423.654 494.874 423.782 495.13 423.867 495.401C424.152 496.826 424.352 498.28 424.451 499.734C424.992 504.251 424.394 514.355 424.394 514.355L423.341 514.341L423.013 505.149C422.885 502.028 420.464 505.662 419.752 509.011C419.04 512.36 417.559 515.922 410.724 516.022C402.735 516.122 399.432 515.766 401.468 513.842Z" fill="#407BFF"/>
<path d="M412.646 490.57C412.646 490.57 409.072 507.671 405.583 511.647C405.583 511.647 412.048 513.642 416.093 504.707C421.333 493.15 423.853 495.416 423.853 495.416C423.853 495.416 422.728 492.181 421.732 490.699C419.823 487.834 412.646 490.57 412.646 490.57Z" fill="#E4897B"/>
<path d="M545.05 181.37H495.324C491.337 181.37 488.104 178.135 488.104 174.145V152.854C488.104 148.864 491.337 145.629 495.324 145.629H545.05C549.038 145.629 552.27 148.864 552.27 152.854V174.145C552.27 178.135 549.038 181.37 545.05 181.37Z" fill="#407BFF"/>
<path d="M505.306 177.294L490.326 197.673L514.491 178.663L505.306 177.294Z" fill="#407BFF"/>
<path d="M505.861 163.5C505.861 164.654 504.922 165.609 503.754 165.609C502.601 165.609 501.646 164.668 501.646 163.5C501.646 162.345 502.586 161.391 503.754 161.391C504.922 161.405 505.861 162.345 505.861 163.5Z" fill="white"/>
<path d="M516.812 163.5C516.812 164.654 515.872 165.609 514.705 165.609C513.537 165.609 512.597 164.668 512.597 163.5C512.597 162.345 513.537 161.391 514.705 161.391C515.872 161.391 516.812 162.345 516.812 163.5Z" fill="white"/>
<path d="M527.763 163.5C527.763 164.654 526.823 165.609 525.655 165.609C524.502 165.609 523.548 164.668 523.548 163.5C523.548 162.345 524.488 161.391 525.655 161.391C526.823 161.405 527.763 162.345 527.763 163.5Z" fill="white"/>
<path d="M538.713 163.5C538.713 164.654 537.773 165.609 536.606 165.609C535.452 165.609 534.498 164.668 534.498 163.5C534.498 162.345 535.438 161.391 536.606 161.391C537.773 161.405 538.713 162.345 538.713 163.5Z" fill="white"/>
<path d="M345.22 153.268L309.763 134.157C308.809 133.644 308.438 132.447 308.965 131.478L320.272 110.473C320.785 109.518 321.981 109.147 322.949 109.674L358.407 128.785C359.361 129.298 359.731 130.495 359.204 131.464L347.897 152.47C347.371 153.424 346.174 153.781 345.22 153.268Z" fill="#407BFF"/>
<path opacity="0.7" d="M345.22 153.268L309.763 134.157C308.809 133.644 308.438 132.447 308.965 131.478L320.272 110.473C320.785 109.518 321.981 109.147 322.949 109.674L358.407 128.785C359.361 129.298 359.731 130.495 359.204 131.464L347.897 152.47C347.371 153.424 346.174 153.781 345.22 153.268Z" fill="white"/>
<path opacity="0.2" d="M319.332 112.211L330.425 132.946C331.294 134.556 333.045 135.497 334.854 135.312L357.937 133.032L334.426 136.495C332.319 136.808 330.254 135.697 329.357 133.758L319.332 112.211Z" fill="black"/>
<path d="M292.404 108.349C292.775 100.426 298.641 84.4504 305.776 79.5624C312.91 74.6743 308.211 81.4435 308.211 81.4435C308.211 81.4435 314.975 74.8596 318.535 75.0591C322.109 75.2444 318.535 79.3771 318.535 79.3771C318.535 79.3771 325.854 74.8596 329.243 75.0449C332.618 75.2301 329.243 79.1776 329.243 79.1776C329.243 79.1776 335.253 74.8596 337.688 76.926C340.123 78.9923 306.516 101.167 302.757 110.187C299.026 119.208 292.02 116.372 292.404 108.349Z" fill="#407BFF"/>
<path opacity="0.4" d="M292.404 108.349C292.775 100.426 298.641 84.4504 305.776 79.5624C312.91 74.6743 308.211 81.4435 308.211 81.4435C308.211 81.4435 314.975 74.8596 318.535 75.0591C322.109 75.2444 318.535 79.3771 318.535 79.3771C318.535 79.3771 325.854 74.8596 329.243 75.0449C332.618 75.2301 329.243 79.1776 329.243 79.1776C329.243 79.1776 335.253 74.8596 337.688 76.926C340.123 78.9923 306.516 101.167 302.757 110.187C299.026 119.208 292.02 116.372 292.404 108.349Z" fill="white"/>
<path d="M321.283 107.18L325.769 110.059C326.096 110.273 325.925 110.772 325.541 110.743L320.828 110.373L321.226 113.992C321.269 114.391 320.785 114.605 320.514 114.306L317.794 111.228L321.283 107.18Z" fill="#407BFF"/>
<path opacity="0.3" d="M321.283 107.18L325.769 110.059C326.096 110.273 325.925 110.772 325.541 110.743L320.828 110.373L321.226 113.992C321.269 114.391 320.785 114.605 320.514 114.306L317.794 111.228L321.283 107.18Z" fill="white"/>
<path d="M258.271 89.3384C258.271 89.3384 264.465 85.0204 273.864 87.8278C273.864 87.8278 276.569 100.226 283.946 104.359C288.004 106.625 297.929 106.439 305.79 103.888C315.117 100.867 319.688 100.867 321.383 104.359C322.978 107.665 321.198 111.498 314.063 113.194C306.929 114.89 301.29 127.288 288.332 127.474C275.373 127.659 268.552 114.662 271.813 103.233C271.799 103.233 267.855 94.7109 258.271 89.3384Z" fill="#407BFF"/>
<path opacity="0.5" d="M258.271 89.3384C258.271 89.3384 264.465 85.0204 273.864 87.8278C273.864 87.8278 276.569 100.226 283.946 104.359C288.004 106.625 297.929 106.439 305.79 103.888C315.117 100.867 319.688 100.867 321.383 104.359C322.978 107.665 321.198 111.498 314.063 113.194C306.929 114.89 301.29 127.288 288.332 127.474C275.373 127.659 268.552 114.662 271.813 103.233C271.799 103.233 267.855 94.7109 258.271 89.3384Z" fill="white"/>
<path d="M317.808 106.71C317.808 107.066 317.524 107.337 317.182 107.337C316.826 107.337 316.541 107.052 316.541 106.71C316.541 106.354 316.826 106.069 317.182 106.069C317.524 106.083 317.808 106.368 317.808 106.71Z" fill="#263238"/>
<path d="M285.313 117.156C277.666 119.251 260.663 118.595 253.814 113.308C246.964 108.021 254.853 110.401 254.853 110.401C254.853 110.401 246.509 105.998 245.597 102.549C244.672 99.1003 249.699 101.209 249.699 101.209C249.699 101.209 243.148 95.6373 242.279 92.3596C241.425 89.082 246.21 91.0771 246.21 91.0771C246.21 91.0771 240.243 86.6878 241.454 83.7236C242.664 80.7595 274.12 105.912 283.846 106.71C293.6 107.494 293.059 115.033 285.313 117.156Z" fill="#407BFF"/>
<path opacity="0.4" d="M285.313 117.156C277.666 119.251 260.663 118.595 253.814 113.308C246.964 108.021 254.853 110.401 254.853 110.401C254.853 110.401 246.509 105.998 245.597 102.549C244.672 99.1003 249.699 101.209 249.699 101.209C249.699 101.209 243.148 95.6373 242.279 92.3596C241.425 89.082 246.21 91.0771 246.21 91.0771C246.21 91.0771 240.243 86.6878 241.454 83.7236C242.664 80.7595 274.12 105.912 283.846 106.71C293.6 107.494 293.059 115.033 285.313 117.156Z" fill="white"/>
<path d="M235.188 81.9565C233.85 81.4862 232.497 81.0302 231.13 80.6169" stroke="#407BFF" stroke-width="0.75" stroke-linecap="round" stroke-linejoin="round"/>
<path d="M222.813 78.4936C217.829 77.4533 212.746 76.7693 207.705 76.413C193.864 75.444 172.148 74.0759 163.675 87.8849C155.942 100.468 169.243 121.93 173.956 133.616C179.737 147.924 186.615 165.609 179.78 180.758C165.74 211.881 105.661 195.721 85.3975 167.048" stroke="#407BFF" stroke-width="0.75" stroke-linecap="round" stroke-linejoin="round" stroke-dasharray="6.03 6.03"/>
<path d="M83.1049 163.443C82.3929 162.189 81.7521 160.906 81.2109 159.609" stroke="#407BFF" stroke-width="0.75" stroke-linecap="round" stroke-linejoin="round"/>
<path d="M256.05 276.594H201.995V287.681H256.05V276.594Z" fill="white"/>
<path opacity="0.1" d="M256.05 276.594H201.995V287.681H256.05V276.594Z" fill="black"/>
<path opacity="0.1" d="M224.764 276.594H201.995V287.681H224.764V276.594Z" fill="black"/>
<path opacity="0.1" d="M201.995 278.19H250.112L201.995 279.559V278.19Z" fill="black"/>
<path opacity="0.1" d="M256.05 280.114L214.341 281.155H256.05V280.114Z" fill="black"/>
<path opacity="0.1" d="M204.202 283.221L224.764 282.366L254.996 283.221L224.764 283.691L204.202 283.221Z" fill="black"/>
<path opacity="0.1" d="M201.995 285.572H237.623L201.995 286.413V285.572Z" fill="black"/>
<path opacity="0.1" d="M255.964 286.413L232.184 286.855H256.05L255.964 286.413Z" fill="black"/>
<path d="M248.531 265.493H194.476V276.58H248.531V265.493Z" fill="white"/>
<path opacity="0.1" d="M248.531 265.493H194.476V276.58H248.531V265.493Z" fill="black"/>
<path opacity="0.1" d="M217.246 265.493H194.476V276.58H217.246V265.493Z" fill="black"/>
<path opacity="0.1" d="M194.476 267.103H242.593L194.476 268.457V267.103Z" fill="black"/>
<path opacity="0.1" d="M248.531 269.027L206.822 270.053H248.531V269.027Z" fill="black"/>
<path opacity="0.1" d="M196.669 272.12L217.231 271.279L247.463 272.12L217.231 272.59L196.669 272.12Z" fill="black"/>
<path opacity="0.1" d="M194.476 274.471H230.105L194.476 275.312V274.471Z" fill="black"/>
<path opacity="0.1" d="M248.445 275.312L224.65 275.754H248.531L248.445 275.312Z" fill="black"/>
<path d="M254.697 254.406H200.642V265.493H254.697V254.406Z" fill="white"/>
<path opacity="0.1" d="M254.697 254.406H200.642V265.493H254.697V254.406Z" fill="black"/>
<path opacity="0.1" d="M223.411 254.406H200.642V265.493H223.411V254.406Z" fill="black"/>
<path opacity="0.1" d="M200.642 256.002H248.759L200.642 257.37V256.002Z" fill="black"/>
<path opacity="0.1" d="M254.697 257.926L212.988 258.966H254.697V257.926Z" fill="black"/>
<path opacity="0.1" d="M202.849 261.032L223.411 260.177L253.643 261.032L223.411 261.503L202.849 261.032Z" fill="black"/>
<path opacity="0.1" d="M200.642 263.384H236.27L200.642 264.225V263.384Z" fill="black"/>
<path opacity="0.1" d="M254.626 264.225L230.831 264.666H254.697L254.626 264.225Z" fill="black"/>
<path d="M290.71 287.454L292.105 282.138H349.849L376.449 284.803L377.46 287.454H290.71Z" fill="#263238"/>
<path opacity="0.4" d="M349.849 282.138V287.454H290.71L292.105 282.138H349.849Z" fill="black"/>
<path d="M338.257 256.7C338.514 259.508 336.463 261.788 333.672 261.788H245.213C242.408 261.788 239.93 259.508 239.674 256.7L234.419 200.025C234.362 199.44 234.405 198.884 234.533 198.371C235.032 196.376 236.783 194.937 239.005 194.937H327.463C330.269 194.937 332.746 197.217 333.003 200.025L338.257 256.7Z" fill="#263238"/>
<path opacity="0.4" d="M333.359 261.788H245.213C242.408 261.788 239.93 259.508 239.674 256.7L234.419 200.025C234.362 199.44 234.405 198.885 234.533 198.372H322.679C325.47 198.372 327.948 200.652 328.218 203.459L333.473 260.135C333.53 260.719 333.487 261.275 333.359 261.788Z" fill="black"/>
<path d="M272.582 227.016H290.881L286.011 279.459L314.946 283.805V287.453H253.999V283.805L266.487 279.459L272.582 227.016Z" fill="#263238"/>
<path opacity="0.1" d="M290.881 227.016L277.324 286.627L266.488 286.299L272.583 227.016H290.881Z" fill="white"/>
<path d="M290.795 516.051H282.081L266.402 297.657H277.979L290.795 516.051Z" fill="#263238"/>
<path opacity="0.4" d="M290.81 516.052H282.081L267.171 308.503L266.402 298.014H277.979L278.606 308.503L290.81 516.052Z" fill="white"/>
<path opacity="0.2" d="M278.606 307.99H267.171L266.402 298.014H277.979L278.606 307.99Z" fill="black"/>
<path d="M354.818 516.051H346.104L344.68 297.657H356.242L354.818 516.051Z" fill="#263238"/>
<path opacity="0.5" d="M356.257 298.014L356.029 333.242L354.833 516.052H346.104L344.908 333.242L344.68 298.014H356.257Z" fill="white"/>
<path opacity="0.2" d="M356.257 298.014L356.029 333.641H344.908L344.68 298.014H356.257Z" fill="black"/>
<path d="M447.435 516.051H438.72L423.042 297.657H434.619L447.435 516.051Z" fill="#263238"/>
<path opacity="0.5" d="M447.449 516.052H438.72L423.811 308.503L423.042 298.014H434.619L435.246 308.503L447.449 516.052Z" fill="white"/>
<path opacity="0.2" d="M435.246 307.99H423.811L423.042 298.014H434.619L435.246 307.99Z" fill="black"/>
<path d="M191.002 516.051H182.287L195.103 297.657H206.68L191.002 516.051Z" fill="#263238"/>
<path opacity="0.5" d="M206.68 298.014L205.911 308.503L191.002 516.052H182.287L194.476 308.503L195.103 298.014H206.68Z" fill="white"/>
<path opacity="0.2" d="M195.103 298.013H206.68L205.911 307.989H194.476L195.103 298.013Z" fill="black"/>
<path d="M440.714 303.129H189.008C187.313 303.129 185.932 301.747 185.932 300.051V292.199H443.79V300.051C443.79 301.747 442.409 303.129 440.714 303.129Z" fill="#407BFF"/>
<path opacity="0.6" d="M440.714 303.129H189.008C187.313 303.129 185.932 301.747 185.932 300.051V292.199H443.79V300.051C443.79 301.747 442.409 303.129 440.714 303.129Z" fill="white"/>
<path opacity="0.2" d="M443.79 292.185H185.932V297.657H443.79V292.185Z" fill="black"/>
<path d="M449.201 293.624H180.521C178.826 293.624 177.445 292.242 177.445 290.546C177.445 288.85 178.826 287.468 180.521 287.468H449.201C450.896 287.468 452.277 288.85 452.277 290.546C452.277 292.242 450.896 293.624 449.201 293.624Z" fill="#407BFF"/>
<path opacity="0.6" d="M449.201 293.624H180.521C178.826 293.624 177.445 292.242 177.445 290.546C177.445 288.85 178.826 287.468 180.521 287.468H449.201C450.896 287.468 452.277 288.85 452.277 290.546C452.277 292.242 450.896 293.624 449.201 293.624Z" fill="white"/>
<path d="M385.634 277.962L388.937 273.003C389.593 272.02 390.703 271.421 391.899 271.421H396.086C396.442 271.421 396.784 271.478 397.111 271.578L412.049 276.11C412.903 276.366 413.615 276.936 414.071 277.692L416.207 281.297L385.634 277.962Z" fill="#407BFF"/>
<path opacity="0.2" d="M416.221 281.297L394.477 278.931L385.634 277.962L388.937 273.003C389.593 272.02 390.703 271.421 391.899 271.421H396.086C396.442 271.421 396.784 271.478 397.125 271.578L397.453 271.678L412.049 276.11C412.903 276.366 413.63 276.922 414.085 277.692L416.221 281.297Z" fill="black"/>
<path opacity="0.2" d="M416.222 281.297L394.477 278.931L397.453 271.678L412.049 276.11C412.904 276.366 413.63 276.922 414.086 277.692L416.222 281.297Z" fill="black"/>
<path d="M426.56 286.983V287.453H407.606H380.394L382.102 280.77C382.772 278.261 385.05 276.509 387.642 276.509H408.119C408.802 276.509 409.472 276.623 410.112 276.865L412.676 277.82L422.843 281.61C425.079 282.451 426.56 284.589 426.56 286.983Z" fill="#407BFF"/>
<path opacity="0.2" d="M426.559 286.983V287.453H407.606L408.617 280.228C408.888 278.318 410.867 277.15 412.675 277.82L422.843 281.61C425.079 282.451 426.559 284.589 426.559 286.983Z" fill="black"/>
<path d="M410.554 282.537L416.577 264.424C416.834 263.64 417.731 263.284 418.471 263.654C419.027 263.939 419.311 264.581 419.155 265.193L414.071 284.532C414.071 284.532 410.696 285.9 410.554 282.537Z" fill="#263238"/>
<path opacity="0.2" d="M385.634 285.957H382.957L383.47 283.321H386.147L385.634 285.957Z" fill="black"/>
<path opacity="0.2" d="M389.621 285.843H386.944L387.456 283.221H390.134L389.621 285.843Z" fill="black"/>
</svg>
