<svg width="19" height="19" viewBox="0 0 19 19" fill="none" xmlns="http://www.w3.org/2000/svg">
<path d="M13.8568 0H5.14312C2.30716 0 0 2.30716 0 5.14312V13.857C0 16.6928 2.30716 19 5.14312 19H13.857C16.6928 19 19 16.6928 19 13.857V5.14312C19 2.30716 16.6928 0 13.8568 0V0ZM9.49998 14.6951C6.63532 14.6951 4.30482 12.3646 4.30482 9.49998C4.30482 6.63532 6.63532 4.30482 9.49998 4.30482C12.3646 4.30482 14.6951 6.63532 14.6951 9.49998C14.6951 12.3646 12.3646 14.6951 9.49998 14.6951ZM14.8194 5.53001C13.9728 5.53001 13.2843 4.84146 13.2843 3.9949C13.2843 3.14835 13.9728 2.45965 14.8194 2.45965C15.6659 2.45965 16.3546 3.14835 16.3546 3.9949C16.3546 4.84146 15.6659 5.53001 14.8194 5.53001Z" fill="white"/>
<path d="M9.49975 5.4187C7.24942 5.4187 5.41846 7.24952 5.41846 9.5C5.41846 11.7503 7.24942 13.5813 9.49975 13.5813C11.7502 13.5813 13.581 11.7503 13.581 9.5C13.581 7.24952 11.7502 5.4187 9.49975 5.4187Z" fill="white"/>
<path d="M14.8192 3.57373C14.587 3.57373 14.3979 3.76276 14.3979 3.99498C14.3979 4.2272 14.587 4.41623 14.8192 4.41623C15.0516 4.41623 15.2406 4.22735 15.2406 3.99498C15.2406 3.76261 15.0516 3.57373 14.8192 3.57373Z" fill="white"/>
</svg>
