<!-- <svg width="1160" height="920" viewBox="0 0 1160 920" fill="none" xmlns="http://www.w3.org/2000/svg">
<path fill-rule="evenodd" clip-rule="evenodd" d="M995.436 -242.722C1100.26 -152.52 1153.07 -35.6182 1233.22 72.805C1324.94 196.877 1505.83 297.956 1498.4 437.665C1491 576.872 1309.76 626.427 1199.23 712.192C1098.78 790.131 1017.9 894.524 882.803 915.326C743.136 936.833 598.608 879.495 458.976 826.18C300.427 765.643 96.2926 729.291 22.7977 586.96C-51.0476 443.95 82.9239 309.367 118.373 166.566C148.097 46.8291 151.18 -75.6134 213.499 -181.245C294.833 -319.107 352.576 -517.925 530.451 -531.91C708.742 -545.928 854.903 -363.647 995.436 -242.722Z" fill="url(#paint0_linear)" fill-opacity="0.2"/>
<defs>
<linearGradient id="paint0_linear" x1="125.718" y1="-384.849" x2="1269.09" y2="1133.6" gradientUnits="userSpaceOnUse">
<stop stop-color="#56CCF2"/>
<stop offset="1" stop-color="#2F80ED"/>
</linearGradient>
</defs>
</svg> -->

<svg width="1160" height="920" viewBox="0 0 1160 920" fill="none" xmlns="http://www.w3.org/2000/svg">
<path fill-rule="evenodd" clip-rule="evenodd" d="M995.436 -242.722C1100.26 -152.52 1153.07 -35.6182 1233.22 72.805C1324.94 196.877 1505.83 297.956 1498.4 437.665C1491 576.872 1309.76 626.427 1199.23 712.192C1098.78 790.131 1017.9 894.524 882.803 915.326C743.136 936.833 598.608 879.495 458.976 826.18C300.427 765.643 96.2926 729.291 22.7977 586.96C-51.0476 443.95 82.9239 309.367 118.373 166.566C148.097 46.8291 151.18 -75.6134 213.499 -181.245C294.833 -319.107 352.576 -517.925 530.451 -531.91C708.742 -545.928 854.903 -363.647 995.436 -242.722Z" fill="url(#paint0_linear)" fill-opacity="0.2"/>
<g clip-path="url(#clip0)">
<path d="M268.841 700.74C298.928 697.905 329.472 699.939 358.918 706.743C362.161 707.495 364.652 710.318 364.676 713.646C364.701 717.368 361.692 718.724 358.979 719.821L344.158 725.812C338.461 728.117 339.534 736.462 345.613 737.275L345.761 737.3C400.497 744.375 456.331 725.195 510.871 730.483C515.926 730.976 518.06 737.189 514.36 740.665L514.2 740.813C511.167 743.672 511.944 748.714 515.717 750.477C528.368 756.381 543.227 757.231 557.395 757.872C641.787 761.656 726.352 765.428 810.708 761.028C815.665 760.769 821.288 759.918 825.838 757.885C831.559 755.321 832.201 747.296 826.948 743.857C826.861 743.808 826.775 743.746 826.701 743.697C820.129 739.346 823.199 729.078 831.078 728.906L910.403 727.217C918.011 727.057 927.222 725.898 930.329 718.958C931.932 715.371 931.39 711.07 933.203 707.581C936.224 701.788 944.017 700.913 950.552 700.765C983.229 700.038 1015.91 699.323 1048.58 698.595H266.461C266.461 699.865 267.558 700.863 268.841 700.74Z" fill="#C1E1EF"/>
<path d="M367.685 620.718C366.106 623.11 364.343 625.452 362.284 627.449C360.397 629.273 357.845 631.331 355.218 631.898C355.021 631.948 354.688 631.775 354.454 631.553C354.405 631.59 354.355 631.627 354.306 631.664C354.331 631.75 354.343 631.837 354.368 631.923C355.934 638.826 357.783 645.679 359.768 652.483C360.755 650.363 361.051 647.799 361.223 645.519C361.408 643.041 361.359 640.564 361.593 638.086C361.951 634.265 363.172 629.039 367.068 627.276C371.137 625.427 374.38 630.099 375.096 633.587C375.564 635.843 374.985 638.111 374.196 640.231C373.443 642.24 372.531 644.175 371.433 646.012C369.017 650.043 365.687 653.938 361.125 655.466C361.236 656.452 361.618 657.438 361.914 658.363C362.309 659.583 362.716 660.791 363.147 661.987C363.924 664.131 364.725 666.276 365.589 668.396C366.439 670.492 367.475 672.476 368.671 674.411C369.744 676.149 370.829 677.9 372.001 679.576C373.086 680.858 374.22 682.091 375.379 683.299C375.786 683.73 376.205 684.149 376.625 684.568C377.044 684.987 377.476 685.382 377.833 685.85C378.191 686.331 378.474 686.898 378.425 687.514C378.376 688.131 377.858 688.624 377.241 688.278C376.995 688.143 376.785 687.921 376.575 687.748C376.353 687.551 376.131 687.366 375.91 687.157C375.478 686.762 375.059 686.343 374.652 685.912C374.639 685.899 374.639 685.9 374.627 685.887C372.987 684.334 371.409 682.719 369.954 680.957C367.894 678.454 366.069 675.767 364.442 672.969C363.406 671.194 362.469 669.37 361.618 667.496C361.544 667.521 361.47 667.546 361.359 667.546C357.561 667.583 353.64 667.287 349.953 666.325C346.944 665.537 343.405 664.242 341.334 661.789C339.509 659.62 339.694 655.38 342.703 654.307C344.096 653.814 345.909 653.802 347.364 653.938C348.88 654.073 350.311 654.542 351.531 655.466C352.937 656.514 353.924 657.981 355.12 659.25C356.476 660.68 358.091 661.999 359.744 663.133C358.683 660.421 357.734 657.672 356.846 654.924C356.427 653.617 356.02 652.298 355.613 650.992C354.91 651.078 354.158 650.967 353.455 650.93C352.382 650.881 351.309 650.794 350.249 650.671C348.19 650.437 346.131 650.03 344.182 649.328C342.345 648.662 340.619 647.713 339.016 646.604C337.437 645.519 335.822 644.323 334.601 642.832C332.53 640.317 332.258 635.683 335.97 634.512C339.534 633.39 343.282 635.732 345.588 638.259C347.055 639.873 348.079 641.821 349.472 643.485C350.298 644.483 351.297 645.285 352.345 646.037C353.036 646.53 353.776 647.134 354.577 647.54C352.715 641.168 351.088 634.721 349.731 628.213C345.711 628.225 341.741 627.227 337.992 625.748C333.726 624.059 329.422 621.791 327.03 617.699C325.279 614.703 324.33 608.294 329.126 607.554C331.21 607.234 333.664 607.751 335.341 609.046C337.228 610.488 338.67 612.583 340.101 614.444C342.616 617.711 345.292 621.347 348.819 623.627C348.042 619.523 347.376 615.394 346.833 611.252C346.587 609.378 346.352 607.505 346.143 605.619C342.715 604.929 339.435 603.795 336.278 602.217C332.813 600.491 329.04 598.248 327.511 594.488C326.315 591.567 326.796 586.513 330.951 586.698C334.638 586.858 337.474 590.297 339.435 593.034C341.346 595.696 343.171 598.618 345.662 600.787C345.354 597.286 345.144 593.761 345.07 590.26C343.072 587.573 341.26 584.738 340.039 581.62C338.498 577.663 337.844 572.93 339.509 568.911C340.212 567.21 341.531 565.46 343.393 564.955C345.218 564.449 347.08 565.522 348.19 566.927C349.509 568.591 350.052 570.797 350.409 572.843C350.792 575.099 350.866 577.392 350.779 579.672C350.693 582.285 350.471 584.911 350.212 587.512C350.076 588.868 349.904 590.211 349.632 591.555C349.534 592.048 349.46 592.713 349.25 593.268C349.411 596.621 349.608 599.973 349.879 603.326C350.804 601.798 351.149 600.01 351.482 598.26C351.901 596.029 352.111 593.773 352.111 591.505C352.111 589.632 351.963 587.709 352.567 585.897C353.048 584.442 354.121 582.865 355.736 582.581C359.152 581.99 361.519 586.082 361.741 588.929C362.037 592.775 360.188 596.608 358.215 599.789C356.217 603.006 353.862 606.198 350.311 607.727C350.372 608.343 350.446 608.972 350.52 609.588C351.346 616.663 352.543 623.701 354.072 630.666C355.539 628.829 356.513 626.734 356.982 624.379C357.537 621.569 357.475 618.685 357.574 615.837C357.672 613.101 357.931 610.377 358.93 607.801C359.781 605.607 361.076 603.24 362.728 601.539C364.22 599.998 366.834 600.467 368.536 601.366C370.422 602.352 371.803 604.164 372.247 606.248C372.765 608.7 372.099 611.289 371.285 613.606C370.422 616.133 369.152 618.487 367.685 620.718Z" fill="#76CBFF"/>
<path d="M363.764 685.591C361.273 684.519 358.918 683.052 356.612 681.635C354.306 680.217 352.062 678.701 349.867 677.111C348.843 676.371 347.844 675.607 346.846 674.83C344.33 676.248 341.815 677.838 339.127 678.91C336.784 679.835 334.12 680.279 331.703 679.342C329.484 678.479 327.511 676.088 328.719 673.659C329.323 672.439 330.557 671.811 331.851 671.589C333.319 671.33 334.835 671.244 336.315 671.194C337.992 671.145 339.669 671.231 341.334 671.428C341.913 671.49 342.468 671.589 343.023 671.687C341.371 670.27 339.768 668.803 338.214 667.287C333.454 668.692 328.226 668.088 323.91 665.635C322.295 664.723 318.62 662.332 321.123 660.323C322.159 659.484 323.849 659.497 325.119 659.558C326.598 659.632 328.041 660.002 329.447 660.47C330.668 660.865 331.876 661.333 333.06 661.863C330.902 659.41 328.855 656.859 326.944 654.221C326.672 653.839 326.401 653.457 326.13 653.075C323.232 653.235 320.371 653.494 317.486 652.951C315.069 652.508 312.677 651.448 310.901 649.722C310.087 648.933 309.101 647.799 309.076 646.616C309.039 645.334 310.137 644.298 311.394 644.348C312.726 644.397 314.132 644.816 315.402 645.211C316.721 645.617 318.016 646.135 319.249 646.776C320.593 647.454 321.839 648.28 323.035 649.18C323.343 649.414 323.664 649.66 323.984 649.882C322.32 647.269 320.815 644.557 319.508 641.747C317.276 640.946 315.118 640.071 313.108 638.764C311.259 637.568 309.594 636.003 308.398 634.142C307.905 633.365 307.153 632.367 307.905 631.516C308.583 630.74 309.89 630.998 310.741 631.282C311.814 631.639 312.726 632.342 313.577 633.069C314.391 633.76 315.205 634.437 316.043 635.091C316.438 635.411 316.845 635.719 317.227 636.052C316.586 634.117 316.068 632.132 315.661 630.136C315.525 630.148 315.402 630.099 315.291 630C315.279 629.988 315.266 629.975 315.254 629.951C311.925 629.532 308.706 627.621 307.584 624.305C307.14 622.999 306.709 620.435 308.694 620.25C309.52 620.176 310.186 620.718 310.704 621.285C311.37 622 312.011 622.74 312.628 623.492C313.355 624.367 314.058 625.267 314.724 626.191C314.847 626.364 314.97 626.536 315.094 626.709C314.958 625.624 314.847 624.54 314.785 623.443C314.477 623.455 314.243 623.233 314.329 622.9C314.378 622.728 314.44 622.555 314.502 622.395C314.07 621.692 313.737 620.891 313.491 620.139C313.145 619.091 312.837 617.982 312.738 616.873C312.566 615.036 312.825 613.088 313.7 611.449C314.107 610.697 314.662 609.686 315.587 609.526C316.438 609.366 316.98 610.118 317.215 610.833C317.831 612.657 318.041 614.679 317.868 616.589C317.769 617.662 317.548 618.709 317.178 619.72C316.783 620.817 316.08 621.717 315.612 622.765C315.587 622.814 315.562 622.863 315.525 622.912C315.871 625.747 316.487 628.533 317.338 631.257C317.659 629.556 318.509 627.966 319.767 626.721C320.26 626.241 321.987 624.466 322.677 625.341C323.035 625.797 322.998 626.709 322.973 627.251C322.948 628.028 322.788 628.767 322.554 629.507C322.135 630.826 321.518 632.28 320.606 633.328C320.186 633.821 319.681 634.154 319.077 634.388C318.941 634.437 318.744 634.561 318.534 634.672C319.705 637.741 321.148 640.724 322.763 643.584C322.85 641.907 323.146 640.243 323.898 638.715C324.403 637.692 325.082 636.73 325.908 635.954C326.487 635.411 327.462 634.462 328.349 634.709C329.36 634.992 328.917 636.644 328.806 637.371C328.645 638.542 328.374 639.701 328.016 640.822C327.683 641.858 327.338 642.955 326.648 643.805C326.006 644.594 324.995 644.964 324.354 645.741C324.293 645.815 324.231 645.889 324.145 645.962C325.193 647.676 326.29 649.34 327.437 650.955C328.621 652.631 329.854 654.27 331.136 655.873C330.803 654.11 330.631 652.323 330.816 650.523C331 648.6 331.457 646.542 332.813 645.075C333.38 644.471 334.367 643.707 335.267 643.842C336.352 644.003 336.229 645.543 336.303 646.357C336.5 648.687 336.549 651.066 336.031 653.358C335.612 655.269 334.786 657.192 333.454 658.646C335.329 660.828 337.302 662.923 339.348 664.933C338.818 663.305 338.374 661.666 338.14 659.94C337.807 657.463 337.943 654.924 338.757 652.545C339.09 651.583 339.595 650.301 340.754 650.153C341.778 650.018 342.715 651.115 343.208 651.879C343.862 652.89 344.145 654.085 344.293 655.269C344.466 656.625 344.564 658.005 344.601 659.373C344.675 662.122 344.231 664.982 342.357 667.102C342.222 667.262 342.061 667.348 341.901 667.373C344.219 669.506 346.624 671.527 349.102 673.45C348.757 672.71 348.449 671.958 348.165 671.207C347.216 668.717 346.661 665.993 347.031 663.342C347.203 662.134 347.746 660.988 348.856 660.384C349.904 659.817 350.976 660.088 351.729 660.976C353.295 662.812 353.677 665.426 353.8 667.743C353.948 670.566 353.566 673.425 352.703 676.125C354.219 677.185 355.761 678.22 357.327 679.206C358.597 680.007 359.879 680.772 361.186 681.511C362.506 682.263 363.862 682.929 365.157 683.73C366.193 684.371 364.664 685.973 363.764 685.591Z" fill="#BBE7FF"/>
<path d="M774.32 620.718C772.741 623.11 770.978 625.452 768.919 627.449C767.032 629.273 764.48 631.331 761.853 631.898C761.656 631.948 761.323 631.775 761.089 631.553C761.039 631.59 760.99 631.627 760.941 631.664C760.965 631.75 760.978 631.837 761.002 631.923C762.568 638.826 764.418 645.679 766.403 652.483C767.39 650.363 767.686 647.799 767.858 645.519C768.043 643.041 767.994 640.564 768.228 638.086C768.586 634.265 769.807 629.039 773.703 627.276C777.772 625.427 781.015 630.099 781.731 633.587C782.199 635.843 781.62 638.111 780.83 640.231C780.078 642.24 779.166 644.175 778.068 646.012C775.651 650.043 772.322 653.938 767.76 655.466C767.871 656.452 768.253 657.438 768.549 658.363C768.943 659.583 769.35 660.791 769.782 661.987C770.559 664.131 771.36 666.276 772.223 668.396C773.074 670.492 774.11 672.476 775.306 674.411C776.379 676.149 777.464 677.9 778.635 679.576C779.721 680.858 780.855 682.091 782.014 683.299C782.421 683.73 782.84 684.149 783.26 684.568C783.679 684.987 784.11 685.382 784.468 685.85C784.826 686.331 785.109 686.898 785.06 687.514C785.011 688.131 784.493 688.624 783.876 688.278C783.629 688.143 783.42 687.921 783.21 687.748C782.988 687.551 782.766 687.366 782.544 687.157C782.113 686.762 781.694 686.343 781.287 685.912C781.274 685.899 781.274 685.9 781.262 685.887C779.622 684.334 778.044 682.719 776.589 680.957C774.529 678.454 772.704 675.767 771.077 672.969C770.041 671.194 769.104 669.37 768.253 667.496C768.179 667.521 768.105 667.546 767.994 667.546C764.196 667.583 760.275 667.287 756.588 666.325C753.579 665.537 750.04 664.242 747.969 661.789C746.144 659.62 746.329 655.38 749.337 654.307C750.731 653.814 752.543 653.802 753.998 653.938C755.515 654.073 756.945 654.542 758.166 655.466C759.572 656.514 760.558 657.981 761.755 659.25C763.111 660.68 764.726 661.999 766.379 663.133C765.318 660.421 764.369 657.672 763.481 654.924C763.062 653.617 762.655 652.298 762.248 650.992C761.545 651.078 760.793 650.967 760.09 650.93C759.017 650.881 757.944 650.794 756.884 650.671C754.825 650.437 752.765 650.03 750.817 649.328C748.98 648.662 747.253 647.713 745.65 646.604C744.072 645.519 742.457 644.323 741.236 642.832C739.164 640.317 738.893 635.683 742.605 634.512C746.168 633.39 749.917 635.732 752.223 638.259C753.69 639.873 754.714 641.821 756.107 643.485C756.933 644.483 757.932 645.285 758.98 646.037C759.671 646.53 760.41 647.134 761.212 647.54C759.35 641.168 757.722 634.721 756.366 628.213C752.346 628.225 748.376 627.227 744.627 625.748C740.36 624.059 736.057 621.791 733.665 617.699C731.914 614.703 730.964 608.294 735.761 607.554C737.845 607.234 740.299 607.751 741.976 609.046C743.862 610.488 745.305 612.583 746.736 614.444C749.251 617.711 751.927 621.347 755.453 623.627C754.677 619.523 754.011 615.394 753.468 611.252C753.222 609.378 752.987 607.505 752.778 605.619C749.35 604.929 746.07 603.795 742.913 602.217C739.448 600.491 735.675 598.248 734.146 594.488C732.95 591.567 733.431 586.513 737.586 586.698C741.273 586.858 744.109 590.297 746.07 593.034C747.981 595.696 749.818 598.618 752.297 600.787C751.988 597.286 751.779 593.761 751.705 590.26C749.707 587.573 747.895 584.738 746.674 581.62C745.133 577.663 744.479 572.93 746.144 568.911C746.846 567.21 748.166 565.46 750.028 564.955C751.853 564.449 753.715 565.522 754.825 566.927C756.144 568.591 756.687 570.797 757.044 572.843C757.426 575.099 757.5 577.392 757.414 579.672C757.328 582.285 757.106 584.911 756.847 587.512C756.711 588.868 756.539 590.211 756.267 591.555C756.169 592.048 756.095 592.713 755.885 593.268C756.045 596.621 756.243 599.973 756.514 603.326C757.439 601.798 757.784 600.01 758.117 598.26C758.536 596.029 758.746 593.773 758.746 591.505C758.746 589.632 758.598 587.709 759.202 585.897C759.683 584.442 760.756 582.865 762.371 582.581C765.787 581.99 768.154 586.082 768.376 588.929C768.672 592.775 766.823 596.608 764.85 599.789C762.852 603.006 760.497 606.198 756.945 607.727C757.007 608.343 757.081 608.972 757.155 609.588C757.981 616.663 759.177 623.701 760.706 630.666C762.174 628.829 763.148 626.734 763.616 624.379C764.171 621.569 764.11 618.685 764.208 615.837C764.307 613.101 764.566 610.377 765.565 607.801C766.416 605.607 767.71 603.24 769.363 601.539C770.855 599.998 773.469 600.467 775.17 601.366C777.057 602.352 778.438 604.164 778.882 606.248C779.4 608.7 778.734 611.289 777.92 613.606C777.057 616.133 775.787 618.487 774.32 620.718Z" fill="#BBE7FF"/>
<path d="M770.398 685.591C767.907 684.519 765.552 683.052 763.246 681.635C760.941 680.217 758.696 678.701 756.501 677.111C755.478 676.371 754.479 675.607 753.48 674.83C750.965 676.248 748.449 677.838 745.761 678.91C743.418 679.835 740.755 680.279 738.338 679.342C736.119 678.479 734.146 676.088 735.354 673.659C735.958 672.439 737.191 671.811 738.486 671.589C739.953 671.33 741.47 671.244 742.95 671.194C744.627 671.145 746.304 671.231 747.968 671.428C748.548 671.49 749.103 671.589 749.658 671.687C748.005 670.27 746.402 668.803 744.849 667.287C740.089 668.692 734.861 668.088 730.545 665.635C728.93 664.723 725.255 662.332 727.758 660.323C728.794 659.484 730.483 659.497 731.753 659.558C733.233 659.632 734.676 660.002 736.082 660.47C737.302 660.865 738.511 661.333 739.694 661.863C737.537 659.41 735.49 656.859 733.578 654.221C733.307 653.839 733.036 653.457 732.765 653.075C729.867 653.235 727.006 653.494 724.121 652.951C721.704 652.508 719.324 651.448 717.536 649.722C716.722 648.933 715.736 647.799 715.711 646.616C715.674 645.334 716.771 644.298 718.029 644.348C719.361 644.397 720.767 644.816 722.037 645.211C723.356 645.617 724.651 646.135 725.884 646.776C727.216 647.454 728.473 648.28 729.67 649.18C729.978 649.414 730.298 649.66 730.619 649.882C728.954 647.269 727.45 644.557 726.143 641.747C723.911 640.946 721.753 640.071 719.743 638.764C717.894 637.568 716.229 636.003 715.033 634.142C714.54 633.365 713.787 632.367 714.54 631.516C715.218 630.74 716.525 630.998 717.376 631.282C718.448 631.639 719.361 632.342 720.212 633.069C721.026 633.76 721.839 634.437 722.678 635.091C723.072 635.411 723.479 635.719 723.862 636.052C723.22 634.117 722.703 632.132 722.296 630.136C722.16 630.148 722.037 630.099 721.926 630C721.913 629.988 721.901 629.975 721.889 629.951C718.559 629.532 715.341 627.621 714.219 624.305C713.775 622.999 713.343 620.435 715.329 620.25C716.155 620.176 716.821 620.718 717.339 621.285C718.005 622 718.646 622.74 719.262 623.492C719.99 624.367 720.693 625.267 721.359 626.191C721.482 626.364 721.605 626.536 721.728 626.709C721.593 625.624 721.482 624.54 721.42 623.443C721.112 623.455 720.878 623.233 720.964 622.9C721.013 622.728 721.075 622.555 721.137 622.395C720.705 621.692 720.372 620.891 720.125 620.139C719.78 619.091 719.472 617.982 719.373 616.873C719.201 615.036 719.46 613.088 720.335 611.449C720.742 610.697 721.297 609.686 722.222 609.526C723.072 609.366 723.615 610.118 723.849 610.833C724.466 612.657 724.676 614.679 724.503 616.589C724.404 617.662 724.182 618.709 723.812 619.72C723.418 620.817 722.715 621.717 722.246 622.765C722.222 622.814 722.197 622.863 722.16 622.912C722.505 625.747 723.122 628.533 723.973 631.257C724.293 629.556 725.144 627.966 726.402 626.721C726.895 626.241 728.621 624.466 729.312 625.341C729.669 625.797 729.633 626.709 729.608 627.251C729.583 628.028 729.423 628.767 729.189 629.507C728.769 630.826 728.153 632.28 727.24 633.328C726.821 633.821 726.316 634.154 725.711 634.388C725.576 634.437 725.378 634.561 725.169 634.672C726.34 637.741 727.783 640.724 729.398 643.584C729.485 641.907 729.781 640.243 730.533 638.715C731.038 637.692 731.716 636.73 732.543 635.954C733.122 635.411 734.096 634.462 734.984 634.709C735.995 634.992 735.551 636.644 735.44 637.371C735.28 638.542 735.009 639.701 734.651 640.822C734.318 641.858 733.973 642.955 733.282 643.805C732.641 644.594 731.63 644.964 730.989 645.741C730.927 645.815 730.866 645.889 730.779 645.962C731.827 647.676 732.925 649.34 734.072 650.955C735.255 652.631 736.488 654.27 737.771 655.873C737.438 654.11 737.265 652.323 737.45 650.523C737.635 648.6 738.091 646.542 739.448 645.075C740.015 644.471 741.002 643.707 741.902 643.842C742.987 644.003 742.864 645.543 742.938 646.357C743.135 648.687 743.184 651.066 742.666 653.358C742.247 655.269 741.421 657.192 740.089 658.646C741.963 660.828 743.936 662.923 745.983 664.933C745.453 663.305 745.009 661.666 744.775 659.94C744.442 657.463 744.577 654.924 745.391 652.545C745.724 651.583 746.23 650.301 747.389 650.153C748.412 650.018 749.35 651.115 749.843 651.879C750.496 652.89 750.78 654.085 750.928 655.269C751.101 656.625 751.199 658.005 751.236 659.373C751.31 662.122 750.866 664.982 748.992 667.102C748.856 667.262 748.696 667.348 748.536 667.373C750.854 669.506 753.258 671.527 755.737 673.45C755.392 672.71 755.083 671.958 754.8 671.207C753.85 668.717 753.295 665.993 753.665 663.342C753.838 662.134 754.381 660.988 755.49 660.384C756.538 659.817 757.611 660.088 758.376 660.976C759.942 662.812 760.324 665.426 760.447 667.743C760.595 670.566 760.213 673.425 759.362 676.125C760.879 677.185 762.42 678.22 763.986 679.206C765.256 680.007 766.539 680.772 767.846 681.511C769.165 682.263 770.522 682.929 771.816 683.73C772.827 684.371 771.286 685.973 770.398 685.591Z" fill="#76CBFF"/>
<path d="M972.353 262.926L859.069 284.977L881.77 307.67L758.523 430.882L682.948 355.323L637.508 400.745L637.533 400.77L340.051 698.595H430.424L682.948 446.179L758.462 521.665L758.523 521.603L758.585 521.665L927.222 353.104L949.553 375.427L972.353 262.926Z" fill="#15A6FF"/>
<path d="M758.536 430.882L800.843 473.174L777.205 412.208L758.536 430.882Z" fill="#22A0ED"/>
<path d="M682.947 446.179L649.235 407.697L666.091 463.017L682.947 446.179Z" fill="#0897A7"/>
<path d="M763.974 698.361C774.085 671.564 790.288 633.254 808.513 611.153C826.738 589.052 853.027 572.067 881.659 571.155C895.556 570.711 910.156 574.434 920.095 584.147C937.432 601.083 935.311 629.236 930.157 652.915C938.566 646.973 947.124 640.97 956.865 637.655C966.607 634.351 977.889 634.08 986.73 639.343C997.261 645.605 1002.27 658.363 1003.35 670.566C1012.92 665.549 1025.08 665.906 1034.34 671.453C1043.6 677 1049.64 687.564 1049.73 698.361H763.974Z" fill="#9DDAFF"/>
<path d="M938.381 722.841C936.051 717.812 934.325 711.871 933.585 709.134C934.399 708.789 935.2 708.432 935.94 708.037L913.929 609.009L903.67 495.238L832.163 503.385L823.162 615.295C822.989 617.391 822.989 619.498 823.15 621.594L830.795 720.758C830.795 720.758 831.436 720.857 832.521 720.98C831.892 722.977 828.403 725.331 825.936 726.662L810.843 735.673C809.29 736.93 809.919 739.297 811.842 739.851C822.73 742.945 834.395 735.032 838.797 738.286C840.622 739.63 842.028 739.063 843.865 738.927C845.863 738.767 847.306 736.967 847.022 734.97C846.307 729.892 846.295 724.222 846.369 721.153C847.17 721.054 847.959 720.931 848.711 720.77L854.766 619.511L868.811 545.899L882.424 613.656C882.843 615.714 883.411 617.736 884.138 619.708L918.751 712.956C918.751 712.956 919.355 712.869 920.354 712.709L920.452 713.214C920.847 715.273 917.937 718.86 915.816 720.98L903.966 733.972C902.844 735.624 904.126 737.707 906.124 737.682C917.444 737.509 926.322 726.564 931.476 728.4C933.609 729.165 934.793 728.215 936.507 727.55C938.369 726.81 939.22 724.653 938.381 722.841Z" fill="#35193F"/>
<path d="M864.754 566.989L876.148 507.293L864.988 474.271L832.151 503.385L830.499 523.982C839.316 528.506 857.208 540.647 864.754 566.989Z" fill="black"/>
<path d="M876.555 397.417C867.171 396.295 857.516 399.512 850.45 406.403C843.397 413.293 838.834 422.871 836.208 432.842C833.582 442.814 832.755 453.242 832.188 463.609C831.362 478.758 831.054 493.943 831.263 509.117C831.3 511.644 831.35 514.208 832.04 516.624C832.04 516.624 860.339 534.497 904.78 520.926C904.78 520.938 928.319 403.629 876.555 397.417Z" fill="#F1614F"/>
<path d="M855.124 376.524C853.311 375.489 852.768 373.159 852.534 371.088C852.3 369.017 852.103 366.737 850.598 365.282C849.538 364.259 848.033 363.877 846.726 363.187C844.704 362.115 843.089 360.118 842.805 357.85C842.435 354.891 844.396 351.945 847.084 350.664C849.772 349.369 852.99 349.554 855.777 350.602C857.442 351.231 859.02 352.155 860.783 352.414C863.99 352.882 867.171 351.058 870.389 351.403C872.794 351.662 875.026 353.227 876.098 355.397C876.394 356.001 876.616 356.666 877.097 357.147C877.615 357.665 878.355 357.899 879.082 357.998C880.784 358.232 882.597 357.862 884.187 358.491C886.678 359.477 887.689 362.497 887.788 365.172C888.072 372.432 883.571 379.655 876.925 382.588L855.124 376.524Z" fill="#361A19"/>
<path d="M894.459 405.466C901.747 411.087 920.958 437.958 929.442 450.062C931.464 452.946 935.73 452.971 937.777 450.099L958.814 420.676L972.809 426.963C972.809 426.963 961.379 449.643 951.317 467.072C941.255 484.501 917.37 488.384 906.321 467.541C896.987 449.914 880.451 427.949 880.451 427.949L894.459 405.466Z" fill="#F1614F"/>
<path d="M853.212 366.17C853.212 366.17 864.914 367.23 875.099 362.041C870.784 365.862 874.865 367.834 877.344 366.096C875.173 371.557 877.159 376.746 877.159 376.746C881.401 372.037 884.705 376.08 883.854 379.852C883.004 383.624 878.762 384.474 878.762 384.474L882.375 398.44C883.411 402.446 881.894 406.686 878.54 409.115L876.937 410.335C872.646 413.626 866.468 412.603 863.447 408.116C862.633 406.908 862.115 405.528 861.93 404.098L860.648 394.188C860.648 394.188 860.487 394.138 860.204 394.052C854.976 392.289 851.782 387.026 852.448 381.553L853.212 366.17Z" fill="#F792A4"/>
<path d="M860.66 394.175C860.66 394.175 868.009 395.383 872.732 389.614C872.732 389.614 869.921 397.762 860.993 396.776L860.66 394.175Z" fill="#E9697A"/>
<path d="M794.259 502.362C800.264 501.068 806.195 499.416 811.953 497.296C827.145 491.712 840.98 482.468 851.955 470.573L859.797 402.249C853.262 404.196 847.651 408.523 843.163 413.651C838.674 418.778 834.815 424.473 831.769 430.574C825.9 442.371 820.055 455.116 818.119 459.368C817.663 460.379 817.194 461.378 816.651 462.339C811.386 471.645 802.237 478.388 792.36 482.603C781.965 487.053 770.719 489.013 759.584 490.948C758.832 495.731 758.709 500.624 759.227 505.444C759.214 505.456 781.989 505 794.259 502.362Z" fill="#F1614F"/>
<path d="M986.139 389.849L980.812 399.167L987.027 403.753C988.173 404.591 988.568 406.107 988.001 407.413C986.829 410.088 984.264 414.316 979.295 415.832C977.581 416.362 976.151 417.558 975.423 419.197L972.673 425.422L960.614 419L966.2 411.333C966.705 410.643 967.013 409.817 967.087 408.967V408.93C967.507 404.455 967.272 399.956 966.409 395.556C966.409 395.556 966.052 394.237 967.766 394.237C969.48 394.237 970.047 396.382 970.047 396.382L971.983 402.113L983.34 387.815C983.66 387.408 984.153 387.174 984.671 387.174C985.645 387.174 986.41 387.987 986.361 388.961L986.348 389.121C986.348 389.356 986.274 389.614 986.139 389.849Z" fill="#F792A4"/>
<path d="M957.235 420.676L961.206 414.661L976.052 422.907L973.031 429.884L957.235 420.676Z" fill="white"/>
<path d="M747.044 492.267C747.044 492.267 742.543 486.733 737.956 490.899C737.956 490.899 728.325 491.318 732.173 500.23L733.529 507.835C733.776 509.24 734.959 510.263 736.377 510.337C739.3 510.473 744.22 510.042 747.783 506.257C749.017 504.951 750.731 504.199 752.519 504.273L759.313 504.569L758.894 490.911L749.547 492.526C748.721 492.662 747.845 492.575 747.044 492.267L747.007 492.255L747.044 492.267Z" fill="#E9697A"/>
<path d="M761.927 488.618L754.775 489.518L755.589 506.467L763.184 506.849L761.927 488.618Z" fill="white"/>
<path d="M873.57 413.33L875.95 411.087L879.107 417.915C879.107 417.915 884.101 409.435 884.508 402.84C884.631 400.831 883.99 398.847 882.831 397.207L875.087 408.436C874.101 409.866 873.57 411.58 873.57 413.33Z" fill="white"/>
<path d="M870.402 414.045L868.022 411.802L864.865 418.63C864.865 418.63 859.884 410.15 859.464 403.555C859.341 401.546 859.982 399.562 861.141 397.922L868.885 409.152C869.871 410.594 870.402 412.295 870.402 414.045Z" fill="white"/>
<path d="M886.604 457.926H885.235C881.82 457.926 879.045 455.153 879.045 451.738V442.432H892.782V451.738C892.794 455.153 890.02 457.926 886.604 457.926Z" fill="white"/>
<path d="M909.996 473.1L898.109 449.212L903.707 475.972L905.088 517.573C905.088 517.573 909.577 489.765 909.996 473.1Z" fill="#EF352E"/>
<path d="M715.994 386.496C715.994 386.496 711.235 381.183 716.056 377.313C716.056 377.313 717.98 367.871 726.167 373.06L733.467 375.587C734.811 376.056 735.65 377.374 735.489 378.792C735.169 381.701 733.973 386.484 729.682 389.417C728.202 390.428 727.191 392.006 726.981 393.781L726.204 400.535L712.776 397.996L715.822 389.01C716.118 388.209 716.167 387.346 715.994 386.496L715.982 386.459L715.994 386.496Z" fill="#F792A4"/>
<path d="M627.261 386.829C625.991 388.16 623.833 388.443 622.156 387.679C620.479 386.915 619.32 385.226 618.975 383.427C618.802 382.502 618.815 381.541 618.457 380.665C617.89 379.223 616.472 378.323 615.424 377.189C612.193 373.689 612.995 367.316 616.99 364.728C617.73 364.247 618.556 363.877 619.185 363.261C621.047 361.424 620.43 358.38 620.763 355.791C621.355 351.009 626.102 347.126 630.911 347.483C635.276 347.816 639.272 351.107 643.587 350.392C645.844 350.023 647.768 348.58 649.531 347.138C651.307 345.696 653.082 344.143 655.265 343.465C657.447 342.787 660.172 343.218 661.443 345.129C663.12 347.644 661.504 351.083 662.195 354.029C662.466 355.175 663.083 356.21 663.477 357.332C664.501 360.192 663.946 363.557 662.084 365.948C660.209 368.339 657.077 369.683 654.056 369.387C652.885 369.276 651.664 368.931 650.567 369.362C649.297 369.855 648.606 371.199 647.558 372.062C645.622 373.677 642.811 373.467 640.307 373.159C638.643 372.962 636.966 372.764 635.301 372.567L627.261 386.829Z" fill="#361A19"/>
<path d="M694.6 735.673L679.507 726.662C677.041 725.331 673.552 722.989 672.923 720.98C673.996 720.857 674.649 720.758 674.649 720.758L682.294 621.594C682.455 619.498 682.455 617.39 682.282 615.295L673.28 503.385L600.849 505.456L591.514 609.009L569.504 708.037C570.244 708.432 571.045 708.802 571.859 709.134C571.119 711.871 569.381 717.8 567.062 722.841C566.224 724.665 567.075 726.81 568.949 727.537C570.663 728.203 571.847 729.152 573.98 728.388C579.122 726.551 588.013 737.497 599.332 737.67C601.33 737.706 602.612 735.611 601.49 733.959L589.64 720.968C587.519 718.847 584.609 715.26 585.004 713.202L585.102 712.697C586.101 712.857 586.705 712.943 586.705 712.943L621.318 619.695C622.046 617.723 622.625 615.702 623.032 613.643L636.645 545.886L650.69 619.498L656.745 720.758C657.497 720.918 658.286 721.041 659.088 721.14C659.149 724.209 659.149 729.879 658.434 734.958C658.15 736.942 659.593 738.754 661.591 738.914C663.428 739.062 664.834 739.617 666.659 738.274C671.048 735.032 682.726 742.945 693.614 739.839C695.525 739.297 696.154 736.93 694.6 735.673Z" fill="#35193F"/>
<path d="M640.677 566.989L629.284 507.293L640.443 474.271L673.28 503.385L674.932 523.982C666.116 528.506 648.224 540.647 640.677 566.989Z" fill="black"/>
<path d="M628.877 397.417C638.261 396.295 647.916 399.512 654.981 406.403C662.034 413.293 666.597 422.87 669.223 432.842C671.85 442.814 672.676 453.242 673.243 463.608C674.069 478.757 676.77 493.943 676.548 509.117C676.511 511.644 676.462 514.208 675.771 516.623C675.771 516.623 647.003 534.496 594.091 520.617C594.091 520.629 577.112 403.629 628.877 397.417Z" fill="#3077A5"/>
<path d="M645.536 400.104C654.007 403.691 679.421 430.759 690.704 440.312C693.392 442.592 697.523 441.532 698.781 438.229L711.654 398.477L726.784 401.016C726.784 401.016 721.482 425.853 716.18 445.267C710.877 464.681 688.768 478.609 672.775 461.242C659.26 446.574 637.706 429.514 637.706 429.514L645.536 400.104Z" fill="#3077A5"/>
<path d="M641.972 408.116C641.972 408.116 666.905 437.489 655.844 523.378C655.844 523.378 636.756 528.186 621.454 525.338C621.454 525.338 632.342 425.533 625.732 408.116H641.972Z" fill="#3CBCAB"/>
<path d="M628.976 369.597C629.481 373.578 628.273 376.746 628.273 376.746C624.031 372.037 620.726 376.08 621.577 379.852C622.428 383.624 626.67 384.474 626.67 384.474L623.057 398.44C622.021 402.446 623.538 406.686 626.892 409.114L628.495 410.335C632.786 413.626 638.964 412.603 641.985 408.116C642.799 406.908 643.316 405.528 643.501 404.098L644.784 394.187C644.784 394.187 644.944 394.138 645.228 394.052C650.456 392.289 653.65 387.026 652.984 381.553L652.219 366.182C652.219 366.182 640.517 367.242 630.332 362.053C629.062 364.346 628.655 366.983 628.976 369.597Z" fill="#F792A4"/>
<path d="M644.772 394.175C644.772 394.175 637.422 395.383 632.7 389.614C632.7 389.614 635.511 397.762 644.439 396.776L644.772 394.175Z" fill="#E9697A"/>
<path d="M710.125 398.884L712.443 392.055L728.893 396.27L727.733 403.777L710.125 398.884Z" fill="#3CBCAB"/>
<path d="M680.889 503.989C674.883 502.695 668.952 501.043 663.194 498.923C648.002 493.339 634.167 484.095 623.193 472.2L615.35 403.876C621.885 405.823 627.496 410.15 631.984 415.277C636.473 420.393 640.332 426.1 643.378 432.201C649.248 443.998 655.092 456.743 657.028 460.995C657.485 462.006 657.953 463.005 658.496 463.966C663.761 473.272 672.911 480.015 682.788 484.23C693.182 488.68 704.428 490.64 715.563 492.575C716.315 497.358 716.438 502.251 715.921 507.071C715.933 507.083 693.158 506.627 680.889 503.989Z" fill="#3077A5"/>
<path d="M728.103 493.894C728.103 493.894 732.604 488.36 737.191 492.526C737.191 492.526 752.691 498.171 748.844 507.071C748.844 507.071 745.021 511.94 738.769 511.94C735.847 511.94 730.927 511.644 727.363 507.86C726.13 506.553 724.416 505.801 722.628 505.875L715.834 506.171L716.253 492.514L725.6 494.128C726.426 494.288 727.302 494.202 728.103 493.894L728.14 493.882L728.103 493.894Z" fill="#F792A4"/>
<path d="M713.22 490.246L720.372 491.145L719.558 508.094L711.962 508.476L713.22 490.246Z" fill="#3CBCAB"/>
<path d="M613.402 462.339L622.255 517.511L625.905 475.023L613.402 462.339Z" fill="#1A5982"/>
<path d="M672.775 461.242C672.775 461.242 670.198 423.82 662.454 413.601L667.621 418.47C667.621 418.47 682.06 452.761 682.418 467.923C682.405 467.935 678.484 467.146 672.775 461.242Z" fill="#1A5982"/>
<path d="M512.807 538.552H390.497C387.883 538.552 385.75 536.432 385.75 533.806V515.342C385.75 512.729 387.87 510.596 390.497 510.596H512.807C515.421 510.596 517.554 512.716 517.554 515.342V533.806C517.554 536.432 515.421 538.552 512.807 538.552Z" fill="#FFDD84"/>
<path d="M505.199 566.508H382.889C380.275 566.508 378.142 564.388 378.142 561.762V543.298C378.142 540.684 380.263 538.552 382.889 538.552H505.199C507.813 538.552 509.946 540.672 509.946 543.298V561.762C509.946 564.375 507.825 566.508 505.199 566.508Z" fill="#FFDD84"/>
<path d="M513.559 622.124H391.249C388.635 622.124 386.502 620.004 386.502 617.378V598.914C386.502 596.3 388.623 594.168 391.249 594.168H513.559C516.173 594.168 518.306 596.288 518.306 598.914V617.378C518.294 620.004 516.173 622.124 513.559 622.124Z" fill="#FFDD84"/>
<path d="M518.393 677.037H396.083C393.469 677.037 391.335 674.917 391.335 672.291V653.827C391.335 651.213 393.456 649.081 396.083 649.081H518.393C521.007 649.081 523.14 651.201 523.14 653.827V672.291C523.14 674.905 521.007 677.037 518.393 677.037Z" fill="#FFDD84"/>
<path d="M509.601 704.845H387.291C384.677 704.845 382.543 702.725 382.543 700.099V681.635C382.543 679.022 384.664 676.889 387.291 676.889H509.601C512.215 676.889 514.348 679.009 514.348 681.635V700.099C514.348 702.725 512.215 704.845 509.601 704.845Z" fill="#FFDD84"/>
<path d="M497.726 649.217H375.416C372.802 649.217 370.669 647.097 370.669 644.471V626.007C370.669 623.393 372.79 621.261 375.416 621.261H497.726C500.34 621.261 502.473 623.381 502.473 626.007V644.471C502.473 647.097 500.353 649.217 497.726 649.217Z" fill="#FFDD84"/>
<path d="M529.712 594.452H407.403C404.788 594.452 402.655 592.331 402.655 589.706V571.241C402.655 568.628 404.776 566.496 407.403 566.496H529.712C532.327 566.496 534.46 568.616 534.46 571.241V589.706C534.447 592.331 532.327 594.452 529.712 594.452Z" fill="#FFDD84"/>
<path d="M385.762 538.552L509.946 545.541V538.552H385.762Z" fill="#FFC844"/>
<path d="M378.388 621.273L502.572 631.96V621.273H378.388Z" fill="#FFC844"/>
<path d="M390.188 676.889L514.372 687.588V676.889H390.188Z" fill="#FFC844"/>
<path d="M394.159 594.168L518.356 601.169V594.168H394.159Z" fill="#FFC844"/>
<path d="M526.852 566.508L402.655 573.497V566.508H526.852Z" fill="#FFC844"/>
<path d="M515.532 649.315L391.335 656.317V649.315H515.532Z" fill="#FFC844"/>
<path d="M394.27 510.596H391.348V538.552H394.27V510.596Z" fill="#FFC844"/>
<path d="M405.047 510.596H402.125V538.552H405.047V510.596Z" fill="#FFC844"/>
<path d="M415.824 510.596H412.902V538.552H415.824V510.596Z" fill="#FFC844"/>
<path d="M426.614 510.596H423.691V538.552H426.614V510.596Z" fill="#FFC844"/>
<path d="M437.391 510.596H434.469V538.552H437.391V510.596Z" fill="#FFC844"/>
<path d="M448.181 510.596H445.258V538.552H448.181V510.596Z" fill="#FFC844"/>
<path d="M458.958 510.596H456.035V538.552H458.958V510.596Z" fill="#FFC844"/>
<path d="M469.735 510.596H466.812V538.552H469.735V510.596Z" fill="#FFC844"/>
<path d="M480.524 510.596H477.602V538.552H480.524V510.596Z" fill="#FFC844"/>
<path d="M491.301 510.596H488.379V538.552H491.301V510.596Z" fill="#FFC844"/>
<path d="M502.091 510.596H499.168V538.552H502.091V510.596Z" fill="#FFC844"/>
<path d="M512.868 510.596H509.946V538.552H512.868V510.596Z" fill="#FFC844"/>
<path d="M409.24 566.508H406.317V594.464H409.24V566.508Z" fill="#FFC844"/>
<path d="M420.017 566.508H417.095V594.464H420.017V566.508Z" fill="#FFC844"/>
<path d="M430.794 566.508H427.872V594.464H430.794V566.508Z" fill="#FFC844"/>
<path d="M441.584 566.508H438.661V594.464H441.584V566.508Z" fill="#FFC844"/>
<path d="M452.361 566.508H449.438V594.464H452.361V566.508Z" fill="#FFC844"/>
<path d="M463.15 566.508H460.228V594.464H463.15V566.508Z" fill="#FFC844"/>
<path d="M473.927 566.508H471.005V594.464H473.927V566.508Z" fill="#FFC844"/>
<path d="M484.705 566.508H481.782V594.464H484.705V566.508Z" fill="#FFC844"/>
<path d="M495.494 566.508H492.572V594.464H495.494V566.508Z" fill="#FFC844"/>
<path d="M506.271 566.508H503.349V594.464H506.271V566.508Z" fill="#FFC844"/>
<path d="M517.061 566.508H514.138V594.464H517.061V566.508Z" fill="#FFC844"/>
<path d="M527.838 566.508H524.916V594.464H527.838V566.508Z" fill="#FFC844"/>
<path d="M378.795 621.508H375.873V649.463H378.795V621.508Z" fill="#FFC844"/>
<path d="M389.572 621.508H386.65V649.463H389.572V621.508Z" fill="#FFC844"/>
<path d="M400.349 621.508H397.427V649.463H400.349V621.508Z" fill="#FFC844"/>
<path d="M411.139 621.508H408.216V649.463H411.139V621.508Z" fill="#FFC844"/>
<path d="M421.916 621.508H418.994V649.463H421.916V621.508Z" fill="#FFC844"/>
<path d="M432.706 621.508H429.783V649.463H432.706V621.508Z" fill="#FFC844"/>
<path d="M443.482 621.508H440.56V649.463H443.482V621.508Z" fill="#FFC844"/>
<path d="M454.26 621.508H451.337V649.463H454.26V621.508Z" fill="#FFC844"/>
<path d="M465.049 621.508H462.127V649.463H465.049V621.508Z" fill="#FFC844"/>
<path d="M475.826 621.508H472.904V649.463H475.826V621.508Z" fill="#FFC844"/>
<path d="M486.616 621.508H483.693V649.463H486.616V621.508Z" fill="#FFC844"/>
<path d="M497.393 621.508H494.471V649.463H497.393V621.508Z" fill="#FFC844"/>
<path d="M398.87 649.204H395.947V677.16H398.87V649.204Z" fill="#FFC844"/>
<path d="M409.659 649.204H406.737V677.16H409.659V649.204Z" fill="#FFC844"/>
<path d="M420.437 649.204H417.514V677.16H420.437V649.204Z" fill="#FFC844"/>
<path d="M431.213 649.204H428.291V677.16H431.213V649.204Z" fill="#FFC844"/>
<path d="M442.003 649.204H439.081V677.16H442.003V649.204Z" fill="#FFC844"/>
<path d="M452.78 649.204H449.858V677.16H452.78V649.204Z" fill="#FFC844"/>
<path d="M463.57 649.204H460.647V677.16H463.57V649.204Z" fill="#FFC844"/>
<path d="M474.347 649.204H471.424V677.16H474.347V649.204Z" fill="#FFC844"/>
<path d="M485.124 649.204H482.202V677.16H485.124V649.204Z" fill="#FFC844"/>
<path d="M495.914 649.204H492.991V677.16H495.914V649.204Z" fill="#FFC844"/>
<path d="M506.69 649.204H503.768V677.16H506.69V649.204Z" fill="#FFC844"/>
<path d="M517.48 649.204H514.558V677.16H517.48V649.204Z" fill="#FFC844"/>
<path d="M390.386 676.926H387.463V704.882H390.386V676.926Z" fill="#FFC844"/>
<path d="M401.175 676.926H398.253V704.882H401.175V676.926Z" fill="#FFC844"/>
<path d="M411.953 676.926H409.03V704.882H411.953V676.926Z" fill="#FFC844"/>
<path d="M422.742 676.926H419.819V704.882H422.742V676.926Z" fill="#FFC844"/>
<path d="M433.519 676.926H430.597V704.882H433.519V676.926Z" fill="#FFC844"/>
<path d="M444.296 676.926H441.374V704.882H444.296V676.926Z" fill="#FFC844"/>
<path d="M455.086 676.926H452.164V704.882H455.086V676.926Z" fill="#FFC844"/>
<path d="M465.863 676.926H462.94V704.882H465.863V676.926Z" fill="#FFC844"/>
<path d="M476.652 676.926H473.73V704.882H476.652V676.926Z" fill="#FFC844"/>
<path d="M487.43 676.926H484.507V704.882H487.43V676.926Z" fill="#FFC844"/>
<path d="M498.207 676.926H495.284V704.882H498.207V676.926Z" fill="#FFC844"/>
<path d="M508.996 676.926H506.074V704.882H508.996V676.926Z" fill="#FFC844"/>
<path d="M395.627 594.168H392.704V622.124H395.627V594.168Z" fill="#FFC844"/>
<path d="M406.404 594.168H403.481V622.124H406.404V594.168Z" fill="#FFC844"/>
<path d="M417.193 594.168H414.271V622.124H417.193V594.168Z" fill="#FFC844"/>
<path d="M427.97 594.168H425.048V622.124H427.97V594.168Z" fill="#FFC844"/>
<path d="M438.76 594.168H435.837V622.124H438.76V594.168Z" fill="#FFC844"/>
<path d="M449.537 594.168H446.615V622.124H449.537V594.168Z" fill="#FFC844"/>
<path d="M460.314 594.168H457.392V622.124H460.314V594.168Z" fill="#FFC844"/>
<path d="M471.104 594.168H468.181V622.124H471.104V594.168Z" fill="#FFC844"/>
<path d="M481.881 594.168H478.958V622.124H481.881V594.168Z" fill="#FFC844"/>
<path d="M492.671 594.168H489.748V622.124H492.671V594.168Z" fill="#FFC844"/>
<path d="M503.447 594.168H500.525V622.124H503.447V594.168Z" fill="#FFC844"/>
<path d="M514.225 594.168H511.302V622.124H514.225V594.168Z" fill="#FFC844"/>
<path d="M386.206 538.552H383.283V566.508H386.206V538.552Z" fill="#FFC844"/>
<path d="M396.995 538.552H394.073V566.508H396.995V538.552Z" fill="#FFC844"/>
<path d="M407.772 538.552H404.85V566.508H407.772V538.552Z" fill="#FFC844"/>
<path d="M418.562 538.552H415.639V566.508H418.562V538.552Z" fill="#FFC844"/>
<path d="M429.339 538.552H426.417V566.508H429.339V538.552Z" fill="#FFC844"/>
<path d="M440.116 538.552H437.194V566.508H440.116V538.552Z" fill="#FFC844"/>
<path d="M450.905 538.552H447.983V566.508H450.905V538.552Z" fill="#FFC844"/>
<path d="M461.683 538.552H458.76V566.508H461.683V538.552Z" fill="#FFC844"/>
<path d="M472.472 538.552H469.55V566.508H472.472V538.552Z" fill="#FFC844"/>
<path d="M483.25 538.552H480.327V566.508H483.25V538.552Z" fill="#FFC844"/>
<path d="M494.026 538.552H491.104V566.508H494.026V538.552Z" fill="#FFC844"/>
<path d="M504.816 538.552H501.894V566.508H504.816V538.552Z" fill="#FFC844"/>
<path d="M995.325 574.458C1025 574.458 1049.06 550.408 1049.06 520.741C1049.06 491.073 1025 467.023 995.325 467.023C965.647 467.023 941.587 491.073 941.587 520.741C941.587 550.408 965.647 574.458 995.325 574.458Z" fill="#05AB85"/>
<path d="M1055.64 520.186C1055.64 500.957 1046.61 483.836 1032.59 472.792C1022.32 464.792 1009.36 460.096 995.325 460.096V523.354L995.473 523.157L1052.68 538.885C1054.59 533.005 1055.64 526.719 1055.64 520.186Z" fill="#EC4952"/>
<path d="M975.941 470.635C955.842 478.412 941.575 497.9 941.575 520.741C941.575 524.562 941.982 528.297 942.747 531.896L995.325 523.366V467.023C988.482 467.011 981.959 468.305 975.941 470.635Z" fill="#FFDD84"/>
<path d="M327.895 259.808V451.493H580.122V259.808H327.895Z" fill="#B7E3FF"/>
<path d="M359.88 335.281H358.647V339.928H356.6V372.136H358.647V376.795H359.88V372.136H361.927V339.928H359.88V335.281Z" fill="#3CBCAB"/>
<path d="M370.385 359.28H369.152V363.927H367.105V403.543H369.152V408.19H370.385V403.543H372.432V363.927H370.385V359.28Z" fill="#3CBCAB"/>
<path d="M385.096 325.839H383.863V330.498H381.816V350.38H383.863V355.027H385.096V350.38H387.143V330.498H385.096V325.839Z" fill="#FFC844"/>
<path d="M399.807 348.79H398.574V353.437H396.527V385.658H398.574V390.305H399.807V385.658H401.854V353.437H399.807V348.79Z" fill="#3CBCAB"/>
<path d="M429.204 344.193H427.971V348.84H425.924V381.06H427.971V385.707H429.204V381.06H431.251V348.84H429.204V344.193Z" fill="#3CBCAB"/>
<path d="M443.926 319.737H442.693V324.397H440.646V341.814H442.693V346.461H443.926V341.814H445.973V324.397H443.926V319.737Z" fill="#3CBCAB"/>
<path d="M458.637 371.976H457.404V376.623H455.357V408.844H457.404V413.491H458.637V408.844H460.684V376.623H458.637V371.976Z" fill="#3CBCAB"/>
<path d="M473.348 349.554H472.115V354.201H470.068V381.492H472.115V386.139H473.348V381.492H475.395V354.201H473.348V349.554Z" fill="#3CBCAB"/>
<path d="M488.33 384.955H487.097V389.602H485.05V425.521H487.097V430.168H488.33V425.521H490.377V389.602H488.33V384.955Z" fill="#F1614F"/>
<path d="M502.757 370.164H501.524V374.823H499.477V407.032H501.524V411.678H502.757V407.032H504.804V374.823H502.757V370.164Z" fill="#3CBCAB"/>
<path d="M517.468 340.605H516.235V345.252H514.188V372.543H516.235V377.19H517.468V372.543H519.515V345.252H517.468V340.605Z" fill="#3CBCAB"/>
<path d="M532.178 331.287H530.945V335.934H528.898V343.502H530.945V348.149H532.178V343.502H534.225V335.934H532.178V331.287Z" fill="#FFC844"/>
<path d="M549.134 362.152H547.087V357.505H545.854V362.152H543.807V412.85H545.854V417.509H547.087V412.85H549.134V362.152Z" fill="#F1614F"/>
<path d="M416.565 381.677H414.518V377.03H413.285V381.677H411.238V421.293H413.285V425.94H414.518V421.293H416.565V381.677Z" fill="#F1614F"/>
<path d="M561.205 435.098H353.8C349.941 435.098 346.809 431.967 346.809 428.109L346.118 279.603" stroke="white" stroke-miterlimit="10" stroke-linecap="round" stroke-linejoin="round"/>
<path d="M359.263 353.893L366.242 373.911C367.339 377.054 371.828 376.931 372.753 373.726L381.84 342.183C382.728 339.101 386.995 338.83 388.265 341.789L410.251 393.177C411.459 395.987 415.467 395.925 416.576 393.078L439.068 335.28C440.313 332.088 444.95 332.507 445.603 335.86L455.752 387.679C456.417 391.056 461.079 391.451 462.299 388.234L469.229 369.905C470.376 366.86 474.729 366.996 475.691 370.114L485.21 401.078C486.086 403.913 489.896 404.369 491.412 401.817L527.542 340.926C529.071 338.35 532.955 338.855 533.769 341.739L546.309 386.188" stroke="white" stroke-miterlimit="10" stroke-linecap="round"/>
<path d="M360.841 353.277C360.841 354.152 360.138 354.854 359.263 354.854C358.387 354.854 357.685 354.152 357.685 353.277C357.685 352.402 358.387 351.699 359.263 351.699C360.138 351.699 360.841 352.402 360.841 353.277Z" fill="white"/>
<path d="M400.781 367.193C400.781 368.068 400.078 368.771 399.202 368.771C398.327 368.771 397.624 368.068 397.624 367.193C397.624 366.318 398.327 365.615 399.202 365.615C400.078 365.615 400.781 366.318 400.781 367.193Z" fill="white"/>
<path d="M430.153 362.484C430.153 363.359 429.45 364.062 428.574 364.062C427.699 364.062 426.996 363.359 426.996 362.484C426.996 361.609 427.699 360.906 428.574 360.906C429.45 360.906 430.153 361.609 430.153 362.484Z" fill="white"/>
<path d="M459.599 390.268C459.599 391.143 458.896 391.845 458.021 391.845C457.145 391.845 456.442 391.143 456.442 390.268C456.442 389.393 457.145 388.69 458.021 388.69C458.896 388.69 459.599 389.405 459.599 390.268Z" fill="white"/>
<path d="M474.285 367.846C474.285 368.721 473.582 369.424 472.707 369.424C471.831 369.424 471.128 368.721 471.128 367.846C471.128 366.971 471.831 366.269 472.707 366.269C473.582 366.269 474.285 366.971 474.285 367.846Z" fill="white"/>
<path d="M503.719 383.685C503.719 384.561 503.016 385.263 502.14 385.263C501.265 385.263 500.562 384.561 500.562 383.685C500.562 382.81 501.265 382.108 502.14 382.108C503.016 382.108 503.719 382.81 503.719 383.685Z" fill="white"/>
<path d="M548.048 386.89C548.048 387.765 547.345 388.468 546.47 388.468C545.594 388.468 544.892 387.765 544.892 386.89C544.892 386.015 545.594 385.312 546.47 385.312C547.345 385.312 548.048 386.015 548.048 386.89Z" fill="white"/>
<path d="M533.14 339.718C533.14 340.593 532.437 341.296 531.562 341.296C530.686 341.296 529.983 340.593 529.983 339.718C529.983 338.843 530.686 338.14 531.562 338.14C532.437 338.14 533.14 338.843 533.14 339.718Z" fill="white"/>
<path d="M518.43 358.898C518.43 359.773 517.727 360.475 516.851 360.475C515.976 360.475 515.273 359.773 515.273 358.898C515.273 358.022 515.976 357.32 516.851 357.32C517.727 357.32 518.43 358.035 518.43 358.898Z" fill="white"/>
<path d="M489.292 403.247C489.292 404.122 488.589 404.825 487.714 404.825C486.838 404.825 486.135 404.122 486.135 403.247C486.135 402.372 486.838 401.669 487.714 401.669C488.589 401.669 489.292 402.372 489.292 403.247Z" fill="white"/>
<path d="M371.125 375.994C371.125 376.869 370.423 377.572 369.547 377.572C368.672 377.572 367.969 376.869 367.969 375.994C367.969 375.119 368.672 374.416 369.547 374.416C370.423 374.416 371.125 375.119 371.125 375.994Z" fill="white"/>
<path d="M386.107 339.903C386.107 340.778 385.405 341.48 384.529 341.48C383.654 341.48 382.951 340.778 382.951 339.903C382.951 339.028 383.654 338.325 384.529 338.325C385.392 338.325 386.107 339.04 386.107 339.903Z" fill="white"/>
<path d="M444.888 333.284C444.888 334.159 444.185 334.861 443.31 334.861C442.434 334.861 441.731 334.159 441.731 333.284C441.731 332.408 442.434 331.706 443.31 331.706C444.185 331.706 444.888 332.421 444.888 333.284Z" fill="white"/>
<path d="M415.479 395.001C415.479 395.876 414.777 396.579 413.901 396.579C413.026 396.579 412.323 395.876 412.323 395.001C412.323 394.126 413.026 393.423 413.901 393.423C414.764 393.423 415.479 394.126 415.479 395.001Z" fill="white"/>
<path d="M421.275 468.194H242.292V600.047H421.275V468.194Z" fill="#AFE1FF"/>
<path d="M404.271 512.371H364.442V518.411H404.271V512.371Z" fill="#EF352E"/>
<path d="M389.585 521.69H364.442V527.73H389.585V521.69Z" fill="#EF352E"/>
<path d="M358.622 515.65L352.37 524.451L346.118 515.65H358.622Z" fill="#EF352E"/>
<path d="M316.759 520.05H259.013" stroke="white" stroke-width="3" stroke-miterlimit="10"/>
<path d="M404.271 483.589H364.442V489.629H404.271V483.589Z" fill="#3CBCAB"/>
<path d="M389.585 492.908H364.442V498.948H389.585V492.908Z" fill="#3CBCAB"/>
<path d="M346.118 495.669L352.37 486.868L358.622 495.669H346.118Z" fill="#3CBCAB"/>
<path d="M316.759 491.269H259.013" stroke="white" stroke-width="3" stroke-miterlimit="10"/>
<path d="M404.271 569.602H364.442V575.641H404.271V569.602Z" fill="#EF352E"/>
<path d="M389.585 578.92H364.442V584.96H389.585V578.92Z" fill="#EF352E"/>
<path d="M358.622 572.88L352.37 581.681L346.118 572.88H358.622Z" fill="#EF352E"/>
<path d="M316.759 577.281H259.013" stroke="white" stroke-width="3" stroke-miterlimit="10"/>
<path d="M404.271 540.82H364.442V546.86H404.271V540.82Z" fill="#3CBCAB"/>
<path d="M389.585 550.138H364.442V556.178H389.585V550.138Z" fill="#3CBCAB"/>
<path d="M346.118 552.9L352.37 544.099L358.622 552.9H346.118Z" fill="#3CBCAB"/>
<path d="M316.759 548.499H259.013" stroke="white" stroke-width="3" stroke-miterlimit="10"/>
<path d="M780.534 336.23L807.329 348.211V336.23H828.255V294.345H731.272V336.23H780.534Z" fill="#96D9FF"/>
<path d="M763.579 315.14C763.579 316.989 762.075 318.492 760.225 318.492C758.375 318.492 756.871 316.989 756.871 315.14C756.871 313.291 758.375 311.787 760.225 311.787C762.075 311.787 763.579 313.291 763.579 315.14Z" fill="white"/>
<path d="M776.551 315.14C776.551 316.989 775.047 318.492 773.197 318.492C771.348 318.492 769.843 316.989 769.843 315.14C769.843 313.291 771.348 311.787 773.197 311.787C775.047 311.787 776.551 313.291 776.551 315.14Z" fill="white"/>
<path d="M789.536 315.14C789.536 316.989 788.031 318.492 786.182 318.492C784.332 318.492 782.828 316.989 782.828 315.14C782.828 313.291 784.332 311.787 786.182 311.787C788.031 311.787 789.536 313.291 789.536 315.14Z" fill="white"/>
<path d="M802.508 315.14C802.508 316.989 801.003 318.492 799.154 318.492C797.304 318.492 795.8 316.989 795.8 315.14C795.8 313.291 797.304 311.787 799.154 311.787C801.003 311.787 802.508 313.291 802.508 315.14Z" fill="white"/>
<path d="M732.234 545.27L711.309 535.927V545.27H694.983V577.984H803.926V545.27H732.234Z" fill="#FFC844"/>
<path d="M735.293 561.54C735.293 563.389 733.788 564.893 731.938 564.893C730.089 564.893 728.584 563.389 728.584 561.54C728.584 559.691 730.089 558.188 731.938 558.188C733.788 558.188 735.293 559.691 735.293 561.54Z" fill="white"/>
<path d="M748.264 561.54C748.264 563.389 746.76 564.893 744.911 564.893C743.061 564.893 741.557 563.389 741.557 561.54C741.557 559.691 743.061 558.188 744.911 558.188C746.76 558.188 748.264 559.691 748.264 561.54Z" fill="white"/>
<path d="M761.249 561.54C761.249 563.389 759.745 564.893 757.895 564.893C756.045 564.893 754.541 563.389 754.541 561.54C754.541 559.691 756.045 558.188 757.895 558.188C759.745 558.188 761.249 559.691 761.249 561.54Z" fill="white"/>
<path d="M774.221 561.54C774.221 563.389 772.717 564.893 770.867 564.893C769.018 564.893 767.513 563.389 767.513 561.54C767.513 559.691 769.018 558.188 770.867 558.188C772.717 558.188 774.221 559.691 774.221 561.54Z" fill="white"/>
<path d="M663.716 284.654C680.835 267.541 680.835 239.796 663.716 222.684C646.597 205.571 618.842 205.571 601.723 222.684C584.604 239.796 584.604 267.541 601.723 284.654C618.842 301.766 646.597 301.766 663.716 284.654Z" fill="#FFDD84"/>
<path d="M663.716 284.654C680.835 267.541 680.835 239.796 663.716 222.684C646.597 205.571 618.842 205.571 601.723 222.684C584.604 239.796 584.604 267.541 601.723 284.654C618.842 301.766 646.597 301.766 663.716 284.654Z" stroke="#15A6FF" stroke-width="3" stroke-miterlimit="10" stroke-linecap="round" stroke-linejoin="round"/>
<path d="M632.724 220.437V253.669L660.321 262.926" stroke="#15A6FF" stroke-width="3" stroke-miterlimit="10" stroke-linecap="round" stroke-linejoin="round"/>
<path d="M1045.71 324.988H990.282V379.445H1045.71V324.988Z" fill="#79CBFD"/>
<path d="M1007.67 349.357H998.605V370.928H1007.67V349.357Z" fill="white"/>
<path d="M1022.67 342.972H1013.61V370.928H1022.67V342.972Z" fill="#3CBCAB"/>
<path d="M1037.67 336.772H1028.61V370.928H1037.67V336.772Z" fill="#EC4952"/>
<path d="M1041.43 324.668L1033.14 331.287V324.668V322.547V301.531H1091V324.668H1041.43Z" fill="#BCE7FF"/>
<path d="M506.69 744.671C506.69 746.705 502.375 748.356 497.06 748.356C491.745 748.356 487.43 746.705 487.43 744.671C487.43 742.637 491.745 740.985 497.06 740.985C502.375 740.985 506.69 742.637 506.69 744.671Z" fill="#F5F5F5"/>
<path d="M324.206 727.365C331.568 727.365 337.536 724.893 337.536 721.843C337.536 718.793 331.568 716.321 324.206 716.321C316.844 716.321 310.876 718.793 310.876 721.843C310.876 724.893 316.844 727.365 324.206 727.365Z" fill="#96D9FF"/>
<path d="M873.151 751.709C873.151 753.743 867.307 755.382 860.093 755.382C852.879 755.382 847.035 753.731 847.035 751.709C847.035 749.675 852.879 748.036 860.093 748.036C867.307 748.036 873.151 749.688 873.151 751.709Z" fill="#96D9FF"/>
<path d="M977.606 718.108C977.606 719.957 974.708 721.461 971.12 721.461C967.532 721.461 964.634 719.957 964.634 718.108C964.634 716.259 967.532 714.755 971.12 714.755C974.708 714.755 977.606 716.247 977.606 718.108Z" fill="#96D9FF"/>
<path d="M985.979 656.847C985.979 660.051 983.377 662.652 980.171 662.652C976.965 662.652 974.363 660.051 974.363 656.847C974.363 653.642 976.965 651.041 980.171 651.041C983.377 651.041 985.979 653.642 985.979 656.847Z" fill="#E1D6DE"/>
<path d="M963.228 667.435C964.549 667.435 965.62 666.364 965.62 665.044C965.62 663.723 964.549 662.652 963.228 662.652C961.907 662.652 960.836 663.723 960.836 665.044C960.836 666.364 961.907 667.435 963.228 667.435Z" fill="#E1D6DE"/>
<path d="M978.185 679.404C978.185 680.464 977.335 681.314 976.274 681.314C975.214 681.314 974.363 680.464 974.363 679.404C974.363 678.344 975.214 677.493 976.274 677.493C977.335 677.493 978.185 678.344 978.185 679.404Z" fill="#E1D6DE"/>
<path d="M820.819 632.811C820.819 636.385 817.921 639.282 814.345 639.282C810.769 639.282 807.872 636.385 807.872 632.811C807.872 629.236 810.769 626.339 814.345 626.339C817.921 626.339 820.819 629.236 820.819 632.811Z" fill="#E1D6DE"/>
<path d="M807.872 655.688C810.051 655.688 811.818 653.922 811.818 651.744C811.818 649.565 810.051 647.799 807.872 647.799C805.692 647.799 803.926 649.565 803.926 651.744C803.926 653.922 805.692 655.688 807.872 655.688Z" fill="#E1D6DE"/>
<path d="M319.336 237.842C322.16 235.968 325.982 236.769 327.807 239.641C329.114 241.7 331.531 242.772 333.936 242.365C337.29 241.798 340.446 244.091 340.939 247.456C341.297 249.872 343.06 251.832 345.428 252.436C348.72 253.274 350.669 256.664 349.756 259.93C349.103 262.285 349.916 264.787 351.828 266.303C354.491 268.411 354.898 272.293 352.728 274.907C351.174 276.78 350.89 279.418 352.025 281.575C353.603 284.583 352.395 288.293 349.349 289.809C347.167 290.894 345.847 293.186 345.995 295.615C346.205 299.004 343.591 301.901 340.2 302.049C337.758 302.148 335.625 303.701 334.774 305.993C333.59 309.174 330.027 310.764 326.87 309.519C324.601 308.619 322.012 309.174 320.31 310.912C317.93 313.34 314.034 313.34 311.654 310.912C309.952 309.174 307.363 308.619 305.094 309.519C301.937 310.764 298.373 309.186 297.19 305.993C296.339 303.713 294.206 302.16 291.764 302.049C288.373 301.901 285.759 299.004 285.969 295.615C286.117 293.186 284.797 290.894 282.615 289.809C279.569 288.305 278.36 284.583 279.939 281.575C281.073 279.418 280.79 276.793 279.236 274.907C277.066 272.293 277.485 268.411 280.136 266.303C282.047 264.787 282.861 262.272 282.208 259.93C281.295 256.664 283.243 253.274 286.536 252.436C288.903 251.832 290.667 249.872 291.024 247.456C291.517 244.103 294.686 241.798 298.028 242.365C300.433 242.772 302.849 241.7 304.157 239.641C305.982 236.769 309.792 235.968 312.628 237.842C314.662 239.185 317.301 239.185 319.336 237.842Z" fill="#FFC844"/>
<path d="M329.213 261.335C323.763 267.647 318.325 273.958 312.875 280.281C312.098 281.181 311.309 282.093 310.532 282.993C312.27 282.993 314.021 282.993 315.76 282.993C311.42 279.381 307.091 275.769 302.751 272.17C301.222 270.888 299.027 270.666 297.523 272.17C296.203 273.489 295.981 276.115 297.523 277.397C301.863 281.008 306.191 284.62 310.532 288.219C311.974 289.427 314.367 289.846 315.76 288.219C321.21 281.908 326.648 275.597 332.098 269.274C332.875 268.374 333.664 267.462 334.441 266.562C335.748 265.046 335.933 262.815 334.441 261.335C333.109 260.004 330.52 259.819 329.213 261.335Z" fill="white"/>
</g>
<g clip-path="url(#clip1)">
<rect width="139.487" height="168.956" transform="translate(414.195 592.08)" fill="white"/>
<path d="M545.738 761.035H422.148C417.757 761.035 414.195 757.479 414.195 753.095V600.02C414.195 595.636 417.757 592.08 422.148 592.08H545.738C550.129 592.08 553.69 595.636 553.69 600.02V753.095C553.682 757.479 550.129 761.035 545.738 761.035Z" fill="white"/>
<path d="M542.696 748.881H425.474V626.675C425.474 625.879 426.116 625.238 426.913 625.238C427.71 625.238 428.352 625.879 428.352 626.675V746.015H542.705C543.501 746.015 544.144 746.657 544.144 747.452C544.136 748.24 543.493 748.881 542.696 748.881Z" fill="#75CAFF"/>
<path d="M431.963 638.666H423.173C422.376 638.666 421.733 638.025 421.733 637.229C421.733 636.433 422.376 635.792 423.173 635.792H431.963C432.76 635.792 433.402 636.433 433.402 637.229C433.394 638.017 432.752 638.666 431.963 638.666Z" fill="#53BEFF"/>
<path d="M431.963 663.096H423.173C422.376 663.096 421.733 662.455 421.733 661.659C421.733 660.864 422.376 660.222 423.173 660.222H431.963C432.76 660.222 433.402 660.864 433.402 661.659C433.394 662.447 432.752 663.096 431.963 663.096Z" fill="#53BEFF"/>
<path d="M431.963 687.526H423.173C422.376 687.526 421.733 686.885 421.733 686.089C421.733 685.294 422.376 684.652 423.173 684.652H431.963C432.76 684.652 433.402 685.294 433.402 686.089C433.394 686.877 432.752 687.526 431.963 687.526Z" fill="#53BEFF"/>
<path d="M431.963 711.956H423.173C422.376 711.956 421.733 711.315 421.733 710.519C421.733 709.723 422.376 709.082 423.173 709.082H431.963C432.76 709.082 433.402 709.723 433.402 710.519C433.402 711.315 432.752 711.956 431.963 711.956Z" fill="#53BEFF"/>
<path d="M431.963 736.386H423.173C422.376 736.386 421.733 735.745 421.733 734.949C421.733 734.153 422.376 733.512 423.173 733.512H431.963C432.76 733.512 433.402 734.153 433.402 734.949C433.394 735.737 432.752 736.386 431.963 736.386Z" fill="#53BEFF"/>
<path d="M446.03 701.686H439.484V746.015H446.03V701.686Z" fill="#6FC8FF"/>
<path d="M457.145 680.43H450.6V746.023H457.145V680.43Z" fill="#6FC8FF"/>
<path d="M468.261 695.637H461.715V746.015H468.261V695.637Z" fill="#35A1E3"/>
<path d="M479.369 725.515H472.823V746.015H479.369V725.515Z" fill="#6FC8FF"/>
<path d="M490.484 736.386H483.938V746.023H490.484V736.386Z" fill="#6FC8FF"/>
<path d="M501.6 719.06H495.054V746.015H501.6V719.06Z" fill="#6FC8FF"/>
<path d="M512.716 691.196H506.17V746.023H512.716V691.196Z" fill="#6FC8FF"/>
<path d="M523.831 669.518H517.286V746.023H523.831V669.518Z" fill="#35A1E3"/>
<path d="M534.939 654.035H528.393V746.023H534.939V654.035Z" fill="#6FC8FF"/>
<path d="M526.499 607.611H465.708C464.667 607.611 463.813 606.759 463.813 605.719C463.813 604.68 464.667 603.828 465.708 603.828H526.507C527.548 603.828 528.402 604.68 528.402 605.719C528.393 606.759 527.54 607.611 526.499 607.611Z" fill="#7DAEEA"/>
<path d="M526.499 614.293H465.708C464.667 614.293 463.813 613.441 463.813 612.401C463.813 611.362 464.667 610.51 465.708 610.51H526.507C527.548 610.51 528.402 611.362 528.402 612.401C528.393 613.441 527.54 614.293 526.499 614.293Z" fill="#7DAEEA"/>
<path d="M526.499 620.967H465.708C464.667 620.967 463.813 620.114 463.813 619.075C463.813 618.036 464.667 617.183 465.708 617.183H526.507C527.548 617.183 528.402 618.036 528.402 619.075C528.393 620.122 527.54 620.967 526.499 620.967Z" fill="#7DAEEA"/>
<path d="M439.687 621.136C444.932 618.967 447.422 612.964 445.25 607.727C443.077 602.491 437.065 600.004 431.82 602.173C426.576 604.342 424.085 610.346 426.258 615.582C428.43 620.818 434.443 623.305 439.687 621.136Z" fill="#7DAEEA"/>
<path d="M440.68 611.866C440.68 614.699 438.378 616.997 435.54 616.997C432.703 616.997 430.401 614.699 430.401 611.866C430.401 609.032 432.703 606.734 435.54 606.734C438.378 606.734 440.68 609.032 440.68 611.866Z" fill="white"/>
</g>
<defs>
<linearGradient id="paint0_linear" x1="125.718" y1="-384.849" x2="1269.09" y2="1133.6" gradientUnits="userSpaceOnUse">
<stop stop-color="#56CCF2"/>
<stop offset="1" stop-color="#2F80ED"/>
</linearGradient>
<clipPath id="clip0">
<rect width="848.708" height="555" fill="white" transform="translate(242.292 208)"/>
</clipPath>
<clipPath id="clip1">
<rect width="139.487" height="168.956" fill="white" transform="translate(414.195 592.08)"/>
</clipPath>
</defs>
</svg>
