<svg width="1918" height="615" viewBox="0 0 1918 615" fill="none" xmlns="http://www.w3.org/2000/svg">
<mask id="mask0" mask-type="alpha" maskUnits="userSpaceOnUse" x="0" y="0" width="1919" height="615">
<rect width="1919" height="615" fill="#C4C4C4"/>
</mask>
<g mask="url(#mask0)">
<path d="M1931.62 600.754C1915.01 580.155 1899.77 558.527 1886.38 535.246C1870.95 508.415 1860.42 480.972 1840.66 457.581C1804.89 415.222 1761.61 382.737 1707.46 368.064C1655.38 353.95 1599.16 351.52 1543.75 356.986C1493.72 361.921 1444.39 366.318 1394.49 369.042C1359.47 370.953 1326.56 363.576 1292.87 358.001C1260.39 352.625 1221.37 349.276 1192.89 333.185C1162.41 315.96 1136.19 292.954 1106.27 274.61C1086 262.184 1063.21 255.318 1041.29 246.004C1020.5 237.173 998.429 231.298 975.851 227.561C931.827 220.276 888.851 211.565 843.22 215.195C824.296 216.701 804.922 220.951 785.879 223.427C767.704 225.79 749.481 226.067 731.392 228.587C711.189 231.402 691.81 230.176 672.254 226.939C657.164 224.442 639.188 220.647 625.109 215.462C611.788 210.556 597.702 205.121 585.382 198.254C574.832 192.373 567.103 184.45 555.004 181.413C494.244 166.16 432.958 154.258 370.65 143.946C343.95 139.528 317.251 135.109 290.551 130.691C263.941 126.287 235.963 126.685 208.791 124.774C182.6 122.932 156.005 122.602 130.311 118.35C115.39 115.88 98.2777 115.039 85.3715 107.237C67.1109 96.1988 47.6573 88.5888 29.7153 76.7606C13.0087 65.7468 -0.818026 52.5333 -14.391 37.6939" stroke="#15A6FF" stroke-opacity="0.08" stroke-width="3" stroke-linecap="round" stroke-linejoin="round"/>
<path d="M1990.11 622.729C1972.62 600.38 1956.6 576.905 1942.55 551.621C1926.35 522.483 1915.37 492.655 1894.56 467.282C1856.88 421.332 1811.15 386.167 1753.76 370.444C1698.55 355.318 1638.87 352.933 1579.98 359.14C1526.82 364.743 1474.4 369.759 1421.4 372.954C1384.19 375.197 1349.3 367.318 1313.56 361.404C1279.11 355.702 1237.69 352.236 1207.57 334.85C1175.33 316.239 1147.64 291.314 1116 271.483C1094.57 258.048 1070.42 250.679 1047.21 240.64C1025.2 231.122 1001.8 224.828 977.852 220.865C931.155 213.137 885.579 203.852 837.097 208.015C816.99 209.742 796.385 214.458 776.144 217.242C756.826 219.899 737.473 220.284 718.246 223.112C696.772 226.269 676.201 225.024 655.457 221.591C639.451 218.942 620.388 214.893 605.475 209.313C591.365 204.034 576.446 198.183 563.413 190.764C552.252 184.411 544.101 175.82 531.275 172.569C466.863 156.245 401.868 143.571 335.775 132.633C307.454 127.947 279.133 123.26 250.812 118.573C222.586 113.902 192.872 114.464 164.031 112.509C136.231 110.625 107.992 110.389 80.7372 105.878C64.9094 103.259 46.7439 102.422 33.0949 93.988C13.7834 82.0555 -6.81992 73.8607 -25.7874 61.0666C-43.4488 49.1535 -58.0362 34.8323 -72.3422 18.7399" stroke="#15A6FF" stroke-opacity="0.08" stroke-width="3" stroke-linecap="round" stroke-linejoin="round"/>
<path d="M2020.09 656.105C2002.59 630.728 1986.64 604.027 1972.8 575.209C1956.85 541.998 1946.32 507.896 1925.47 479.102C1887.7 426.957 1841.27 387.367 1782.16 370.356C1725.3 353.991 1663.43 352.365 1602.13 360.605C1546.8 368.045 1492.24 374.794 1437.14 379.461C1398.45 382.738 1362.47 374.327 1325.56 368.194C1289.96 362.28 1247.08 359.069 1216.32 339.635C1183.4 318.833 1155.4 290.682 1123.14 268.465C1101.29 253.414 1076.44 245.39 1052.64 234.278C1030.08 223.742 1005.98 216.941 981.24 212.83C933 204.816 885.969 194.989 835.528 200.684C814.608 203.046 793.085 208.857 771.995 212.437C751.868 215.854 731.77 216.66 711.731 220.272C689.351 224.305 668.037 223.258 646.608 219.697C630.072 216.95 610.406 212.65 595.092 206.511C580.602 200.703 565.288 194.252 551.979 185.963C540.58 178.864 532.373 169.136 519.156 165.637C452.782 148.067 385.695 134.706 317.418 123.362C288.161 118.501 258.904 113.64 229.647 108.779C200.488 103.935 169.632 105.137 139.756 103.429C110.957 101.782 81.6546 102.038 53.4995 97.3602C37.1488 94.6436 18.3195 94.0206 4.40031 84.5757C-15.2935 71.2125 -36.4375 62.1725 -55.7489 47.812C-73.7307 34.4403 -88.4513 18.2414 -102.828 -1.88659e-05" stroke="#15A6FF" stroke-opacity="0.08" stroke-width="3" stroke-linecap="round" stroke-linejoin="round"/>
</g>
</svg>
