<svg width="28" height="19" viewBox="0 0 28 19" fill="none" xmlns="http://www.w3.org/2000/svg">
<path d="M2.91872 0.09375H25.0811C26.3868 0.09375 27.4443 1.15786 27.4443 2.45703V16.6367C27.4443 17.9436 26.379 19 25.0811 19H2.91872C1.6239 19 0.555435 17.9481 0.555435 16.6367V2.45703C0.555435 1.16017 1.60878 0.09375 2.91872 0.09375ZM3.24968 1.66927C3.73253 2.14954 12.0419 10.4152 12.3288 10.7005C12.7752 11.1469 13.3686 11.3927 13.9999 11.3927C14.6311 11.3927 15.2246 11.1469 15.6725 10.6991C15.8654 10.5071 24.0831 2.33278 24.7501 1.66927H3.24968ZM25.8688 16.3161V2.7787L19.0606 9.55108L25.8688 16.3161ZM24.7491 17.4245L17.9435 10.6622L16.785 11.8146C16.0411 12.5585 15.052 12.9682 13.9999 12.9682C12.9478 12.9682 11.9587 12.5585 11.2162 11.8161L10.0562 10.6622L3.25068 17.4245H24.7491ZM2.13096 16.3161L8.93921 9.55108L2.13096 2.7787V16.3161Z" fill="#15A6FF"/>
</svg>
