<svg width="164" height="192" viewBox="0 0 164 192" fill="none" xmlns="http://www.w3.org/2000/svg">
<path d="M2.94 146.428V175.828H7.77V146.428H2.94ZM29.9831 146.428V157.81C28.3871 155.626 25.9091 154.282 22.6331 154.282C16.9211 154.282 12.1751 159.07 12.1751 165.328C12.1751 171.544 16.9211 176.374 22.6331 176.374C25.9091 176.374 28.3871 175.03 29.9831 172.804V175.828H34.5191V146.428H29.9831ZM23.3471 172.048C19.5671 172.048 16.7111 169.234 16.7111 165.328C16.7111 161.422 19.5671 158.608 23.3471 158.608C27.1271 158.608 29.9831 161.422 29.9831 165.328C29.9831 169.234 27.1271 172.048 23.3471 172.048ZM43.3762 167.26H60.0922C60.1762 166.672 60.2602 166 60.2602 165.37C60.2602 159.322 55.9762 154.282 49.7182 154.282C43.1242 154.282 38.6302 159.112 38.6302 165.328C38.6302 171.628 43.1242 176.374 50.0542 176.374C54.1702 176.374 57.3202 174.652 59.2522 171.796L55.5142 169.612C54.5062 171.082 52.6162 172.216 50.0962 172.216C46.7362 172.216 44.0902 170.536 43.3762 167.26ZM43.3342 163.564C43.9642 160.414 46.2742 158.398 49.6762 158.398C52.4062 158.398 55.0522 159.952 55.6822 163.564H43.3342ZM75.2975 154.282C72.4415 154.282 70.1735 155.332 68.7875 157.516V154.828H64.2515V175.828H68.7875V164.572C68.7875 160.288 71.1395 158.524 74.1215 158.524C76.9775 158.524 78.8255 160.204 78.8255 163.396V175.828H83.3615V162.934C83.3615 157.474 80.0015 154.282 75.2975 154.282ZM99.9636 159.196V154.828H94.7556V148.948L90.2196 150.292V154.828H86.3556V159.196H90.2196V169.276C90.2196 174.736 92.9916 176.668 99.9636 175.828V171.754C96.5196 171.922 94.7556 171.964 94.7556 169.276V159.196H99.9636ZM106.346 151.678C107.942 151.678 109.244 150.334 109.244 148.78C109.244 147.184 107.942 145.882 106.346 145.882C104.75 145.882 103.448 147.184 103.448 148.78C103.448 150.334 104.75 151.678 106.346 151.678ZM104.078 175.828H108.614V154.828H104.078V175.828ZM124.884 150.25V145.882C118.584 145.462 115.392 148.738 115.392 154.408V154.828H112.2V159.196H115.392V175.828H119.928V159.196H124.884V154.828H119.928V154.408C119.928 151.174 121.692 149.956 124.884 150.25ZM142.513 154.828L137.137 170.074L130.879 154.828H125.923L134.827 175.45L134.617 175.87C133.567 178.642 131.971 180.154 129.031 179.986V184.228C133.861 184.522 137.305 181.834 139.279 176.5L147.343 154.828H142.513Z" fill="black"/>
<path d="M136.01 97.0774L115.525 76.6407C115.421 76.5374 115.3 76.4616 115.192 76.3882C113.351 79.2182 111.15 81.9082 108.666 84.3917C106.185 86.8751 103.491 89.0762 100.631 90.9216C100.732 91.0272 100.808 91.1511 100.911 91.2521L121.355 111.735C125.401 115.774 131.972 115.77 136.005 111.735C140.042 107.695 140.045 101.122 136.01 97.0774Z" fill="#FFC844"/>
<path d="M105.747 13.9533C87.1375 -4.65187 56.8633 -4.65187 38.2513 13.9579C19.6209 32.5631 19.6186 62.8602 38.2375 81.4723C56.8565 100.075 87.1375 100.075 105.747 81.47C124.357 62.8602 124.355 32.5608 105.747 13.9533ZM47.0099 72.7091C33.2316 58.9308 33.2362 36.4994 47.0145 22.7349C60.7928 8.95888 83.2104 8.95888 96.9841 22.728C110.753 36.4994 110.749 58.9055 96.9841 72.7045C83.2081 86.4392 60.7928 86.4897 47.0099 72.7091Z" fill="#FFC844"/>
<path d="M56.8229 51.5605C55.8107 47.4016 51.6426 41.6313 48.1354 43.4698C45.3559 44.8883 46.1386 51.393 47.4492 55.2398C53.3066 72.7318 74.6087 76.4294 76.8236 74.2168C79.0018 72.0409 60.835 68.0197 56.8229 51.5605Z" fill="#FFDD84"/>
</svg>
