<svg width="381" height="1464" viewBox="0 0 381 1464" fill="none" xmlns="http://www.w3.org/2000/svg">
<path fill-rule="evenodd" clip-rule="evenodd" d="M-139.815 296.438C-31.8425 388.218 23.2981 506.291 106.266 616.129C201.209 741.82 386.947 845.333 380.832 985.701C374.74 1125.56 190.228 1173.48 78.2827 1258.53C-23.4465 1335.83 -104.93 1439.92 -242.635 1459.41C-385.001 1479.56 -533.158 1420.4 -676.274 1365.34C-838.78 1302.82 -1047.57 1264.13 -1124.1 1120.27C-1201 975.734 -1065.63 841.849 -1030.94 698.667C-1001.86 578.611 -999.995 455.555 -937.481 350.022C-855.892 212.287 -799.03 13.0272 -617.577 0.837958C-435.699 -11.3797 -284.562 173.399 -139.815 296.438Z" fill="url(#paint0_linear)" fill-opacity="0.2"/>
<defs>
<linearGradient id="paint0_linear" x1="-1029.24" y1="144.421" x2="121.857" y2="1706.61" gradientUnits="userSpaceOnUse">
<stop stop-color="#56CCF2"/>
<stop offset="1" stop-color="#2F80ED"/>
</linearGradient>
</defs>
</svg>
