<svg width="675" height="437" viewBox="0 0 675 437" fill="none" xmlns="http://www.w3.org/2000/svg">
<path fill-rule="evenodd" clip-rule="evenodd" d="M624.215 289.066L625.293 385.699C638.921 371.982 643.298 338.499 642.351 320.35C641.311 300.326 633.749 295.947 624.215 289.066Z" fill="#84CDB3"/>
<path fill-rule="evenodd" clip-rule="evenodd" d="M624.215 289.066L625.293 385.699C611.36 372.168 606.237 338.748 606.777 320.589C607.377 300.554 614.838 296.074 624.215 289.066Z" fill="#3DB390"/>
<path fill-rule="evenodd" clip-rule="evenodd" d="M667.832 310.692L627.526 388.341C644.282 380.853 662.049 355.164 669.025 340.388C676.72 324.092 672.533 318.647 667.832 310.692Z" fill="#84CDB3"/>
<path fill-rule="evenodd" clip-rule="evenodd" d="M667.831 310.692L627.526 388.341C622.135 373.935 632.269 345.864 640.438 331.465C649.454 315.579 657.336 313.902 667.831 310.692Z" fill="#3DB390"/>
<path fill-rule="evenodd" clip-rule="evenodd" d="M580.812 310.692L621.117 388.341C604.365 380.853 586.595 355.164 579.619 340.388C571.923 324.092 576.11 318.647 580.812 310.692Z" fill="#84CDB3"/>
<path fill-rule="evenodd" clip-rule="evenodd" d="M580.812 310.692L621.117 388.341C626.508 373.935 616.374 345.864 608.205 331.465C599.189 315.579 591.307 313.902 580.812 310.692Z" fill="#3DB390"/>
<path fill-rule="evenodd" clip-rule="evenodd" d="M594.775 383.563H655.606V409.308C655.606 423.468 644.017 435.053 629.853 435.053H620.528C606.363 435.053 594.775 423.468 594.775 409.308V383.563Z" fill="#C9DBF5"/>
<path fill-rule="evenodd" clip-rule="evenodd" d="M622.071 435.053H620.528C606.363 435.053 594.775 423.468 594.775 409.308V384.949L605.468 387.928C605.468 387.928 603.854 411.347 606.643 419.279C609.435 427.207 615.681 432.041 622.071 435.053Z" fill="#A2BEE5"/>
<path d="M655.606 383.563H594.775V387.928H655.606V383.563Z" fill="#A2BEE5"/>
<path fill-rule="evenodd" clip-rule="evenodd" d="M595.662 376.902H654.715C656.832 376.902 658.562 378.631 658.562 380.749C658.562 382.866 656.832 384.595 654.715 384.595H595.662C593.545 384.595 591.814 382.866 591.814 380.749C591.814 378.635 593.545 376.902 595.662 376.902Z" fill="#C9DBF5"/>
<path d="M598.078 228.067H494.899V435.053H598.078V228.067Z" fill="#E7F1FF"/>
<path d="M528.381 228.067H494.899V435.053H528.381V228.067Z" fill="#C9DBF5"/>
<path d="M605.01 228.067H600.7V435.053H605.01V228.067Z" fill="#D9E6F9"/>
<path d="M532.692 228.067H528.381V435.053H532.692V228.067Z" fill="#D9E6F9"/>
<path d="M600.7 228.067H528.381V234.833H600.7V228.067Z" fill="#D9E6F9"/>
<path d="M598.075 372.131H532.691V435.049H598.075V372.131Z" fill="#E7F1FF"/>
<path d="M600.696 372.135H598.075V435.053H600.696V372.135Z" fill="#C9DBF5"/>
<path d="M600.696 372.135H532.691V373.327H600.696V372.135Z" fill="#C9DBF5"/>
<path fill-rule="evenodd" clip-rule="evenodd" d="M67.79 416.054L69.2143 400.988L54.0952 401.354L54.2406 418.604L67.79 416.054Z" fill="#F4AF8F"/>
<path fill-rule="evenodd" clip-rule="evenodd" d="M68.532 414.783C72.8049 422.458 79.7697 429.801 74.3336 436.32H46.6531C46.6083 436.197 46.5636 436.059 46.5188 435.914C46.2504 435.019 44.9603 434.647 45.8216 431.378C47.4249 425.309 52.1414 415.98 53.7596 415.499C56.9736 414.548 61.5373 417.232 68.532 414.783Z" fill="#A1003F"/>
<path fill-rule="evenodd" clip-rule="evenodd" d="M76.3954 431.244V431.255L76.429 432.392C76.3507 434.013 75.7019 435.444 74.3298 436.32H46.6493C46.6046 436.197 46.5598 436.059 46.5151 435.914C46.366 435.415 46.0006 432.82 45.8179 431.378L76.3954 431.244Z" fill="#140505"/>
<path fill-rule="evenodd" clip-rule="evenodd" d="M114.147 207.246L97.9463 273.02L89.6801 312.18L71.3247 407.556C71.3247 407.556 67.4396 409.33 61.2316 408.969C55.0236 408.607 51.8879 407.69 51.8879 407.69C51.7537 379.526 51.0043 343.646 55.1988 309.917C58.8938 280.21 48.5882 259.724 49.7105 228.362C50.0609 218.54 60.8326 190.741 60.6909 191.095L114.147 207.246Z" fill="#35193F"/>
<path fill-rule="evenodd" clip-rule="evenodd" d="M110.996 220.042L106.843 236.905C85.5902 239.551 63.3943 237.74 49.7517 234.031C49.733 232.115 49.7181 230.225 49.7107 228.362C49.6995 226.416 50.132 223.762 50.8292 220.762C70.0945 220.65 101.559 220.437 104.617 220.225C105.627 220.154 107.976 220.094 110.996 220.042Z" fill="#12143C"/>
<path fill-rule="evenodd" clip-rule="evenodd" d="M134.616 416.054L134.561 400.474L119.441 400.836L121.067 418.604L134.616 416.054Z" fill="#F4AF8F"/>
<path fill-rule="evenodd" clip-rule="evenodd" d="M135.616 412.722C135.616 412.722 159.355 422.48 166.014 425.742C171.186 428.276 174.116 433.607 169.87 436.32H118.121C118.077 436.197 118.032 436.059 117.987 435.914C117.219 433.357 115.206 415.093 120.59 415.499C123.931 415.752 128.14 416.572 135.616 412.722Z" fill="#A1003F"/>
<path fill-rule="evenodd" clip-rule="evenodd" d="M171.931 431.244V431.255L171.965 432.392C171.887 434.013 171.238 435.444 169.866 436.32H118.122C118.077 436.197 118.032 436.059 117.987 435.914C117.838 435.415 117.473 432.82 117.29 431.378L171.931 431.244Z" fill="#140505"/>
<path fill-rule="evenodd" clip-rule="evenodd" d="M135.888 203.713L142.398 296.942L136.056 407.511C136.056 407.511 128.8 409.077 122.588 408.719C116.38 408.357 117.51 407.642 117.51 407.642L104.732 301.441C104.732 301.441 99.6915 280.169 92.0033 261.744C86.4516 248.438 79.6396 244.602 80.6425 229.141C81.6828 213.128 80.3368 200.72 82.5404 195.188C84.7439 189.657 95.7468 191.875 95.7468 191.875L135.888 203.713Z" fill="#35193F"/>
<path fill-rule="evenodd" clip-rule="evenodd" d="M136.816 219.822L137.454 230.9C124.55 234.803 106.705 238.836 81.0602 238.094C80.501 235.392 80.4003 232.924 80.6464 229.137C80.8403 226.144 80.9521 223.278 81.0192 220.557C92.9244 220.456 102.954 220.34 104.613 220.225C108.293 219.968 129.65 219.852 136.816 219.822Z" fill="#12143C"/>
<path fill-rule="evenodd" clip-rule="evenodd" d="M107.991 324.685L104.736 301.434C104.736 301.434 101.19 290.919 97.1597 276.758V276.755L100.239 254.722L108.386 307.61L107.991 324.685Z" fill="#12143C"/>
<path fill-rule="evenodd" clip-rule="evenodd" d="M136.354 398.003L136.451 401.905C129.113 402.625 123.129 402.982 116.816 401.849L116.324 397.805C122.122 399.218 128.554 398.8 136.354 398.003Z" fill="#984886"/>
<path fill-rule="evenodd" clip-rule="evenodd" d="M73.2117 397.958L72.425 401.946C65.0873 402.666 58.2045 402.982 51.8921 401.849L51.9182 397.805C57.716 399.218 65.408 398.756 73.2117 397.958Z" fill="#984886"/>
<path fill-rule="evenodd" clip-rule="evenodd" d="M108.203 121.386C116.369 139.87 119.639 181.113 142.882 198.446C163.755 206.78 175.458 219.081 187.289 208.722C192.431 204.22 191.021 201.316 188.963 199.504C179.672 192.188 149.556 167.911 147.614 165.719C141.999 159.383 126.682 96.4682 109.747 90.0981C107.741 88.7749 102.406 112.436 108.203 121.386Z" fill="#189BEB"/>
<path fill-rule="evenodd" clip-rule="evenodd" d="M117.831 140.962C123.539 149.87 120.12 184.487 142.879 198.446C151.246 202.058 170.205 215.812 182.74 211.913L181.741 211.618C181.741 211.618 155.522 199.236 144.601 191.155C133.684 183.074 119.218 125.128 119.218 125.128C119.218 125.128 119.572 137.168 117.831 140.962Z" fill="#15A6FF"/>
<path fill-rule="evenodd" clip-rule="evenodd" d="M49.718 229.681C87.0069 236.528 116.108 233.189 138.501 226.345C136.126 198.576 129.758 112.295 109.743 90.0943C85.1054 82.8818 57.4883 85.9905 43.9612 98.1977C43.3945 98.6934 42.8277 99.2451 42.261 99.8452L40.0947 142.412C50.7359 123.287 50.1207 226.383 49.718 229.681Z" fill="#15A6FF"/>
<path fill-rule="evenodd" clip-rule="evenodd" d="M46.2283 96.3378C45.024 87.9959 49.6958 85.7333 57.0298 84.589C57.0298 84.589 58.0887 80.0565 61.2878 78.5097C74.1884 72.27 98.6661 74.8307 100.993 82.7365C101.507 84.4884 106.127 82.621 107.044 88.7637C107.838 94.0939 93.8489 104.952 89.0018 106.163C89.0018 106.163 73.1817 104.78 70.3481 103.297C60.1095 97.9554 58.1073 92.3084 46.2283 96.3378Z" fill="#048ADC"/>
<path fill-rule="evenodd" clip-rule="evenodd" d="M52.3392 230.848C76.6007 234.874 97.8458 234.378 115.765 231.552H115.769L115.784 231.549C123.095 230.397 129.851 228.858 136.033 227.076L134.34 227.296L138.505 226.342L136.76 202.464C124.169 199.393 120.023 195.404 116.596 182.59C103.603 181.557 90.5975 182.992 77.9131 185.467C75.1204 194.54 71.0526 203.735 57.6337 208.092C53.633 186.552 49.5466 145.528 47.4399 133.969C44.7741 137.842 44.8859 135.024 41.8062 140.287C44.5019 158.846 50.9298 209.684 48.4355 230.158C49.7367 230.408 51.038 230.632 52.3392 230.848Z" fill="#059BF7"/>
<path fill-rule="evenodd" clip-rule="evenodd" d="M192.793 203.049C194.873 202.456 203.143 200.216 205.078 200.88C206.066 201.219 205.861 201.528 205.615 202.035C205.399 202.479 204.552 203.202 203.859 203.47C202.401 204.029 200.544 206.169 199.698 206.359C203.706 214.321 215.566 217.221 213.087 221.22C212.222 221.604 206.696 221.925 205.298 222.379C200.846 223.833 198.497 224.072 184.679 212.957C184.027 212.431 182.002 211.38 181.301 210.798C181.607 209.244 183.643 205.077 187.588 202.527L192.793 203.049Z" fill="#F4B1B1"/>
<path d="M94.8704 86.9968C86.3656 85.4872 76.1271 83.8323 62.835 88.7189C65.3666 102.316 72.7528 106.226 79.7214 106.983C75.7468 115.318 78.1144 136.258 78.1219 136.336L80.057 136.131C80.0495 136.053 77.4992 113.32 81.5297 107.114C82.5103 107.151 83.476 107.136 84.4082 107.084C85.2694 107.039 86.086 106.931 86.8615 106.774C88.4312 108.098 89.7437 110.382 90.8212 113.07C93.9271 120.793 95.0083 131.658 95.1388 133.817L97.0814 133.701C96.9472 131.483 95.8323 120.32 92.6295 112.347C91.6415 109.894 90.4484 107.725 89.0091 106.163C96.3059 103.427 98.6474 95.2046 94.8704 86.9968Z" fill="#048ADC"/>
<path fill-rule="evenodd" clip-rule="evenodd" d="M100.09 69.2097C97.7562 74.3311 94.3596 78.3381 90.4856 80.377L90.8921 87.6752C99.6391 102.454 70.3069 109.041 69.2704 88.1523L70.7693 86.3482L70.7283 76.001C70.1093 75.9898 65.5121 73.6006 64.1549 73.239C62.8014 72.8775 60.7358 70.3689 60.5009 67.6479C60.266 64.9269 64.5128 65.6538 64.5128 65.6538C59.1475 58.8662 53.1558 53.3795 60.4114 46.8118C67.6671 40.2442 84.74 35.9316 84.74 35.9316L94.9636 31.9545C93.7817 35.5775 95.1277 46.5882 98.0657 53.9311C100.706 60.5137 103.226 62.3327 100.09 69.2097Z" fill="#F4B1B1"/>
<path fill-rule="evenodd" clip-rule="evenodd" d="M75.6685 77.2498C79.2851 82.9489 83.4797 88.8382 90.8994 87.6715L90.4893 80.3733C87.1896 81.0293 83.9346 80.8914 75.6685 77.2498Z" fill="#D86C6F"/>
<path fill-rule="evenodd" clip-rule="evenodd" d="M93.7406 48.0082C85.3999 52.6824 75.4112 47.8852 70.676 53.9012C68.3308 56.8832 68.7334 61.0355 71.7237 67.3646C72.6037 69.2283 73.7371 70.585 70.4821 69.2208C68.987 68.5946 66.5299 67.7336 65.7283 68.4343C63.9423 69.9887 64.99 73.0787 66.4963 74.0291C67.1675 74.4541 68.4314 75.0765 68.4314 75.0765C48.5883 73.9248 37.8651 23.3814 86.6191 27.243C87.995 27.3511 87.0479 23.3628 88.4871 23.3068C99.4415 22.9006 107.577 39.3085 93.7406 48.0082Z" fill="#A1003F"/>
<path fill-rule="evenodd" clip-rule="evenodd" d="M141.801 415.316C148.997 418.309 161.063 423.371 166.014 425.742C163.423 427.74 160.951 427.341 160.951 427.341C160.951 427.341 146.898 422.961 142.905 420.125C140.545 418.447 141.018 416.572 141.801 415.316Z" fill="#C03C57"/>
<path fill-rule="evenodd" clip-rule="evenodd" d="M57.0111 414.496H64.6993C65.747 414.496 66.6083 415.354 66.6083 416.405V424.035C66.6083 425.086 65.7507 425.943 64.6993 425.943H57.0111C55.9633 425.943 55.1021 425.086 55.1021 424.035V416.405C55.1058 415.354 55.9633 414.496 57.0111 414.496Z" fill="#C03C57"/>
<path d="M56.4966 119.861C55.9037 107.292 51.3214 91.8834 40.6541 100.781C21.113 117.081 -1.43711 153.698 0.91931 171.295C3.65231 186.466 29.6997 225.085 38.7004 218.38C43.7488 214.619 42.9695 210.582 42.2462 208.901C35.7959 198.621 28.268 175.194 27.608 172.041C25.3299 155.092 57.2311 135.475 56.4966 119.861Z" fill="#189BEB"/>
<path fill-rule="evenodd" clip-rule="evenodd" d="M44.211 211.674C45.1021 211.361 46.7912 210.605 48.8195 209.803L49.0357 214.123C53.5137 221.828 62.1414 225.499 61.1459 228.817C60.3033 229.253 51.7538 229.983 50.3854 230.52C46.5302 232.041 38.6033 220.84 34.3193 217.709C33.3946 215.622 35.2253 208.678 41.3289 209.143L44.211 211.674Z" fill="#F4B1B1"/>
<path fill-rule="evenodd" clip-rule="evenodd" d="M96.9772 133.209L95.2695 133.403L96.3844 141.547L98.092 141.353L96.9772 133.209Z" fill="white"/>
<path d="M79.9833 135.905L78.2163 136.026L78.7754 144.214L80.5424 144.094L79.9833 135.905Z" fill="white"/>
<path fill-rule="evenodd" clip-rule="evenodd" d="M303.786 1.56519H562.926C569.074 1.56519 574.104 7.85702 574.104 15.5429V194.648C574.104 202.337 569.074 208.625 562.926 208.625H303.786C297.638 208.625 292.608 202.333 292.608 194.648V15.5429C292.608 7.85329 297.638 1.56519 303.786 1.56519Z" fill="#B1CBEF"/>
<path fill-rule="evenodd" clip-rule="evenodd" d="M302.944 14.5438H563.769C565.722 14.5438 567.318 16.1391 567.318 18.0923V192.094C567.318 194.047 565.722 195.643 563.769 195.643H302.944C300.99 195.643 299.395 194.047 299.395 192.094V18.0923C299.395 16.1391 300.99 14.5438 302.944 14.5438Z" fill="white"/>
<path fill-rule="evenodd" clip-rule="evenodd" d="M327.019 329.352L318.5 330.261L329.092 430.61C329.338 432.954 331.46 434.665 333.801 434.416C336.143 434.166 337.858 432.045 337.612 429.7L327.019 329.352Z" fill="#C9DBF5"/>
<path fill-rule="evenodd" clip-rule="evenodd" d="M318.544 330.671L329.088 430.587C329.312 432.708 331.057 434.315 333.115 434.43C334.42 433.573 335.214 432.026 335.043 430.371L324.454 330.041L318.544 330.671Z" fill="#86A7D5"/>
<path fill-rule="evenodd" clip-rule="evenodd" d="M177.483 329.352L186.003 330.276L175.403 432.522C175.16 434.867 173.043 436.574 170.701 436.32C168.36 436.067 166.641 433.942 166.883 431.598L177.483 329.352Z" fill="#86A7D5"/>
<path fill-rule="evenodd" clip-rule="evenodd" d="M260.8 329.352L252.281 330.265L262.877 431.367C263.123 433.711 265.241 435.422 267.583 435.168C269.928 434.919 271.643 432.794 271.397 430.45L260.8 329.352Z" fill="#C9DBF5"/>
<path fill-rule="evenodd" clip-rule="evenodd" d="M252.326 330.679L262.87 431.314C263.094 433.45 264.839 435.072 266.897 435.187C268.202 434.322 268.996 432.768 268.824 431.098L258.235 330.045L252.326 330.679Z" fill="#86A7D5"/>
<path fill-rule="evenodd" clip-rule="evenodd" d="M243.977 329.352L252.497 330.276L241.897 432.522C241.655 434.867 239.537 436.574 237.195 436.32C234.854 436.067 233.135 433.942 233.377 431.598L243.977 329.352Z" fill="#86A7D5"/>
<path fill-rule="evenodd" clip-rule="evenodd" d="M249.399 316.831H328.272C332.515 316.831 335.982 320.301 335.982 324.54C335.982 328.781 332.511 332.248 328.272 332.248H249.399C245.156 332.248 241.688 328.778 241.688 324.54C241.688 320.301 245.159 316.831 249.399 316.831Z" fill="#A2BEE5"/>
<path fill-rule="evenodd" clip-rule="evenodd" d="M225.566 197H153.449L171.588 317.118L243.705 317.185C243.985 317.185 244.268 317.163 244.552 317.118C247.52 317.118 249.507 313.875 249.041 310.946L231.744 201.491C231.282 198.558 228.538 197 225.566 197Z" fill="#B1CBEF"/>
<path fill-rule="evenodd" clip-rule="evenodd" d="M158.781 201.487L177.449 318.997C177.915 321.93 175.928 325.173 172.957 325.173C169.989 325.173 167.244 323.615 166.778 320.686L148.11 203.176C147.644 200.242 149.631 197.003 152.599 197.003C155.574 197 158.315 198.558 158.781 201.487Z" fill="#86A7D5"/>
<path fill-rule="evenodd" clip-rule="evenodd" d="M176.503 316.831H257.124C261.367 316.831 264.835 320.301 264.835 324.54C264.835 328.781 261.364 332.248 257.124 332.248H176.503C172.26 332.248 168.792 328.778 168.792 324.54C168.792 320.301 172.263 316.831 176.503 316.831Z" fill="#86A7D5"/>
<path fill-rule="evenodd" clip-rule="evenodd" d="M255.148 194.398C259.145 203.168 264.104 228.578 282.199 240.837C301.881 254.174 348.529 248.352 347.157 241.352C347 240.561 341.579 237.46 338.723 237.24C336.329 237.054 330.032 237.684 327.66 237.069C316.49 234.158 303.354 229.745 285.152 214.578C279.454 209.829 272.206 181.393 256.017 173.073C254.108 171.843 249.567 185.996 255.148 194.398Z" fill="#F4B1B1"/>
<path fill-rule="evenodd" clip-rule="evenodd" d="M267.083 217.37C272.732 216.244 278.921 211.272 282.866 207.332C276.292 190.663 267.124 172.231 252.091 167.016L249.999 179.365L253 198.271L267.083 217.37Z" fill="#F79F2D"/>
<path fill-rule="evenodd" clip-rule="evenodd" d="M316.061 422.794L320.27 408.387L307.75 405.04L303.611 419.838L316.061 422.794Z" fill="#F4AF8F"/>
<path fill-rule="evenodd" clip-rule="evenodd" d="M241.338 275.681L270.182 270.213C270.182 270.213 343.201 274 358.529 302.582C373.861 331.163 322.717 411.477 322.717 411.477L303.828 409.17C303.828 409.17 314.357 358.317 319.286 343.098C324.219 327.879 327.004 320.16 327.004 320.16L244.876 291.22L241.338 275.681Z" fill="#0F4884"/>
<path fill-rule="evenodd" clip-rule="evenodd" d="M303.619 409.982C304.514 405.867 305.916 399.389 307.564 391.58C305.83 399.516 304.395 406.289 303.619 409.982ZM244.876 291.22L321.453 318.203C323.757 302.09 322.332 289.964 301.829 285.547C295.778 284.243 260.517 278.339 252.184 278.186L241.338 275.677L244.876 291.22Z" fill="#093A6E"/>
<path fill-rule="evenodd" clip-rule="evenodd" d="M288.161 418.746L289.395 405.692L276.296 406.005L276.419 420.952L288.161 418.746Z" fill="#F4AF8F"/>
<path fill-rule="evenodd" clip-rule="evenodd" d="M288.806 416.535C292.508 423.185 298.541 429.548 293.832 435.195H269.85C269.809 435.086 269.772 434.971 269.734 434.844C269.503 434.069 268.385 433.748 269.13 430.916C270.521 425.656 274.604 417.572 276.009 417.158C278.791 416.33 282.743 418.656 288.806 416.535Z" fill="#031542"/>
<path fill-rule="evenodd" clip-rule="evenodd" d="M295.617 430.796V430.807C295.67 432.574 295.487 434.132 293.828 435.195H269.846C268.608 434.475 268.284 433.983 269.126 430.916L295.617 430.796Z" fill="#2D8EF8"/>
<path fill-rule="evenodd" clip-rule="evenodd" d="M279.283 415.883H284.838C285.602 415.883 286.225 416.509 286.225 417.27V424.411C286.225 425.175 285.602 425.798 284.838 425.798H279.283C278.518 425.798 277.896 425.175 277.896 424.411V417.27C277.892 416.509 278.518 415.883 279.283 415.883Z" fill="#0F4884"/>
<path fill-rule="evenodd" clip-rule="evenodd" d="M202.964 278.026C202.964 278.026 199.951 306.339 215.175 313.626C230.398 320.913 277.907 321.684 277.907 321.684C268.329 357.628 276.628 378.911 273.485 410.996L294.126 411.101C294.126 411.101 306.818 353.915 311.516 321.502C313.887 305.15 314.383 292.145 293.664 287.683C286.695 286.181 241.342 275.677 241.342 275.677L202.964 278.026Z" fill="#0F4884"/>
<path fill-rule="evenodd" clip-rule="evenodd" d="M187.043 177.595C180.276 205.196 203.653 235.507 201.689 290.449C221.99 293.267 272.963 277.459 276.333 270.686C273.541 250.182 269.581 235.667 269.16 224.455C268.552 208.267 267.497 180.726 258.116 170.748C249.156 161.209 207.091 158.984 187.043 177.595Z" fill="#F79F2D"/>
<path d="M243.918 164.735C236.837 163.237 227.777 161.783 216.002 164.526C211.696 176.689 227.371 185.001 237.825 183.499C248.716 181.933 250.021 169.055 243.918 164.735Z" fill="#F1800E"/>
<path fill-rule="evenodd" clip-rule="evenodd" d="M248.649 239.358L208.519 228.977L202.584 208.115L196.846 207.399C196.846 207.399 189.933 223.371 190.063 224.347C190.194 225.324 196.894 239.194 196.517 239.276C196.145 239.358 222.733 243.383 224.884 243.514C227.039 243.648 248.649 239.358 248.649 239.358Z" fill="#F1800E"/>
<path fill-rule="evenodd" clip-rule="evenodd" d="M240.939 158.343L241.021 165.466L242.053 166.353C246.084 170.729 241.625 179.63 237.001 179.321C225.305 179.816 216.398 170.166 219.947 164.989L221.487 163.3L221.893 153.221C221.289 153.184 216.916 150.657 215.615 150.247C214.313 149.833 212.412 147.306 212.3 144.645C212.192 141.987 216.293 142.874 216.293 142.874C211.364 136.031 205.768 130.432 213.116 124.353C220.465 118.273 237.277 114.811 237.277 114.811L247.404 111.381C246.095 114.855 246.487 122.325 249.03 129.601C252.639 139.952 252.016 156.956 240.939 158.343Z" fill="#F4B1B1"/>
<path fill-rule="evenodd" clip-rule="evenodd" d="M226.644 154.656C226.644 154.656 232.289 164.493 236.975 165.414C241.662 166.334 239.268 165.66 241.021 165.466L240.939 158.343C237.699 158.839 234.537 158.563 226.644 154.656Z" fill="#E98385"/>
<path fill-rule="evenodd" clip-rule="evenodd" d="M358.864 240.837H280.439C279.313 240.837 278.392 241.758 278.392 242.884C278.392 244.009 279.313 244.93 280.439 244.93H360.911V242.884C360.911 241.758 359.99 240.837 358.864 240.837Z" fill="#91AED8"/>
<path fill-rule="evenodd" clip-rule="evenodd" d="M193.549 175.191C173.945 183.946 181.514 225.059 185.007 240.032C188.423 253.995 269.015 247.077 281.02 246.563C280.152 243.976 278.623 238.198 272.9 236.707C269.022 235.697 252.124 237.181 247.084 236.186C223.165 231.455 201.648 232.924 201.547 232.033C200.805 214.06 208.639 189.634 198.796 177.744C197.893 176.655 195.007 174.538 193.549 175.191Z" fill="#F4B1B1"/>
<path fill-rule="evenodd" clip-rule="evenodd" d="M319.737 165.421H233.254C229.902 165.421 229.265 168.258 228.638 171.586L217.632 229.998C217.181 232.827 215.95 237.617 223.441 237.639L312.034 237.703L324.987 170.733C325.539 167.863 322.623 165.421 319.737 165.421Z" fill="#91AED8"/>
<path fill-rule="evenodd" clip-rule="evenodd" d="M324.58 165.421H236.013C232.661 165.421 232.024 168.254 231.397 171.586L220.391 229.998H220.402L219.794 233.472C219.395 235.764 221.7 237.703 224.026 237.703H311.877C314.204 237.703 315.77 235.772 316.109 233.472L316.624 229.998H316.736L327.742 170.733C328.275 167.859 327.466 165.421 324.58 165.421Z" fill="#B1CBEF"/>
<path fill-rule="evenodd" clip-rule="evenodd" d="M220.48 236.003C221.286 237.028 222.65 237.703 224.023 237.703H311.874C312.951 237.703 313.869 237.289 314.573 236.614L301.684 227.236L244.175 227.918L220.48 236.003Z" fill="#7A9BCB"/>
<path fill-rule="evenodd" clip-rule="evenodd" d="M314.577 236.611C315.394 235.832 315.927 234.702 316.109 233.468L316.624 229.994H316.736L327.742 170.729C328.119 168.701 327.824 166.886 326.602 165.999L309.521 182.631L301.688 227.236L314.577 236.611Z" fill="#95B4DF"/>
<path fill-rule="evenodd" clip-rule="evenodd" d="M234.738 165.585C232.479 166.237 231.934 168.727 231.394 171.586L220.387 229.998H220.398L219.791 233.472C219.627 234.411 219.917 235.295 220.48 236.007L244.179 227.918L251.785 182.63L234.738 165.585Z" fill="#CCDEF6"/>
<path fill-rule="evenodd" clip-rule="evenodd" d="M324.581 165.421H236.014C235.536 165.421 235.115 165.477 234.742 165.585L251.789 182.627H309.521L327.023 166.379C326.486 165.779 325.684 165.421 324.581 165.421Z" fill="#DFEBFB"/>
<path fill-rule="evenodd" clip-rule="evenodd" d="M497.908 244.93H247.08V258.349H497.908C501.599 258.349 504.619 255.329 504.619 251.639C504.619 247.949 501.599 244.93 497.908 244.93Z" fill="#86A7D5"/>
<path fill-rule="evenodd" clip-rule="evenodd" d="M497.908 244.93H248.974V251.639H504.619C504.619 247.949 501.599 244.93 497.908 244.93Z" fill="#A2BEE5"/>
<path fill-rule="evenodd" clip-rule="evenodd" d="M254.917 244.93H150.012C146.32 244.93 143.3 247.949 143.3 251.639C143.3 255.329 146.32 258.349 150.012 258.349H254.913C258.605 258.349 261.625 255.329 261.625 251.639C261.629 247.949 258.608 244.93 254.917 244.93Z" fill="#C9DBF5"/>
<path fill-rule="evenodd" clip-rule="evenodd" d="M228.735 429.145H182.923C180.943 429.145 179.321 430.766 179.321 432.746C179.321 434.725 180.939 436.346 182.923 436.346H228.739C230.719 436.346 232.341 434.725 232.341 432.746C232.337 430.766 230.715 429.145 228.735 429.145Z" fill="#A2BEE5"/>
<path fill-rule="evenodd" clip-rule="evenodd" d="M224.489 429.145H178.676C176.697 429.145 175.075 430.766 175.075 432.746C175.075 434.725 176.693 436.346 178.676 436.346H224.492C226.472 436.346 228.094 434.725 228.094 432.746C228.09 430.766 226.469 429.145 224.489 429.145Z" fill="#C9DBF5"/>
<path fill-rule="evenodd" clip-rule="evenodd" d="M477.304 427.773H427.398C425.433 427.773 423.826 429.38 423.826 431.344C423.826 433.308 425.433 434.915 427.398 434.915H477.304C479.269 434.915 480.876 433.308 480.876 431.344C480.876 429.38 479.269 427.773 477.304 427.773Z" fill="#A2BEE5"/>
<path fill-rule="evenodd" clip-rule="evenodd" d="M472.733 427.773H422.827C420.862 427.773 419.255 429.38 419.255 431.344C419.255 433.308 420.862 434.915 422.827 434.915H472.733C474.698 434.915 476.305 433.308 476.305 431.344C476.305 429.38 474.698 427.773 472.733 427.773Z" fill="#C9DBF5"/>
<path d="M453.24 258.349H442.319V427.773H453.24V258.349Z" fill="#C9DBF5"/>
<path d="M453.24 258.349H451.171V427.773H453.24V258.349Z" fill="#A2BEE5"/>
<path d="M208.329 258.349H196.872V429.145H208.329V258.349Z" fill="#C9DBF5"/>
<path d="M208.329 258.349H206.159V429.145H208.329V258.349Z" fill="#A2BEE5"/>
<path fill-rule="evenodd" clip-rule="evenodd" d="M248.303 127.338C240.249 130.969 228.116 124.479 223.195 130.73C220.76 133.828 221.178 138.144 224.284 144.719C225.197 146.657 226.375 148.066 222.993 146.65C221.439 146.001 218.888 145.107 218.053 145.834C216.2 147.448 217.285 150.661 218.851 151.648C219.548 152.088 220.865 152.737 220.865 152.737C195.444 148.804 194.843 97.7056 240.45 104.605C241.867 104.817 242.098 102.268 243.556 102.596C254.936 105.172 258.112 121.84 248.303 127.338Z" fill="#12496F"/>
<path fill-rule="evenodd" clip-rule="evenodd" d="M319.129 416.136C319.129 416.136 336.404 423.23 342.161 426.047C346.635 428.239 349.166 432.846 345.494 435.195H300.752C300.711 435.086 300.673 434.971 300.636 434.844C299.972 432.634 298.231 416.845 302.884 417.195C305.778 417.415 312.668 419.465 319.129 416.136Z" fill="#031542"/>
<path fill-rule="evenodd" clip-rule="evenodd" d="M347.28 430.807V430.819L347.239 432.6C347.171 434.002 346.676 434.438 345.486 435.198H300.539C300.498 435.09 300.461 434.975 300.423 434.848C300.293 434.415 299.976 432.172 299.819 430.927L347.28 430.807Z" fill="#2D8EF8"/>
<path fill-rule="evenodd" clip-rule="evenodd" d="M321.035 416.942C327.257 419.528 337.686 423.908 341.97 425.954C339.729 427.68 337.593 427.337 337.593 427.337C337.593 427.337 325.445 423.547 321.989 421.098C319.95 419.651 320.36 418.026 321.035 416.942Z" fill="#0F4884"/>
<path fill-rule="evenodd" clip-rule="evenodd" d="M202.102 175.448C202.102 175.448 205.492 184.185 205.104 199.046C204.712 213.911 202.691 227.601 202.691 227.601C202.691 227.601 201.125 228.447 193.564 230.013C185.999 231.578 181.368 229.167 181.368 229.167C179.083 215.521 175.626 180.498 192.431 173.901C196.081 172.462 202.102 175.448 202.102 175.448Z" fill="#F79F2D"/>
<path fill-rule="evenodd" clip-rule="evenodd" d="M283.559 200.664H268.466L273.91 244.93H289.003L283.559 200.664Z" fill="#91AED8"/>
<path fill-rule="evenodd" clip-rule="evenodd" d="M293.384 196.291H266.834C265.827 196.291 265.637 197.141 265.45 198.14L262.151 215.651H262.154L261.972 216.691C261.852 217.377 262.542 217.959 263.239 217.959H289.574C290.271 217.959 290.741 217.381 290.841 216.691L290.994 215.651H291.028L294.328 197.887C294.492 197.022 294.249 196.291 293.384 196.291Z" fill="#91AED8"/>
<path fill-rule="evenodd" clip-rule="evenodd" d="M427.029 165.421H340.55C337.198 165.421 336.56 168.258 335.934 171.586L324.927 229.998C324.476 232.827 323.246 237.617 330.736 237.639L419.33 237.703L432.282 170.733C432.831 167.863 429.919 165.421 427.029 165.421Z" fill="#91AED8"/>
<path fill-rule="evenodd" clip-rule="evenodd" d="M431.876 165.421H343.309C339.957 165.421 339.32 168.254 338.693 171.586L327.687 229.998H327.698L327.09 233.472C326.691 235.764 328.995 237.703 331.322 237.703H419.173C421.5 237.703 423.066 235.772 423.405 233.472L423.92 229.998H424.032L435.038 170.733C435.568 167.859 434.762 165.421 431.876 165.421Z" fill="#B1CBEF"/>
<path fill-rule="evenodd" clip-rule="evenodd" d="M327.776 236.003C328.581 237.028 329.946 237.703 331.318 237.703H419.169C420.247 237.703 421.164 237.289 421.869 236.614L408.979 227.236L351.474 227.914L327.776 236.003Z" fill="#7A9BCB"/>
<path fill-rule="evenodd" clip-rule="evenodd" d="M421.872 236.611C422.689 235.832 423.222 234.702 423.405 233.468L423.919 229.994H424.031L435.038 170.729C435.414 168.701 435.12 166.886 433.897 165.999L416.817 182.631L408.983 227.236L421.872 236.611Z" fill="#95B4DF"/>
<path fill-rule="evenodd" clip-rule="evenodd" d="M342.034 165.585C339.774 166.237 339.23 168.727 338.689 171.586L327.683 229.998H327.694L327.086 233.472C326.922 234.411 327.213 235.295 327.776 236.007L351.474 227.918L359.08 182.63L342.034 165.585Z" fill="#CCDEF6"/>
<path fill-rule="evenodd" clip-rule="evenodd" d="M431.876 165.421H343.309C342.832 165.421 342.41 165.477 342.038 165.585L359.084 182.627H416.817L434.318 166.379C433.781 165.779 432.98 165.421 431.876 165.421Z" fill="#DFEBFB"/>
<path fill-rule="evenodd" clip-rule="evenodd" d="M400.68 196.291H374.129C373.122 196.291 372.932 197.141 372.746 198.14L369.446 215.651H369.45L369.267 216.691C369.148 217.377 369.837 217.959 370.535 217.959H396.869C397.566 217.959 398.036 217.381 398.137 216.691L398.29 215.651H398.323L401.623 197.883C401.787 197.022 401.545 196.291 400.68 196.291Z" fill="#91AED8"/>
<path d="M416.954 87.7386H407.752V133.701H416.954V87.7386Z" fill="#2FB470"/>
<path d="M412.853 80.6416H411.857V140.79H412.853V80.6416Z" fill="#2FB470"/>
<path d="M403.677 63.943H394.475V87.4591H403.677V63.943Z" fill="#2FB470"/>
<path d="M399.572 63.943H398.577V97.1652H399.572V63.943Z" fill="#2FB470"/>
<path d="M388.375 59.2205H379.173V66.1273H388.375V59.2205Z" fill="#2FB470"/>
<path d="M384.27 42.9839H383.275V84.4063H384.27V42.9839Z" fill="#2FB470"/>
<path d="M372.093 71.6176H362.891V85.4312H372.093V71.6176Z" fill="#FF2B2B"/>
<path d="M367.988 69.4856H366.992V87.5597H367.988V69.4856Z" fill="#FF2B2B"/>
<path d="M356.709 84.9655H347.507V109.808H356.709V84.9655Z" fill="#FF2B2B"/>
<path d="M352.608 74.8342H351.612V119.939H352.608V74.8342Z" fill="#FF2B2B"/>
<path d="M341.601 70H332.399V83.8137H341.601V70Z" fill="#2FB470"/>
<path d="M337.5 63.0261H336.504V90.784H337.5V63.0261Z" fill="#2FB470"/>
<path d="M325.755 84.9655H316.553V109.808H325.755V84.9655Z" fill="#FF2B2B"/>
<path d="M321.654 74.8342H320.658V119.939H321.654V74.8342Z" fill="#FF2B2B"/>
<path d="M178.441 25.454C186.13 5.12106 208.851 -5.13299 229.19 2.55289C249.529 10.2388 259.786 32.9535 252.098 53.2864C244.41 73.6193 221.692 83.8733 201.349 76.1874C181.01 68.5016 170.753 45.7906 178.441 25.454Z" fill="#D3E2F6"/>
<path d="M203.709 30.5977C203.601 31.3245 203.579 32.1483 203.616 32.931L203.583 33.0242C203.706 33.2031 203.926 34.5487 204.049 34.9066C204.254 35.5067 204.638 36.0807 204.779 36.5503C204.891 36.6286 205.507 37.4896 205.659 37.6648C206.017 38.086 206.267 38.2165 206.7 38.6339C207.121 38.9135 207.494 39.2229 208.005 39.5471C209.373 40.4156 210.876 41.1127 212.442 41.6718C214.459 42.3911 217.203 43.3565 218.239 44.6947C219.694 46.577 218.664 49.2905 215.674 49.7266C213.963 49.9764 211.334 49.8347 209.589 49.4135C209.034 49.2794 208.471 49.0706 207.919 48.9364C207.419 48.7165 205.536 48.0381 205.29 47.8033L204.809 47.684C204.783 47.904 204.757 48.0866 204.619 48.2692C204.675 48.5488 204.463 49.3092 204.343 49.544C204.31 49.7676 203.717 52.3321 203.515 52.6154C203.534 52.8614 203.445 53.5286 203.441 53.8939C203.571 53.9759 203.463 53.8976 203.594 53.9945L203.844 54.2293C204.079 54.2442 204.962 54.5797 205.141 54.7176L208.128 55.5712L209.515 55.8582L211.614 56.1303C211.811 56.1079 211.823 56.093 212.043 56.134C212.05 56.134 212.181 56.175 212.199 56.1825C212.345 56.2421 212.27 56.2123 212.319 56.257L212.401 56.4732C212.46 56.8534 212.319 60.4205 212.43 61.1884L217.643 61.1846C217.751 59.6042 217.691 57.7592 217.702 56.1676C217.706 55.6047 217.818 55.7352 218.355 55.6085C219.813 55.2655 220.462 54.8481 221.289 54.6282C221.446 54.4828 222.434 54.0094 222.743 53.8044C222.99 53.6441 223.206 53.5099 223.433 53.3273C223.687 53.1223 223.821 52.962 224.052 52.8726C224.175 52.6415 225.186 51.7133 225.976 50.3268C227.069 48.4109 226.789 47.6319 227.087 46.9647V44.7916C226.96 44.4673 226.983 43.9119 226.908 43.5317C226.442 41.1537 224.556 39.1036 222.576 37.8698C219.101 35.7079 212.177 34.4369 211.8 31.4624C211.584 29.7516 213.06 28.7825 214.451 28.4507C216.069 28.0668 218.135 28.2122 219.697 28.5551C220.823 28.8011 223.937 29.9193 224.026 29.923C224.276 29.6062 224.209 29.2484 224.421 29.0024C224.41 28.652 224.578 28.1339 224.697 27.8171C224.82 27.0716 225.57 24.5705 225.484 23.9555C224.899 23.5567 224.582 23.6051 224.283 23.3554L224.246 23.3815C223.907 23.3069 222.736 23.0535 222.527 22.8484C222.207 22.9155 220.883 22.554 220.406 22.4757C219.943 22.4012 218.456 22.3378 218.206 22.1924C217.654 21.8681 218.027 18.8303 217.896 17.5406H212.673C212.602 18.4986 212.826 22.0322 212.509 22.5652C212.076 23.0497 205.223 23.4821 203.709 30.5977Z" fill="white"/>
<path fill-rule="evenodd" clip-rule="evenodd" d="M391.776 200.664H376.683L382.127 244.93H397.22L391.776 200.664Z" fill="#91AED8"/>
<path d="M675 434.596H15.2134V436.701H675V434.596Z" fill="#D0DFF4"/>
<path d="M600.696 234.833H598.075V366.935H600.696V234.833Z" fill="#C9DBF5"/>
<path d="M600.696 234.833H532.691V236.025H600.696V234.833Z" fill="#C9DBF5"/>
<path d="M600.696 366.935H532.691V372.131H600.696V366.935Z" fill="#D9E6F9"/>
<path fill-rule="evenodd" clip-rule="evenodd" d="M584.536 256.407C583.354 256.407 582.389 257.372 582.389 258.554V275.044C582.389 276.225 583.354 277.191 584.536 277.191C585.718 277.191 586.684 276.225 586.684 275.044V258.554C586.684 257.372 585.718 256.407 584.536 256.407Z" fill="#C9DBF5"/>
<path fill-rule="evenodd" clip-rule="evenodd" d="M584.536 384.897C583.354 384.897 582.389 385.862 582.389 387.044V403.534C582.389 404.716 583.354 405.681 584.536 405.681C585.718 405.681 586.684 404.716 586.684 403.534V387.044C586.684 385.862 585.718 384.897 584.536 384.897Z" fill="#C9DBF5"/>
</svg>
