<svg width="123" height="192" viewBox="0 0 123 192" fill="none" xmlns="http://www.w3.org/2000/svg">
<path d="M22.05 146.428H0.63V151.048H8.946V175.828H13.776V151.048H22.05V146.428ZM27.1156 158.356V154.828H22.5796V175.828H27.1156V165.244C27.1156 160.54 30.6016 159.154 33.5836 159.364V154.45C30.9376 154.45 28.3756 155.5 27.1156 158.356ZM52.5827 154.828V157.81C50.9867 155.626 48.5087 154.282 45.2327 154.282C39.5207 154.282 34.7747 159.07 34.7747 165.328C34.7747 171.544 39.5207 176.374 45.2327 176.374C48.5087 176.374 50.9867 175.03 52.5827 172.804V175.828H57.1187V154.828H52.5827ZM45.9467 172.048C42.1667 172.048 39.3107 169.234 39.3107 165.328C39.3107 161.422 42.1667 158.608 45.9467 158.608C49.7267 158.608 52.5827 161.422 52.5827 165.328C52.5827 169.234 49.7267 172.048 45.9467 172.048ZM79.0378 146.428V157.81C77.4418 155.626 74.9638 154.282 71.6878 154.282C65.9758 154.282 61.2298 159.07 61.2298 165.328C61.2298 171.544 65.9758 176.374 71.6878 176.374C74.9638 176.374 77.4418 175.03 79.0378 172.804V175.828H83.5738V146.428H79.0378ZM72.4018 172.048C68.6218 172.048 65.7658 169.234 65.7658 165.328C65.7658 161.422 68.6218 158.608 72.4018 158.608C76.1818 158.608 79.0378 161.422 79.0378 165.328C79.0378 169.234 76.1818 172.048 72.4018 172.048ZM92.4308 167.26H109.147C109.231 166.672 109.315 166 109.315 165.37C109.315 159.322 105.031 154.282 98.7728 154.282C92.1788 154.282 87.6848 159.112 87.6848 165.328C87.6848 171.628 92.1788 176.374 99.1088 176.374C103.225 176.374 106.375 174.652 108.307 171.796L104.569 169.612C103.561 171.082 101.671 172.216 99.1508 172.216C95.7908 172.216 93.1448 170.536 92.4308 167.26ZM92.3888 163.564C93.0188 160.414 95.3288 158.398 98.7308 158.398C101.461 158.398 104.107 159.952 104.737 163.564H92.3888Z" fill="black"/>
<path d="M65.0312 73.5786C68.8886 72.6313 71.7416 70.1485 71.7416 67.295C71.7416 64.4415 68.8886 61.9586 65.0312 61.0114V73.5786Z" fill="#FFC844"/>
<path d="M61.6762 20.3551C41.3256 20.3551 24.769 36.9117 24.769 57.2623C24.769 77.6129 41.3256 94.1695 61.6762 94.1695C82.0269 94.1695 98.5834 77.6129 98.5834 57.2623C98.5834 36.9117 82.0269 20.3551 61.6762 20.3551ZM78.4522 67.2952C78.4522 73.7775 72.6793 79.1977 65.0314 80.4445V84.1039C65.0314 85.9584 63.5308 87.4591 61.6762 87.4591C59.8217 87.4591 58.321 85.9584 58.321 84.1039V80.4445C50.6732 79.1977 44.9002 73.7775 44.9002 67.2952C44.9002 65.4407 46.4009 63.94 48.2554 63.94C50.11 63.94 51.6106 65.4407 51.6106 67.2952C51.6106 70.1487 54.4637 72.6316 58.321 73.5789V60.3133C50.6732 59.0665 44.9002 53.6463 44.9002 47.164C44.9002 40.6818 50.6732 35.2616 58.321 34.0148V30.388C58.321 28.5335 59.8217 27.0328 61.6762 27.0328C63.5308 27.0328 65.0314 28.5335 65.0314 30.388V34.0148C72.6793 35.2616 78.4522 40.6818 78.4522 47.164C78.4522 49.0186 76.9516 50.5192 75.097 50.5192C73.2425 50.5192 71.7418 49.0186 71.7418 47.164C71.7418 44.3106 68.8888 41.8277 65.0314 40.8804V54.146C72.6793 55.3926 78.4522 60.8128 78.4522 67.2952Z" fill="#FFC844"/>
<path d="M58.3208 40.8801C54.4634 41.8274 51.6104 44.3103 51.6104 47.1637C51.6104 50.0172 54.4634 52.5001 58.3208 53.4474V40.8801Z" fill="#FFC844"/>
<path d="M61.6756 0C30.224 0 4.41357 25.8104 4.41357 57.2621C4.41357 88.7137 30.224 114.524 61.6756 114.524C93.1273 114.524 118.938 88.7137 118.938 57.2621C118.938 25.8104 93.1273 0 61.6756 0ZM61.6756 100.88C37.6256 100.88 18.0581 81.3121 18.0581 57.2621C18.0581 33.212 37.6256 13.6445 61.6756 13.6445C85.7257 13.6445 105.293 33.212 105.293 57.2621C105.293 81.3121 85.7257 100.88 61.6756 100.88Z" fill="#FFC844"/>
</svg>
