<svg width="556" height="730" viewBox="0 0 556 730" fill="none" xmlns="http://www.w3.org/2000/svg">
<path d="M95.6732 216.645C128.433 159.903 178.928 115.496 239.391 90.255C299.853 65.0138 366.934 60.3365 430.315 76.9428C493.695 93.549 549.864 130.519 590.181 182.165C630.499 233.812 652.731 297.274 653.458 362.79C654.186 428.305 633.368 492.246 594.207 544.774C555.046 597.303 499.712 635.511 436.716 653.52C373.719 671.529 306.551 668.343 245.543 644.45C184.535 620.557 133.067 577.282 99.0552 521.282L269.773 417.597C281.059 436.179 298.137 450.539 318.38 458.467C338.624 466.395 360.911 467.452 381.814 461.476C402.718 455.501 421.079 442.823 434.073 425.393C447.067 407.963 453.975 386.746 453.733 365.007C453.492 343.268 446.115 322.21 432.737 305.073C419.359 287.936 400.721 275.668 379.69 270.158C358.66 264.648 336.401 266.2 316.339 274.575C296.276 282.951 279.521 297.686 268.651 316.514L95.6732 216.645Z" fill="url(#paint0_linear)" fill-opacity="0.15"/>
<defs>
<linearGradient id="paint0_linear" x1="597.177" y1="16.9788" x2="-151.745" y2="468.715" gradientUnits="userSpaceOnUse">
<stop stop-color="#83ADFF"/>
<stop offset="1" stop-color="#159DFF"/>
</linearGradient>
</defs>
</svg>
