<svg width="429" height="448" viewBox="0 0 429 448" fill="none" xmlns="http://www.w3.org/2000/svg">
<path d="M428.076 227.268C427.386 272.274 413.14 316.026 387.198 352.809C361.256 389.593 324.824 417.698 282.661 433.454C240.497 449.21 194.562 451.885 150.855 441.129C107.148 430.373 67.7 406.686 37.664 373.163C7.62794 339.639 -11.6002 297.836 -17.5091 253.214C-23.418 208.593 -15.733 163.226 4.54221 123.04C24.8174 82.8536 56.7403 49.7158 96.1415 27.9545C135.543 6.19313 180.591 -3.18024 225.402 1.05864L214.646 114.76C192.706 112.684 170.649 117.274 151.357 127.929C132.065 138.583 116.435 154.809 106.508 174.485C96.5808 194.161 92.818 216.373 95.7111 238.221C98.6043 260.069 108.019 280.537 122.725 296.951C137.432 313.365 156.746 324.963 178.146 330.229C199.547 335.496 222.038 334.186 242.682 326.471C263.326 318.757 281.164 304.996 293.866 286.986C306.568 268.975 313.543 247.553 313.881 225.517L428.076 227.268Z" fill="url(#paint0_linear)" fill-opacity="0.25"/>
<defs>
<linearGradient id="paint0_linear" x1="172.854" y1="540.548" x2="498.045" y2="-27.7149" gradientUnits="userSpaceOnUse">
<stop stop-color="#83ADFF"/>
<stop offset="1" stop-color="#159DFF"/>
</linearGradient>
</defs>
</svg>
