<svg width="338" height="1096" viewBox="0 0 338 1096" fill="none" xmlns="http://www.w3.org/2000/svg">
<path fill-rule="evenodd" clip-rule="evenodd" d="M954.83 343.715C989.692 435.755 980.193 530.128 991.907 627.007C1005.31 737.868 1086.13 860.026 1028.34 951.657C970.753 1042.96 832.663 1021.89 727.412 1046.36C631.767 1068.6 538.982 1114.47 442.159 1087.93C342.058 1060.49 268.614 978.621 196.869 900.925C115.404 812.704 -5.23127 727.058 0.275932 609.396C5.80946 491.172 144.978 440.938 222.392 355.634C287.302 284.108 335.697 202.773 416.726 150.5C522.481 82.2752 635.784 -33.9755 758.192 9.9773C880.886 54.0328 908.094 220.328 954.83 343.715Z" fill="url(#paint0_linear)" fill-opacity="0.15"/>
<defs>
<linearGradient id="paint0_linear" x1="436.03" y1="-12.612" x2="728.103" y2="1325.48" gradientUnits="userSpaceOnUse">
<stop stop-color="#56CCF2"/>
<stop offset="1" stop-color="#2F80ED"/>
</linearGradient>
</defs>
</svg>
