<svg width="125" height="192" viewBox="0 0 125 192" fill="none" xmlns="http://www.w3.org/2000/svg">
<path d="M16.842 176.374C22.26 176.374 27.048 173.602 29.484 169.318L25.284 166.924C23.772 169.822 20.538 171.67 16.842 171.67C10.5 171.67 6.3 167.176 6.3 161.128C6.3 155.08 10.5 150.586 16.842 150.586C20.538 150.586 23.73 152.434 25.284 155.332L29.484 152.896C27.006 148.612 22.218 145.882 16.842 145.882C7.896 145.882 1.47 152.602 1.47 161.128C1.47 169.654 7.896 176.374 16.842 176.374ZM44.4537 154.282C41.5977 154.282 39.3297 155.332 37.9437 157.516V146.428H33.4077V175.828H37.9437V164.572C37.9437 160.288 40.2957 158.524 43.2777 158.524C46.1337 158.524 47.9817 160.204 47.9817 163.396V175.828H52.5177V162.934C52.5177 157.474 49.1577 154.282 44.4537 154.282ZM74.0339 154.828V157.81C72.4379 155.626 69.9599 154.282 66.6839 154.282C60.9719 154.282 56.2259 159.07 56.2259 165.328C56.2259 171.544 60.9719 176.374 66.6839 176.374C69.9599 176.374 72.4379 175.03 74.0339 172.804V175.828H78.5699V154.828H74.0339ZM67.3979 172.048C63.6179 172.048 60.7619 169.234 60.7619 165.328C60.7619 161.422 63.6179 158.608 67.3979 158.608C71.1779 158.608 74.0339 161.422 74.0339 165.328C74.0339 169.234 71.1779 172.048 67.3979 172.048ZM88.3929 158.356V154.828H83.8569V175.828H88.3929V165.244C88.3929 160.54 91.8789 159.154 94.8609 159.364V154.45C92.2149 154.45 89.6529 155.5 88.3929 158.356ZM110.464 159.196V154.828H105.256V148.948L100.72 150.292V154.828H96.8556V159.196H100.72V169.276C100.72 174.736 103.492 176.668 110.464 175.828V171.754C107.02 171.922 105.256 171.964 105.256 169.276V159.196H110.464Z" fill="black"/>
<path d="M115.843 106.996H12.1766V3.32974C12.1766 1.48928 10.6873 0 8.84683 0C7.00637 0 5.51709 1.48928 5.51709 3.32974V110.325C5.51709 112.166 7.00637 113.655 8.84683 113.655H115.843C117.683 113.655 119.172 112.166 119.172 110.325C119.172 108.485 117.683 106.996 115.843 106.996Z" fill="#FFC844"/>
<path d="M22.1662 100.336H35.7071C37.5476 100.336 39.0369 98.8469 39.0369 97.0065V76.8061C39.0369 74.9656 37.5476 73.4763 35.7071 73.4763H22.1662C20.3257 73.4763 18.8364 74.9656 18.8364 76.8061V97.0065C18.8364 98.8469 20.3257 100.336 22.1662 100.336Z" fill="#FFDD84"/>
<path d="M49.026 60.1575C47.1856 60.1575 45.6963 61.6468 45.6963 63.4872V97.0066C45.6963 98.8471 47.1856 100.336 49.026 100.336H62.345C64.1855 100.336 65.6747 98.8471 65.6747 97.0066V63.4872C65.6747 61.6468 64.1855 60.1575 62.345 60.1575H49.026Z" fill="#FFC844"/>
<path d="M75.6647 46.8384C73.8242 46.8384 72.335 48.3277 72.335 50.1681V97.0065C72.335 98.8469 73.8242 100.336 75.6647 100.336H88.9837C90.8241 100.336 92.3134 98.8469 92.3134 97.0065V50.1681C92.3134 48.3277 90.8241 46.8384 88.9837 46.8384H75.6647Z" fill="#FFDD84"/>
<path d="M115.842 33.5195H102.301C100.461 33.5195 98.9717 35.0088 98.9717 36.8493V97.0066C98.9717 98.8471 100.461 100.336 102.301 100.336H115.842C117.683 100.336 119.172 98.8471 119.172 97.0066V36.8493C119.172 35.0088 117.683 33.5195 115.842 33.5195Z" fill="#FFC844"/>
<path d="M19.2333 58.4047C20.1121 60.0382 22.1433 60.6232 23.7433 59.7605L101.279 18.1303L99.3235 22.041C98.5009 23.6863 99.1675 25.6862 100.813 26.5089C102.473 27.3331 104.461 26.6536 105.281 25.0196L111.94 11.7006C112.457 10.6697 112.402 9.44394 111.794 8.46189C111.186 7.47984 110.116 6.88159 108.962 6.88159H92.3129C90.4724 6.88159 88.9831 8.37087 88.9831 10.2113C88.9831 12.0518 90.4724 13.5411 92.3129 13.5411H95.7536L20.5894 53.8946C18.97 54.7695 18.3618 56.7886 19.2333 58.4047Z" fill="#FFC844"/>
</svg>
