<svg width="23" height="19" viewBox="0 0 23 19" fill="none" xmlns="http://www.w3.org/2000/svg">
<path d="M23 2.2494C22.1447 2.63077 21.2332 2.8838 20.2831 3.00666C21.2606 2.41337 22.0068 1.48072 22.3576 0.356707C21.4461 0.909351 20.4399 1.2994 19.3675 1.51726C18.5019 0.580048 17.2688 0 15.9229 0C13.3124 0 11.2105 2.1544 11.2105 4.79522C11.2105 5.17522 11.2419 5.5406 11.3196 5.88863C7.40013 5.69406 3.93119 3.78401 1.60105 0.874183C1.19405 1.59171 0.955507 2.41337 0.955507 3.2976C0.955507 4.95781 1.79646 6.42986 3.04981 7.28166C2.29241 7.26704 1.54894 7.04324 0.919569 6.69111C0.919569 6.70572 0.919569 6.7249 0.919569 6.74363C0.919569 9.07341 2.55386 11.0086 4.69757 11.4544C4.31393 11.5612 3.89525 11.6124 3.4613 11.6124C3.15942 11.6124 2.85484 11.595 2.56868 11.5306C3.17963 13.4293 4.9132 14.825 6.97471 14.8702C5.37052 16.1463 3.33327 16.915 1.12846 16.915C0.741675 16.915 0.371062 16.8977 0 16.8493C2.08846 18.2181 4.5637 19 7.23301 19C15.9098 19 20.6537 11.6923 20.6537 5.35791C20.6537 5.14599 20.6465 4.94137 20.6366 4.73812C21.5724 4.06308 22.359 3.21995 23 2.2494Z" fill="white"/>
</svg>
